%TF.GenerationSoftware,KiCad,Pcbnew,8.0.4*%
%TF.CreationDate,2024-08-04T13:51:38+08:00*%
%TF.ProjectId,mai-pico-nano-io,6d61692d-7069-4636-9f2d-6e616e6f2d69,rev?*%
%TF.SameCoordinates,Original*%
%TF.FileFunction,Legend,Bot*%
%TF.FilePolarity,Positive*%
%FSLAX46Y46*%
G04 Gerber Fmt 4.6, Leading zero omitted, Abs format (unit mm)*
G04 Created by KiCad (PCBNEW 8.0.4) date 2024-08-04 13:51:38*
%MOMM*%
%LPD*%
G01*
G04 APERTURE LIST*
%ADD10C,0.120000*%
%ADD11C,0.150000*%
%ADD12C,0.010000*%
G04 APERTURE END LIST*
D10*
X78900000Y-97100000D02*
X84200000Y-97100000D01*
X84200000Y-102900000D01*
X78900000Y-102900000D01*
X78900000Y-97100000D01*
X78900000Y-108100000D02*
X84200000Y-108100000D01*
X84200000Y-113900000D01*
X78900000Y-113900000D01*
X78900000Y-108100000D01*
X83650375Y-109408760D02*
X83507518Y-109456379D01*
X83507518Y-109456379D02*
X83269423Y-109456379D01*
X83269423Y-109456379D02*
X83174185Y-109408760D01*
X83174185Y-109408760D02*
X83126566Y-109361140D01*
X83126566Y-109361140D02*
X83078947Y-109265902D01*
X83078947Y-109265902D02*
X83078947Y-109170664D01*
X83078947Y-109170664D02*
X83126566Y-109075426D01*
X83126566Y-109075426D02*
X83174185Y-109027807D01*
X83174185Y-109027807D02*
X83269423Y-108980188D01*
X83269423Y-108980188D02*
X83459899Y-108932569D01*
X83459899Y-108932569D02*
X83555137Y-108884950D01*
X83555137Y-108884950D02*
X83602756Y-108837331D01*
X83602756Y-108837331D02*
X83650375Y-108742093D01*
X83650375Y-108742093D02*
X83650375Y-108646855D01*
X83650375Y-108646855D02*
X83602756Y-108551617D01*
X83602756Y-108551617D02*
X83555137Y-108503998D01*
X83555137Y-108503998D02*
X83459899Y-108456379D01*
X83459899Y-108456379D02*
X83221804Y-108456379D01*
X83221804Y-108456379D02*
X83078947Y-108503998D01*
X82078947Y-109361140D02*
X82126566Y-109408760D01*
X82126566Y-109408760D02*
X82269423Y-109456379D01*
X82269423Y-109456379D02*
X82364661Y-109456379D01*
X82364661Y-109456379D02*
X82507518Y-109408760D01*
X82507518Y-109408760D02*
X82602756Y-109313521D01*
X82602756Y-109313521D02*
X82650375Y-109218283D01*
X82650375Y-109218283D02*
X82697994Y-109027807D01*
X82697994Y-109027807D02*
X82697994Y-108884950D01*
X82697994Y-108884950D02*
X82650375Y-108694474D01*
X82650375Y-108694474D02*
X82602756Y-108599236D01*
X82602756Y-108599236D02*
X82507518Y-108503998D01*
X82507518Y-108503998D02*
X82364661Y-108456379D01*
X82364661Y-108456379D02*
X82269423Y-108456379D01*
X82269423Y-108456379D02*
X82126566Y-108503998D01*
X82126566Y-108503998D02*
X82078947Y-108551617D01*
X81174185Y-109456379D02*
X81650375Y-109456379D01*
X81650375Y-109456379D02*
X81650375Y-108456379D01*
X83697994Y-110708760D02*
X83555137Y-110756379D01*
X83555137Y-110756379D02*
X83317042Y-110756379D01*
X83317042Y-110756379D02*
X83221804Y-110708760D01*
X83221804Y-110708760D02*
X83174185Y-110661140D01*
X83174185Y-110661140D02*
X83126566Y-110565902D01*
X83126566Y-110565902D02*
X83126566Y-110470664D01*
X83126566Y-110470664D02*
X83174185Y-110375426D01*
X83174185Y-110375426D02*
X83221804Y-110327807D01*
X83221804Y-110327807D02*
X83317042Y-110280188D01*
X83317042Y-110280188D02*
X83507518Y-110232569D01*
X83507518Y-110232569D02*
X83602756Y-110184950D01*
X83602756Y-110184950D02*
X83650375Y-110137331D01*
X83650375Y-110137331D02*
X83697994Y-110042093D01*
X83697994Y-110042093D02*
X83697994Y-109946855D01*
X83697994Y-109946855D02*
X83650375Y-109851617D01*
X83650375Y-109851617D02*
X83602756Y-109803998D01*
X83602756Y-109803998D02*
X83507518Y-109756379D01*
X83507518Y-109756379D02*
X83269423Y-109756379D01*
X83269423Y-109756379D02*
X83126566Y-109803998D01*
X82697994Y-110756379D02*
X82697994Y-109756379D01*
X82697994Y-109756379D02*
X82459899Y-109756379D01*
X82459899Y-109756379D02*
X82317042Y-109803998D01*
X82317042Y-109803998D02*
X82221804Y-109899236D01*
X82221804Y-109899236D02*
X82174185Y-109994474D01*
X82174185Y-109994474D02*
X82126566Y-110184950D01*
X82126566Y-110184950D02*
X82126566Y-110327807D01*
X82126566Y-110327807D02*
X82174185Y-110518283D01*
X82174185Y-110518283D02*
X82221804Y-110613521D01*
X82221804Y-110613521D02*
X82317042Y-110708760D01*
X82317042Y-110708760D02*
X82459899Y-110756379D01*
X82459899Y-110756379D02*
X82697994Y-110756379D01*
X81745613Y-110470664D02*
X81269423Y-110470664D01*
X81840851Y-110756379D02*
X81507518Y-109756379D01*
X81507518Y-109756379D02*
X81174185Y-110756379D01*
X83597994Y-111156379D02*
X82978947Y-111156379D01*
X82978947Y-111156379D02*
X83312280Y-111537331D01*
X83312280Y-111537331D02*
X83169423Y-111537331D01*
X83169423Y-111537331D02*
X83074185Y-111584950D01*
X83074185Y-111584950D02*
X83026566Y-111632569D01*
X83026566Y-111632569D02*
X82978947Y-111727807D01*
X82978947Y-111727807D02*
X82978947Y-111965902D01*
X82978947Y-111965902D02*
X83026566Y-112061140D01*
X83026566Y-112061140D02*
X83074185Y-112108760D01*
X83074185Y-112108760D02*
X83169423Y-112156379D01*
X83169423Y-112156379D02*
X83455137Y-112156379D01*
X83455137Y-112156379D02*
X83550375Y-112108760D01*
X83550375Y-112108760D02*
X83597994Y-112061140D01*
X82693232Y-111156379D02*
X82359899Y-112156379D01*
X82359899Y-112156379D02*
X82026566Y-111156379D01*
X81788470Y-111156379D02*
X81169423Y-111156379D01*
X81169423Y-111156379D02*
X81502756Y-111537331D01*
X81502756Y-111537331D02*
X81359899Y-111537331D01*
X81359899Y-111537331D02*
X81264661Y-111584950D01*
X81264661Y-111584950D02*
X81217042Y-111632569D01*
X81217042Y-111632569D02*
X81169423Y-111727807D01*
X81169423Y-111727807D02*
X81169423Y-111965902D01*
X81169423Y-111965902D02*
X81217042Y-112061140D01*
X81217042Y-112061140D02*
X81264661Y-112108760D01*
X81264661Y-112108760D02*
X81359899Y-112156379D01*
X81359899Y-112156379D02*
X81645613Y-112156379D01*
X81645613Y-112156379D02*
X81740851Y-112108760D01*
X81740851Y-112108760D02*
X81788470Y-112061140D01*
X83597994Y-100156379D02*
X82978947Y-100156379D01*
X82978947Y-100156379D02*
X83312280Y-100537331D01*
X83312280Y-100537331D02*
X83169423Y-100537331D01*
X83169423Y-100537331D02*
X83074185Y-100584950D01*
X83074185Y-100584950D02*
X83026566Y-100632569D01*
X83026566Y-100632569D02*
X82978947Y-100727807D01*
X82978947Y-100727807D02*
X82978947Y-100965902D01*
X82978947Y-100965902D02*
X83026566Y-101061140D01*
X83026566Y-101061140D02*
X83074185Y-101108760D01*
X83074185Y-101108760D02*
X83169423Y-101156379D01*
X83169423Y-101156379D02*
X83455137Y-101156379D01*
X83455137Y-101156379D02*
X83550375Y-101108760D01*
X83550375Y-101108760D02*
X83597994Y-101061140D01*
X82693232Y-100156379D02*
X82359899Y-101156379D01*
X82359899Y-101156379D02*
X82026566Y-100156379D01*
X81788470Y-100156379D02*
X81169423Y-100156379D01*
X81169423Y-100156379D02*
X81502756Y-100537331D01*
X81502756Y-100537331D02*
X81359899Y-100537331D01*
X81359899Y-100537331D02*
X81264661Y-100584950D01*
X81264661Y-100584950D02*
X81217042Y-100632569D01*
X81217042Y-100632569D02*
X81169423Y-100727807D01*
X81169423Y-100727807D02*
X81169423Y-100965902D01*
X81169423Y-100965902D02*
X81217042Y-101061140D01*
X81217042Y-101061140D02*
X81264661Y-101108760D01*
X81264661Y-101108760D02*
X81359899Y-101156379D01*
X81359899Y-101156379D02*
X81645613Y-101156379D01*
X81645613Y-101156379D02*
X81740851Y-101108760D01*
X81740851Y-101108760D02*
X81788470Y-101061140D01*
D11*
X90022744Y-94545342D02*
X89922744Y-93745342D01*
X89937030Y-93859628D02*
X89872744Y-93802485D01*
X89872744Y-93802485D02*
X89751316Y-93745342D01*
X89751316Y-93745342D02*
X89579887Y-93745342D01*
X89579887Y-93745342D02*
X89472744Y-93802485D01*
X89472744Y-93802485D02*
X89429887Y-93916771D01*
X89429887Y-93916771D02*
X89508458Y-94545342D01*
X89429887Y-93916771D02*
X89358458Y-93802485D01*
X89358458Y-93802485D02*
X89237030Y-93745342D01*
X89237030Y-93745342D02*
X89065601Y-93745342D01*
X89065601Y-93745342D02*
X88958458Y-93802485D01*
X88958458Y-93802485D02*
X88915601Y-93916771D01*
X88915601Y-93916771D02*
X88994173Y-94545342D01*
X87908458Y-94545342D02*
X87829887Y-93916771D01*
X87829887Y-93916771D02*
X87872744Y-93802485D01*
X87872744Y-93802485D02*
X87979887Y-93745342D01*
X87979887Y-93745342D02*
X88208458Y-93745342D01*
X88208458Y-93745342D02*
X88329887Y-93802485D01*
X87901316Y-94488200D02*
X88022744Y-94545342D01*
X88022744Y-94545342D02*
X88308458Y-94545342D01*
X88308458Y-94545342D02*
X88415601Y-94488200D01*
X88415601Y-94488200D02*
X88458458Y-94373914D01*
X88458458Y-94373914D02*
X88444173Y-94259628D01*
X88444173Y-94259628D02*
X88372744Y-94145342D01*
X88372744Y-94145342D02*
X88251316Y-94088200D01*
X88251316Y-94088200D02*
X87965601Y-94088200D01*
X87965601Y-94088200D02*
X87844173Y-94031057D01*
X87337030Y-94545342D02*
X87237030Y-93745342D01*
X87187030Y-93345342D02*
X87251316Y-93402485D01*
X87251316Y-93402485D02*
X87201316Y-93459628D01*
X87201316Y-93459628D02*
X87137030Y-93402485D01*
X87137030Y-93402485D02*
X87187030Y-93345342D01*
X87187030Y-93345342D02*
X87201316Y-93459628D01*
X86765601Y-94545342D02*
X86615601Y-93345342D01*
X86615601Y-93345342D02*
X86158458Y-93345342D01*
X86158458Y-93345342D02*
X86051315Y-93402485D01*
X86051315Y-93402485D02*
X86001315Y-93459628D01*
X86001315Y-93459628D02*
X85958458Y-93573914D01*
X85958458Y-93573914D02*
X85979887Y-93745342D01*
X85979887Y-93745342D02*
X86051315Y-93859628D01*
X86051315Y-93859628D02*
X86115601Y-93916771D01*
X86115601Y-93916771D02*
X86237030Y-93973914D01*
X86237030Y-93973914D02*
X86694173Y-93973914D01*
X85565601Y-94545342D02*
X85465601Y-93745342D01*
X85415601Y-93345342D02*
X85479887Y-93402485D01*
X85479887Y-93402485D02*
X85429887Y-93459628D01*
X85429887Y-93459628D02*
X85365601Y-93402485D01*
X85365601Y-93402485D02*
X85415601Y-93345342D01*
X85415601Y-93345342D02*
X85429887Y-93459628D01*
X84472744Y-94488200D02*
X84594172Y-94545342D01*
X84594172Y-94545342D02*
X84822744Y-94545342D01*
X84822744Y-94545342D02*
X84929886Y-94488200D01*
X84929886Y-94488200D02*
X84979886Y-94431057D01*
X84979886Y-94431057D02*
X85022744Y-94316771D01*
X85022744Y-94316771D02*
X84979886Y-93973914D01*
X84979886Y-93973914D02*
X84908458Y-93859628D01*
X84908458Y-93859628D02*
X84844172Y-93802485D01*
X84844172Y-93802485D02*
X84722744Y-93745342D01*
X84722744Y-93745342D02*
X84494172Y-93745342D01*
X84494172Y-93745342D02*
X84387029Y-93802485D01*
X83794173Y-94545342D02*
X83901315Y-94488200D01*
X83901315Y-94488200D02*
X83951315Y-94431057D01*
X83951315Y-94431057D02*
X83994173Y-94316771D01*
X83994173Y-94316771D02*
X83951315Y-93973914D01*
X83951315Y-93973914D02*
X83879887Y-93859628D01*
X83879887Y-93859628D02*
X83815601Y-93802485D01*
X83815601Y-93802485D02*
X83694173Y-93745342D01*
X83694173Y-93745342D02*
X83522744Y-93745342D01*
X83522744Y-93745342D02*
X83415601Y-93802485D01*
X83415601Y-93802485D02*
X83365601Y-93859628D01*
X83365601Y-93859628D02*
X83322744Y-93973914D01*
X83322744Y-93973914D02*
X83365601Y-94316771D01*
X83365601Y-94316771D02*
X83437030Y-94431057D01*
X83437030Y-94431057D02*
X83501315Y-94488200D01*
X83501315Y-94488200D02*
X83622744Y-94545342D01*
X83622744Y-94545342D02*
X83794173Y-94545342D01*
X82822744Y-94088200D02*
X81908459Y-94088200D01*
X81294173Y-93745342D02*
X81394173Y-94545342D01*
X81308459Y-93859628D02*
X81244173Y-93802485D01*
X81244173Y-93802485D02*
X81122745Y-93745342D01*
X81122745Y-93745342D02*
X80951316Y-93745342D01*
X80951316Y-93745342D02*
X80844173Y-93802485D01*
X80844173Y-93802485D02*
X80801316Y-93916771D01*
X80801316Y-93916771D02*
X80879887Y-94545342D01*
X79794173Y-94545342D02*
X79715602Y-93916771D01*
X79715602Y-93916771D02*
X79758459Y-93802485D01*
X79758459Y-93802485D02*
X79865602Y-93745342D01*
X79865602Y-93745342D02*
X80094173Y-93745342D01*
X80094173Y-93745342D02*
X80215602Y-93802485D01*
X79787031Y-94488200D02*
X79908459Y-94545342D01*
X79908459Y-94545342D02*
X80194173Y-94545342D01*
X80194173Y-94545342D02*
X80301316Y-94488200D01*
X80301316Y-94488200D02*
X80344173Y-94373914D01*
X80344173Y-94373914D02*
X80329888Y-94259628D01*
X80329888Y-94259628D02*
X80258459Y-94145342D01*
X80258459Y-94145342D02*
X80137031Y-94088200D01*
X80137031Y-94088200D02*
X79851316Y-94088200D01*
X79851316Y-94088200D02*
X79729888Y-94031057D01*
X79122745Y-93745342D02*
X79222745Y-94545342D01*
X79137031Y-93859628D02*
X79072745Y-93802485D01*
X79072745Y-93802485D02*
X78951317Y-93745342D01*
X78951317Y-93745342D02*
X78779888Y-93745342D01*
X78779888Y-93745342D02*
X78672745Y-93802485D01*
X78672745Y-93802485D02*
X78629888Y-93916771D01*
X78629888Y-93916771D02*
X78708459Y-94545342D01*
X77965603Y-94545342D02*
X78072745Y-94488200D01*
X78072745Y-94488200D02*
X78122745Y-94431057D01*
X78122745Y-94431057D02*
X78165603Y-94316771D01*
X78165603Y-94316771D02*
X78122745Y-93973914D01*
X78122745Y-93973914D02*
X78051317Y-93859628D01*
X78051317Y-93859628D02*
X77987031Y-93802485D01*
X77987031Y-93802485D02*
X77865603Y-93745342D01*
X77865603Y-93745342D02*
X77694174Y-93745342D01*
X77694174Y-93745342D02*
X77587031Y-93802485D01*
X77587031Y-93802485D02*
X77537031Y-93859628D01*
X77537031Y-93859628D02*
X77494174Y-93973914D01*
X77494174Y-93973914D02*
X77537031Y-94316771D01*
X77537031Y-94316771D02*
X77608460Y-94431057D01*
X77608460Y-94431057D02*
X77672745Y-94488200D01*
X77672745Y-94488200D02*
X77794174Y-94545342D01*
X77794174Y-94545342D02*
X77965603Y-94545342D01*
D10*
X83650375Y-98408760D02*
X83507518Y-98456379D01*
X83507518Y-98456379D02*
X83269423Y-98456379D01*
X83269423Y-98456379D02*
X83174185Y-98408760D01*
X83174185Y-98408760D02*
X83126566Y-98361140D01*
X83126566Y-98361140D02*
X83078947Y-98265902D01*
X83078947Y-98265902D02*
X83078947Y-98170664D01*
X83078947Y-98170664D02*
X83126566Y-98075426D01*
X83126566Y-98075426D02*
X83174185Y-98027807D01*
X83174185Y-98027807D02*
X83269423Y-97980188D01*
X83269423Y-97980188D02*
X83459899Y-97932569D01*
X83459899Y-97932569D02*
X83555137Y-97884950D01*
X83555137Y-97884950D02*
X83602756Y-97837331D01*
X83602756Y-97837331D02*
X83650375Y-97742093D01*
X83650375Y-97742093D02*
X83650375Y-97646855D01*
X83650375Y-97646855D02*
X83602756Y-97551617D01*
X83602756Y-97551617D02*
X83555137Y-97503998D01*
X83555137Y-97503998D02*
X83459899Y-97456379D01*
X83459899Y-97456379D02*
X83221804Y-97456379D01*
X83221804Y-97456379D02*
X83078947Y-97503998D01*
X82078947Y-98361140D02*
X82126566Y-98408760D01*
X82126566Y-98408760D02*
X82269423Y-98456379D01*
X82269423Y-98456379D02*
X82364661Y-98456379D01*
X82364661Y-98456379D02*
X82507518Y-98408760D01*
X82507518Y-98408760D02*
X82602756Y-98313521D01*
X82602756Y-98313521D02*
X82650375Y-98218283D01*
X82650375Y-98218283D02*
X82697994Y-98027807D01*
X82697994Y-98027807D02*
X82697994Y-97884950D01*
X82697994Y-97884950D02*
X82650375Y-97694474D01*
X82650375Y-97694474D02*
X82602756Y-97599236D01*
X82602756Y-97599236D02*
X82507518Y-97503998D01*
X82507518Y-97503998D02*
X82364661Y-97456379D01*
X82364661Y-97456379D02*
X82269423Y-97456379D01*
X82269423Y-97456379D02*
X82126566Y-97503998D01*
X82126566Y-97503998D02*
X82078947Y-97551617D01*
X81174185Y-98456379D02*
X81650375Y-98456379D01*
X81650375Y-98456379D02*
X81650375Y-97456379D01*
X83264661Y-112603998D02*
X83359899Y-112556379D01*
X83359899Y-112556379D02*
X83502756Y-112556379D01*
X83502756Y-112556379D02*
X83645613Y-112603998D01*
X83645613Y-112603998D02*
X83740851Y-112699236D01*
X83740851Y-112699236D02*
X83788470Y-112794474D01*
X83788470Y-112794474D02*
X83836089Y-112984950D01*
X83836089Y-112984950D02*
X83836089Y-113127807D01*
X83836089Y-113127807D02*
X83788470Y-113318283D01*
X83788470Y-113318283D02*
X83740851Y-113413521D01*
X83740851Y-113413521D02*
X83645613Y-113508760D01*
X83645613Y-113508760D02*
X83502756Y-113556379D01*
X83502756Y-113556379D02*
X83407518Y-113556379D01*
X83407518Y-113556379D02*
X83264661Y-113508760D01*
X83264661Y-113508760D02*
X83217042Y-113461140D01*
X83217042Y-113461140D02*
X83217042Y-113127807D01*
X83217042Y-113127807D02*
X83407518Y-113127807D01*
X82788470Y-113556379D02*
X82788470Y-112556379D01*
X82788470Y-112556379D02*
X82217042Y-113556379D01*
X82217042Y-113556379D02*
X82217042Y-112556379D01*
X81740851Y-113556379D02*
X81740851Y-112556379D01*
X81740851Y-112556379D02*
X81502756Y-112556379D01*
X81502756Y-112556379D02*
X81359899Y-112603998D01*
X81359899Y-112603998D02*
X81264661Y-112699236D01*
X81264661Y-112699236D02*
X81217042Y-112794474D01*
X81217042Y-112794474D02*
X81169423Y-112984950D01*
X81169423Y-112984950D02*
X81169423Y-113127807D01*
X81169423Y-113127807D02*
X81217042Y-113318283D01*
X81217042Y-113318283D02*
X81264661Y-113413521D01*
X81264661Y-113413521D02*
X81359899Y-113508760D01*
X81359899Y-113508760D02*
X81502756Y-113556379D01*
X81502756Y-113556379D02*
X81740851Y-113556379D01*
X90088910Y-96071379D02*
X89963910Y-95071379D01*
X89297243Y-95071379D02*
X89106767Y-95071379D01*
X89106767Y-95071379D02*
X89017482Y-95118998D01*
X89017482Y-95118998D02*
X88934148Y-95214236D01*
X88934148Y-95214236D02*
X88910339Y-95404712D01*
X88910339Y-95404712D02*
X88952005Y-95738045D01*
X88952005Y-95738045D02*
X89023434Y-95928521D01*
X89023434Y-95928521D02*
X89130577Y-96023760D01*
X89130577Y-96023760D02*
X89231767Y-96071379D01*
X89231767Y-96071379D02*
X89422243Y-96071379D01*
X89422243Y-96071379D02*
X89511529Y-96023760D01*
X89511529Y-96023760D02*
X89594863Y-95928521D01*
X89594863Y-95928521D02*
X89618672Y-95738045D01*
X89618672Y-95738045D02*
X89577005Y-95404712D01*
X89577005Y-95404712D02*
X89505577Y-95214236D01*
X89505577Y-95214236D02*
X89398434Y-95118998D01*
X89398434Y-95118998D02*
X89297243Y-95071379D01*
X87404386Y-95547569D02*
X87267481Y-95595188D01*
X87267481Y-95595188D02*
X87225815Y-95642807D01*
X87225815Y-95642807D02*
X87190100Y-95738045D01*
X87190100Y-95738045D02*
X87207958Y-95880902D01*
X87207958Y-95880902D02*
X87267481Y-95976140D01*
X87267481Y-95976140D02*
X87321053Y-96023760D01*
X87321053Y-96023760D02*
X87422243Y-96071379D01*
X87422243Y-96071379D02*
X87803196Y-96071379D01*
X87803196Y-96071379D02*
X87678196Y-95071379D01*
X87678196Y-95071379D02*
X87344862Y-95071379D01*
X87344862Y-95071379D02*
X87255577Y-95118998D01*
X87255577Y-95118998D02*
X87213910Y-95166617D01*
X87213910Y-95166617D02*
X87178196Y-95261855D01*
X87178196Y-95261855D02*
X87190100Y-95357093D01*
X87190100Y-95357093D02*
X87249624Y-95452331D01*
X87249624Y-95452331D02*
X87303196Y-95499950D01*
X87303196Y-95499950D02*
X87404386Y-95547569D01*
X87404386Y-95547569D02*
X87737719Y-95547569D01*
X86660339Y-96071379D02*
X86749624Y-96023760D01*
X86749624Y-96023760D02*
X86791291Y-95976140D01*
X86791291Y-95976140D02*
X86827005Y-95880902D01*
X86827005Y-95880902D02*
X86791291Y-95595188D01*
X86791291Y-95595188D02*
X86731767Y-95499950D01*
X86731767Y-95499950D02*
X86678196Y-95452331D01*
X86678196Y-95452331D02*
X86577005Y-95404712D01*
X86577005Y-95404712D02*
X86434148Y-95404712D01*
X86434148Y-95404712D02*
X86344862Y-95452331D01*
X86344862Y-95452331D02*
X86303196Y-95499950D01*
X86303196Y-95499950D02*
X86267481Y-95595188D01*
X86267481Y-95595188D02*
X86303196Y-95880902D01*
X86303196Y-95880902D02*
X86362719Y-95976140D01*
X86362719Y-95976140D02*
X86416291Y-96023760D01*
X86416291Y-96023760D02*
X86517481Y-96071379D01*
X86517481Y-96071379D02*
X86660339Y-96071379D01*
X85469862Y-96071379D02*
X85404386Y-95547569D01*
X85404386Y-95547569D02*
X85440100Y-95452331D01*
X85440100Y-95452331D02*
X85529386Y-95404712D01*
X85529386Y-95404712D02*
X85719862Y-95404712D01*
X85719862Y-95404712D02*
X85821053Y-95452331D01*
X85463910Y-96023760D02*
X85565100Y-96071379D01*
X85565100Y-96071379D02*
X85803196Y-96071379D01*
X85803196Y-96071379D02*
X85892481Y-96023760D01*
X85892481Y-96023760D02*
X85928196Y-95928521D01*
X85928196Y-95928521D02*
X85916291Y-95833283D01*
X85916291Y-95833283D02*
X85856767Y-95738045D01*
X85856767Y-95738045D02*
X85755577Y-95690426D01*
X85755577Y-95690426D02*
X85517481Y-95690426D01*
X85517481Y-95690426D02*
X85416291Y-95642807D01*
X84993672Y-96071379D02*
X84910338Y-95404712D01*
X84934148Y-95595188D02*
X84874624Y-95499950D01*
X84874624Y-95499950D02*
X84821053Y-95452331D01*
X84821053Y-95452331D02*
X84719862Y-95404712D01*
X84719862Y-95404712D02*
X84624624Y-95404712D01*
X83946052Y-96071379D02*
X83821052Y-95071379D01*
X83940100Y-96023760D02*
X84041290Y-96071379D01*
X84041290Y-96071379D02*
X84231767Y-96071379D01*
X84231767Y-96071379D02*
X84321052Y-96023760D01*
X84321052Y-96023760D02*
X84362719Y-95976140D01*
X84362719Y-95976140D02*
X84398433Y-95880902D01*
X84398433Y-95880902D02*
X84362719Y-95595188D01*
X84362719Y-95595188D02*
X84303195Y-95499950D01*
X84303195Y-95499950D02*
X84249624Y-95452331D01*
X84249624Y-95452331D02*
X84148433Y-95404712D01*
X84148433Y-95404712D02*
X83957957Y-95404712D01*
X83957957Y-95404712D02*
X83868671Y-95452331D01*
X83264661Y-101603998D02*
X83359899Y-101556379D01*
X83359899Y-101556379D02*
X83502756Y-101556379D01*
X83502756Y-101556379D02*
X83645613Y-101603998D01*
X83645613Y-101603998D02*
X83740851Y-101699236D01*
X83740851Y-101699236D02*
X83788470Y-101794474D01*
X83788470Y-101794474D02*
X83836089Y-101984950D01*
X83836089Y-101984950D02*
X83836089Y-102127807D01*
X83836089Y-102127807D02*
X83788470Y-102318283D01*
X83788470Y-102318283D02*
X83740851Y-102413521D01*
X83740851Y-102413521D02*
X83645613Y-102508760D01*
X83645613Y-102508760D02*
X83502756Y-102556379D01*
X83502756Y-102556379D02*
X83407518Y-102556379D01*
X83407518Y-102556379D02*
X83264661Y-102508760D01*
X83264661Y-102508760D02*
X83217042Y-102461140D01*
X83217042Y-102461140D02*
X83217042Y-102127807D01*
X83217042Y-102127807D02*
X83407518Y-102127807D01*
X82788470Y-102556379D02*
X82788470Y-101556379D01*
X82788470Y-101556379D02*
X82217042Y-102556379D01*
X82217042Y-102556379D02*
X82217042Y-101556379D01*
X81740851Y-102556379D02*
X81740851Y-101556379D01*
X81740851Y-101556379D02*
X81502756Y-101556379D01*
X81502756Y-101556379D02*
X81359899Y-101603998D01*
X81359899Y-101603998D02*
X81264661Y-101699236D01*
X81264661Y-101699236D02*
X81217042Y-101794474D01*
X81217042Y-101794474D02*
X81169423Y-101984950D01*
X81169423Y-101984950D02*
X81169423Y-102127807D01*
X81169423Y-102127807D02*
X81217042Y-102318283D01*
X81217042Y-102318283D02*
X81264661Y-102413521D01*
X81264661Y-102413521D02*
X81359899Y-102508760D01*
X81359899Y-102508760D02*
X81502756Y-102556379D01*
X81502756Y-102556379D02*
X81740851Y-102556379D01*
X83697994Y-99708760D02*
X83555137Y-99756379D01*
X83555137Y-99756379D02*
X83317042Y-99756379D01*
X83317042Y-99756379D02*
X83221804Y-99708760D01*
X83221804Y-99708760D02*
X83174185Y-99661140D01*
X83174185Y-99661140D02*
X83126566Y-99565902D01*
X83126566Y-99565902D02*
X83126566Y-99470664D01*
X83126566Y-99470664D02*
X83174185Y-99375426D01*
X83174185Y-99375426D02*
X83221804Y-99327807D01*
X83221804Y-99327807D02*
X83317042Y-99280188D01*
X83317042Y-99280188D02*
X83507518Y-99232569D01*
X83507518Y-99232569D02*
X83602756Y-99184950D01*
X83602756Y-99184950D02*
X83650375Y-99137331D01*
X83650375Y-99137331D02*
X83697994Y-99042093D01*
X83697994Y-99042093D02*
X83697994Y-98946855D01*
X83697994Y-98946855D02*
X83650375Y-98851617D01*
X83650375Y-98851617D02*
X83602756Y-98803998D01*
X83602756Y-98803998D02*
X83507518Y-98756379D01*
X83507518Y-98756379D02*
X83269423Y-98756379D01*
X83269423Y-98756379D02*
X83126566Y-98803998D01*
X82697994Y-99756379D02*
X82697994Y-98756379D01*
X82697994Y-98756379D02*
X82459899Y-98756379D01*
X82459899Y-98756379D02*
X82317042Y-98803998D01*
X82317042Y-98803998D02*
X82221804Y-98899236D01*
X82221804Y-98899236D02*
X82174185Y-98994474D01*
X82174185Y-98994474D02*
X82126566Y-99184950D01*
X82126566Y-99184950D02*
X82126566Y-99327807D01*
X82126566Y-99327807D02*
X82174185Y-99518283D01*
X82174185Y-99518283D02*
X82221804Y-99613521D01*
X82221804Y-99613521D02*
X82317042Y-99708760D01*
X82317042Y-99708760D02*
X82459899Y-99756379D01*
X82459899Y-99756379D02*
X82697994Y-99756379D01*
X81745613Y-99470664D02*
X81269423Y-99470664D01*
X81840851Y-99756379D02*
X81507518Y-98756379D01*
X81507518Y-98756379D02*
X81174185Y-99756379D01*
D12*
%TO.C,REF\u002A\u002A*%
X111623684Y-113532216D02*
X111664650Y-113545005D01*
X111715099Y-113566261D01*
X111739526Y-113577684D01*
X111757155Y-113579749D01*
X111761053Y-113563916D01*
X111761057Y-113563468D01*
X111769312Y-113548351D01*
X111797781Y-113540603D01*
X111852961Y-113538421D01*
X111944869Y-113538421D01*
X111944869Y-114340526D01*
X111761053Y-114340526D01*
X111761053Y-113787483D01*
X111715358Y-113745134D01*
X111701082Y-113733098D01*
X111658558Y-113712534D01*
X111606192Y-113711710D01*
X111534889Y-113729856D01*
X111510852Y-113731005D01*
X111482656Y-113713402D01*
X111445126Y-113671562D01*
X111426921Y-113648419D01*
X111405391Y-113615742D01*
X111402073Y-113594942D01*
X111414128Y-113577395D01*
X111451135Y-113555206D01*
X111508612Y-113537645D01*
X111570972Y-113528938D01*
X111623684Y-113532216D01*
G36*
X111623684Y-113532216D02*
G01*
X111664650Y-113545005D01*
X111715099Y-113566261D01*
X111739526Y-113577684D01*
X111757155Y-113579749D01*
X111761053Y-113563916D01*
X111761057Y-113563468D01*
X111769312Y-113548351D01*
X111797781Y-113540603D01*
X111852961Y-113538421D01*
X111944869Y-113538421D01*
X111944869Y-114340526D01*
X111761053Y-114340526D01*
X111761053Y-113787483D01*
X111715358Y-113745134D01*
X111701082Y-113733098D01*
X111658558Y-113712534D01*
X111606192Y-113711710D01*
X111534889Y-113729856D01*
X111510852Y-113731005D01*
X111482656Y-113713402D01*
X111445126Y-113671562D01*
X111426921Y-113648419D01*
X111405391Y-113615742D01*
X111402073Y-113594942D01*
X111414128Y-113577395D01*
X111451135Y-113555206D01*
X111508612Y-113537645D01*
X111570972Y-113528938D01*
X111623684Y-113532216D01*
G37*
X111867063Y-114802716D02*
X111917550Y-114826344D01*
X111961579Y-114860978D01*
X111961579Y-114826344D01*
X111962676Y-114813194D01*
X111972885Y-114799252D01*
X112000493Y-114793094D01*
X112053487Y-114791710D01*
X112145395Y-114791710D01*
X112145395Y-115610526D01*
X111961579Y-115610526D01*
X111961579Y-115343944D01*
X111961557Y-115328640D01*
X111959989Y-115221060D01*
X111956141Y-115133427D01*
X111950287Y-115070224D01*
X111942701Y-115035929D01*
X111935736Y-115022982D01*
X111892860Y-114982378D01*
X111834458Y-114964404D01*
X111770686Y-114972789D01*
X111755044Y-114978472D01*
X111721721Y-114988517D01*
X111698947Y-114985398D01*
X111676031Y-114964979D01*
X111642283Y-114923127D01*
X111587547Y-114854017D01*
X111626020Y-114822864D01*
X111662592Y-114804112D01*
X111726833Y-114791447D01*
X111799240Y-114791033D01*
X111867063Y-114802716D01*
G36*
X111867063Y-114802716D02*
G01*
X111917550Y-114826344D01*
X111961579Y-114860978D01*
X111961579Y-114826344D01*
X111962676Y-114813194D01*
X111972885Y-114799252D01*
X112000493Y-114793094D01*
X112053487Y-114791710D01*
X112145395Y-114791710D01*
X112145395Y-115610526D01*
X111961579Y-115610526D01*
X111961579Y-115343944D01*
X111961557Y-115328640D01*
X111959989Y-115221060D01*
X111956141Y-115133427D01*
X111950287Y-115070224D01*
X111942701Y-115035929D01*
X111935736Y-115022982D01*
X111892860Y-114982378D01*
X111834458Y-114964404D01*
X111770686Y-114972789D01*
X111755044Y-114978472D01*
X111721721Y-114988517D01*
X111698947Y-114985398D01*
X111676031Y-114964979D01*
X111642283Y-114923127D01*
X111587547Y-114854017D01*
X111626020Y-114822864D01*
X111662592Y-114804112D01*
X111726833Y-114791447D01*
X111799240Y-114791033D01*
X111867063Y-114802716D01*
G37*
X115353816Y-115610526D02*
X115186711Y-115610526D01*
X115186711Y-115352601D01*
X115186526Y-115292605D01*
X115184626Y-115193237D01*
X115179816Y-115119673D01*
X115171052Y-115066827D01*
X115157290Y-115029614D01*
X115137487Y-115002949D01*
X115110600Y-114981746D01*
X115081248Y-114965947D01*
X115046491Y-114961467D01*
X114997058Y-114971429D01*
X114981173Y-114975576D01*
X114941520Y-114981818D01*
X114913167Y-114972875D01*
X114880306Y-114945195D01*
X114874070Y-114939175D01*
X114839594Y-114901937D01*
X114817361Y-114871660D01*
X114814311Y-114864366D01*
X114820354Y-114837432D01*
X114850998Y-114815898D01*
X114899363Y-114800786D01*
X114958566Y-114793114D01*
X115021728Y-114793904D01*
X115081967Y-114804175D01*
X115132402Y-114824948D01*
X115148388Y-114834648D01*
X115175302Y-114848845D01*
X115185264Y-114845594D01*
X115186711Y-114824886D01*
X115187050Y-114817451D01*
X115195112Y-114800982D01*
X115220119Y-114793486D01*
X115270264Y-114791710D01*
X115353816Y-114791710D01*
X115353816Y-115610526D01*
G36*
X115353816Y-115610526D02*
G01*
X115186711Y-115610526D01*
X115186711Y-115352601D01*
X115186526Y-115292605D01*
X115184626Y-115193237D01*
X115179816Y-115119673D01*
X115171052Y-115066827D01*
X115157290Y-115029614D01*
X115137487Y-115002949D01*
X115110600Y-114981746D01*
X115081248Y-114965947D01*
X115046491Y-114961467D01*
X114997058Y-114971429D01*
X114981173Y-114975576D01*
X114941520Y-114981818D01*
X114913167Y-114972875D01*
X114880306Y-114945195D01*
X114874070Y-114939175D01*
X114839594Y-114901937D01*
X114817361Y-114871660D01*
X114814311Y-114864366D01*
X114820354Y-114837432D01*
X114850998Y-114815898D01*
X114899363Y-114800786D01*
X114958566Y-114793114D01*
X115021728Y-114793904D01*
X115081967Y-114804175D01*
X115132402Y-114824948D01*
X115148388Y-114834648D01*
X115175302Y-114848845D01*
X115185264Y-114845594D01*
X115186711Y-114824886D01*
X115187050Y-114817451D01*
X115195112Y-114800982D01*
X115220119Y-114793486D01*
X115270264Y-114791710D01*
X115353816Y-114791710D01*
X115353816Y-115610526D01*
G37*
X112279079Y-113798533D02*
X112280489Y-113915550D01*
X112286007Y-114010058D01*
X112297185Y-114078751D01*
X112315572Y-114125478D01*
X112342717Y-114154089D01*
X112380168Y-114168432D01*
X112429474Y-114172358D01*
X112476552Y-114168854D01*
X112514574Y-114155139D01*
X112542210Y-114127355D01*
X112561009Y-114081651D01*
X112572519Y-114014179D01*
X112578290Y-113921089D01*
X112579869Y-113798533D01*
X112579869Y-113538421D01*
X112746974Y-113538421D01*
X112746974Y-113852004D01*
X112746688Y-113935705D01*
X112744459Y-114043943D01*
X112738869Y-114126489D01*
X112728561Y-114188068D01*
X112712183Y-114233405D01*
X112688379Y-114267226D01*
X112655796Y-114294257D01*
X112613079Y-114319221D01*
X112523377Y-114350825D01*
X112429761Y-114352887D01*
X112341496Y-114323783D01*
X112302986Y-114304917D01*
X112283880Y-114302097D01*
X112279079Y-114315428D01*
X112271109Y-114330396D01*
X112242578Y-114338281D01*
X112187172Y-114340526D01*
X112095264Y-114340526D01*
X112095264Y-113538421D01*
X112279079Y-113538421D01*
X112279079Y-113798533D01*
G36*
X112279079Y-113798533D02*
G01*
X112280489Y-113915550D01*
X112286007Y-114010058D01*
X112297185Y-114078751D01*
X112315572Y-114125478D01*
X112342717Y-114154089D01*
X112380168Y-114168432D01*
X112429474Y-114172358D01*
X112476552Y-114168854D01*
X112514574Y-114155139D01*
X112542210Y-114127355D01*
X112561009Y-114081651D01*
X112572519Y-114014179D01*
X112578290Y-113921089D01*
X112579869Y-113798533D01*
X112579869Y-113538421D01*
X112746974Y-113538421D01*
X112746974Y-113852004D01*
X112746688Y-113935705D01*
X112744459Y-114043943D01*
X112738869Y-114126489D01*
X112728561Y-114188068D01*
X112712183Y-114233405D01*
X112688379Y-114267226D01*
X112655796Y-114294257D01*
X112613079Y-114319221D01*
X112523377Y-114350825D01*
X112429761Y-114352887D01*
X112341496Y-114323783D01*
X112302986Y-114304917D01*
X112283880Y-114302097D01*
X112279079Y-114315428D01*
X112271109Y-114330396D01*
X112242578Y-114338281D01*
X112187172Y-114340526D01*
X112095264Y-114340526D01*
X112095264Y-113538421D01*
X112279079Y-113538421D01*
X112279079Y-113798533D01*
G37*
X115072937Y-113536840D02*
X115149112Y-113560773D01*
X115182699Y-113577040D01*
X115199592Y-113578720D01*
X115203422Y-113563916D01*
X115203425Y-113563468D01*
X115211680Y-113548351D01*
X115240149Y-113540603D01*
X115295329Y-113538421D01*
X115387237Y-113538421D01*
X115387237Y-114340526D01*
X115203422Y-114340526D01*
X115203422Y-114064043D01*
X115203296Y-113970680D01*
X115202436Y-113893988D01*
X115200137Y-113840322D01*
X115195690Y-113804212D01*
X115188390Y-113780191D01*
X115177530Y-113762791D01*
X115162405Y-113746543D01*
X115141801Y-113729261D01*
X115082555Y-113706042D01*
X115020366Y-113712857D01*
X114963398Y-113749581D01*
X114947115Y-113766673D01*
X114935426Y-113783971D01*
X114927586Y-113806990D01*
X114922827Y-113841271D01*
X114920379Y-113892353D01*
X114919473Y-113965777D01*
X114919343Y-114067081D01*
X114919343Y-114340526D01*
X114735527Y-114340526D01*
X114735894Y-114043914D01*
X114735919Y-114030702D01*
X114737513Y-113904535D01*
X114742408Y-113806528D01*
X114751864Y-113731915D01*
X114767139Y-113675931D01*
X114789490Y-113633809D01*
X114820175Y-113600784D01*
X114860454Y-113572090D01*
X114902043Y-113552226D01*
X114985800Y-113534178D01*
X115072937Y-113536840D01*
G36*
X115072937Y-113536840D02*
G01*
X115149112Y-113560773D01*
X115182699Y-113577040D01*
X115199592Y-113578720D01*
X115203422Y-113563916D01*
X115203425Y-113563468D01*
X115211680Y-113548351D01*
X115240149Y-113540603D01*
X115295329Y-113538421D01*
X115387237Y-113538421D01*
X115387237Y-114340526D01*
X115203422Y-114340526D01*
X115203422Y-114064043D01*
X115203296Y-113970680D01*
X115202436Y-113893988D01*
X115200137Y-113840322D01*
X115195690Y-113804212D01*
X115188390Y-113780191D01*
X115177530Y-113762791D01*
X115162405Y-113746543D01*
X115141801Y-113729261D01*
X115082555Y-113706042D01*
X115020366Y-113712857D01*
X114963398Y-113749581D01*
X114947115Y-113766673D01*
X114935426Y-113783971D01*
X114927586Y-113806990D01*
X114922827Y-113841271D01*
X114920379Y-113892353D01*
X114919473Y-113965777D01*
X114919343Y-114067081D01*
X114919343Y-114340526D01*
X114735527Y-114340526D01*
X114735894Y-114043914D01*
X114735919Y-114030702D01*
X114737513Y-113904535D01*
X114742408Y-113806528D01*
X114751864Y-113731915D01*
X114767139Y-113675931D01*
X114789490Y-113633809D01*
X114820175Y-113600784D01*
X114860454Y-113572090D01*
X114902043Y-113552226D01*
X114985800Y-113534178D01*
X115072937Y-113536840D01*
G37*
X111153610Y-113542247D02*
X111244791Y-113577771D01*
X111321907Y-113636413D01*
X111378864Y-113716956D01*
X111382710Y-113725169D01*
X111407130Y-113805267D01*
X111419330Y-113900948D01*
X111419234Y-114000569D01*
X111406764Y-114092488D01*
X111381843Y-114165066D01*
X111351073Y-114215650D01*
X111283344Y-114287310D01*
X111198657Y-114332862D01*
X111126202Y-114351282D01*
X111015875Y-114353293D01*
X110910302Y-114325513D01*
X110816682Y-114269142D01*
X110756088Y-114219196D01*
X110810664Y-114162887D01*
X110845144Y-114129530D01*
X110876332Y-114110958D01*
X110905250Y-114115047D01*
X110942237Y-114140000D01*
X110956985Y-114149768D01*
X111019291Y-114169762D01*
X111090903Y-114169749D01*
X111157950Y-114149143D01*
X111183196Y-114132595D01*
X111220228Y-114083730D01*
X111238792Y-114011958D01*
X111239987Y-113914136D01*
X111239983Y-113914081D01*
X111226171Y-113826562D01*
X111195744Y-113765881D01*
X111145676Y-113728345D01*
X111072941Y-113710261D01*
X111027137Y-113707829D01*
X110987116Y-113717789D01*
X110946070Y-113746642D01*
X110892954Y-113791336D01*
X110825688Y-113737279D01*
X110801113Y-113716570D01*
X110770416Y-113686899D01*
X110758422Y-113669413D01*
X110762669Y-113661533D01*
X110787135Y-113637340D01*
X110826110Y-113606571D01*
X110856605Y-113586549D01*
X110953424Y-113545419D01*
X111054457Y-113531057D01*
X111153610Y-113542247D01*
G36*
X111153610Y-113542247D02*
G01*
X111244791Y-113577771D01*
X111321907Y-113636413D01*
X111378864Y-113716956D01*
X111382710Y-113725169D01*
X111407130Y-113805267D01*
X111419330Y-113900948D01*
X111419234Y-114000569D01*
X111406764Y-114092488D01*
X111381843Y-114165066D01*
X111351073Y-114215650D01*
X111283344Y-114287310D01*
X111198657Y-114332862D01*
X111126202Y-114351282D01*
X111015875Y-114353293D01*
X110910302Y-114325513D01*
X110816682Y-114269142D01*
X110756088Y-114219196D01*
X110810664Y-114162887D01*
X110845144Y-114129530D01*
X110876332Y-114110958D01*
X110905250Y-114115047D01*
X110942237Y-114140000D01*
X110956985Y-114149768D01*
X111019291Y-114169762D01*
X111090903Y-114169749D01*
X111157950Y-114149143D01*
X111183196Y-114132595D01*
X111220228Y-114083730D01*
X111238792Y-114011958D01*
X111239987Y-113914136D01*
X111239983Y-113914081D01*
X111226171Y-113826562D01*
X111195744Y-113765881D01*
X111145676Y-113728345D01*
X111072941Y-113710261D01*
X111027137Y-113707829D01*
X110987116Y-113717789D01*
X110946070Y-113746642D01*
X110892954Y-113791336D01*
X110825688Y-113737279D01*
X110801113Y-113716570D01*
X110770416Y-113686899D01*
X110758422Y-113669413D01*
X110762669Y-113661533D01*
X110787135Y-113637340D01*
X110826110Y-113606571D01*
X110856605Y-113586549D01*
X110953424Y-113545419D01*
X111054457Y-113531057D01*
X111153610Y-113542247D01*
G37*
X113544982Y-113997116D02*
X113540320Y-114050001D01*
X113519714Y-114150965D01*
X113482857Y-114228007D01*
X113426761Y-114286201D01*
X113348434Y-114330617D01*
X113318023Y-114341188D01*
X113239263Y-114354377D01*
X113156384Y-114354018D01*
X113086450Y-114339531D01*
X113085076Y-114339005D01*
X113028718Y-114305852D01*
X112971780Y-114254530D01*
X112924535Y-114195840D01*
X112897255Y-114140584D01*
X112889169Y-114100193D01*
X112882246Y-114024569D01*
X112881085Y-113957161D01*
X113049442Y-113957161D01*
X113059507Y-114038014D01*
X113083151Y-114104451D01*
X113118973Y-114147862D01*
X113132551Y-114155316D01*
X113184327Y-114168864D01*
X113244213Y-114171651D01*
X113294596Y-114162237D01*
X113314260Y-114148736D01*
X113341862Y-114101523D01*
X113359230Y-114027630D01*
X113365264Y-113930663D01*
X113365167Y-113902750D01*
X113363071Y-113846190D01*
X113356100Y-113809294D01*
X113341475Y-113782031D01*
X113316418Y-113754372D01*
X113268736Y-113720849D01*
X113206663Y-113707143D01*
X113146689Y-113720197D01*
X113096891Y-113757951D01*
X113065345Y-113818349D01*
X113054358Y-113870502D01*
X113049442Y-113957161D01*
X112881085Y-113957161D01*
X112880763Y-113938442D01*
X112884478Y-113852719D01*
X112893145Y-113778305D01*
X112906522Y-113726106D01*
X112937679Y-113667006D01*
X113003808Y-113594340D01*
X113088331Y-113548310D01*
X113188734Y-113530090D01*
X113302505Y-113540858D01*
X113321435Y-113545445D01*
X113409595Y-113585000D01*
X113476028Y-113649941D01*
X113520735Y-113740271D01*
X113543718Y-113855994D01*
X113544387Y-113930663D01*
X113544982Y-113997116D01*
G36*
X113544982Y-113997116D02*
G01*
X113540320Y-114050001D01*
X113519714Y-114150965D01*
X113482857Y-114228007D01*
X113426761Y-114286201D01*
X113348434Y-114330617D01*
X113318023Y-114341188D01*
X113239263Y-114354377D01*
X113156384Y-114354018D01*
X113086450Y-114339531D01*
X113085076Y-114339005D01*
X113028718Y-114305852D01*
X112971780Y-114254530D01*
X112924535Y-114195840D01*
X112897255Y-114140584D01*
X112889169Y-114100193D01*
X112882246Y-114024569D01*
X112881085Y-113957161D01*
X113049442Y-113957161D01*
X113059507Y-114038014D01*
X113083151Y-114104451D01*
X113118973Y-114147862D01*
X113132551Y-114155316D01*
X113184327Y-114168864D01*
X113244213Y-114171651D01*
X113294596Y-114162237D01*
X113314260Y-114148736D01*
X113341862Y-114101523D01*
X113359230Y-114027630D01*
X113365264Y-113930663D01*
X113365167Y-113902750D01*
X113363071Y-113846190D01*
X113356100Y-113809294D01*
X113341475Y-113782031D01*
X113316418Y-113754372D01*
X113268736Y-113720849D01*
X113206663Y-113707143D01*
X113146689Y-113720197D01*
X113096891Y-113757951D01*
X113065345Y-113818349D01*
X113054358Y-113870502D01*
X113049442Y-113957161D01*
X112881085Y-113957161D01*
X112880763Y-113938442D01*
X112884478Y-113852719D01*
X112893145Y-113778305D01*
X112906522Y-113726106D01*
X112937679Y-113667006D01*
X113003808Y-113594340D01*
X113088331Y-113548310D01*
X113188734Y-113530090D01*
X113302505Y-113540858D01*
X113321435Y-113545445D01*
X113409595Y-113585000D01*
X113476028Y-113649941D01*
X113520735Y-113740271D01*
X113543718Y-113855994D01*
X113544387Y-113930663D01*
X113544982Y-113997116D01*
G37*
X113678063Y-115054107D02*
X113700655Y-115121510D01*
X113727379Y-115196127D01*
X113749696Y-115252654D01*
X113765759Y-115286486D01*
X113773724Y-115293016D01*
X113775646Y-115287337D01*
X113786049Y-115252507D01*
X113802619Y-115194335D01*
X113823516Y-115119333D01*
X113846900Y-115034013D01*
X113910518Y-114800066D01*
X114007655Y-114794990D01*
X114015854Y-114794584D01*
X114068235Y-114794046D01*
X114093406Y-114799423D01*
X114096612Y-114811701D01*
X114092562Y-114823692D01*
X114079241Y-114864734D01*
X114058384Y-114929736D01*
X114031479Y-115014048D01*
X114000012Y-115113022D01*
X113965469Y-115222006D01*
X113842505Y-115610526D01*
X113688689Y-115610526D01*
X113616213Y-115364046D01*
X113602830Y-115318785D01*
X113578096Y-115236502D01*
X113556962Y-115167940D01*
X113541329Y-115119225D01*
X113533102Y-115096483D01*
X113530758Y-115094787D01*
X113519351Y-115109456D01*
X113503065Y-115148248D01*
X113484606Y-115205102D01*
X113483631Y-115208441D01*
X113458917Y-115292347D01*
X113430641Y-115387351D01*
X113404730Y-115473528D01*
X113362714Y-115612253D01*
X113207750Y-115602171D01*
X113135987Y-115376579D01*
X113104480Y-115277454D01*
X113069187Y-115166281D01*
X113035393Y-115059704D01*
X113007418Y-114971349D01*
X112950613Y-114791710D01*
X113140656Y-114791710D01*
X113186720Y-114962993D01*
X113198965Y-115008251D01*
X113222125Y-115092625D01*
X113243572Y-115169384D01*
X113259876Y-115226184D01*
X113286969Y-115318092D01*
X113373374Y-115059079D01*
X113459780Y-114800066D01*
X113525870Y-114795104D01*
X113591959Y-114790143D01*
X113678063Y-115054107D01*
G36*
X113678063Y-115054107D02*
G01*
X113700655Y-115121510D01*
X113727379Y-115196127D01*
X113749696Y-115252654D01*
X113765759Y-115286486D01*
X113773724Y-115293016D01*
X113775646Y-115287337D01*
X113786049Y-115252507D01*
X113802619Y-115194335D01*
X113823516Y-115119333D01*
X113846900Y-115034013D01*
X113910518Y-114800066D01*
X114007655Y-114794990D01*
X114015854Y-114794584D01*
X114068235Y-114794046D01*
X114093406Y-114799423D01*
X114096612Y-114811701D01*
X114092562Y-114823692D01*
X114079241Y-114864734D01*
X114058384Y-114929736D01*
X114031479Y-115014048D01*
X114000012Y-115113022D01*
X113965469Y-115222006D01*
X113842505Y-115610526D01*
X113688689Y-115610526D01*
X113616213Y-115364046D01*
X113602830Y-115318785D01*
X113578096Y-115236502D01*
X113556962Y-115167940D01*
X113541329Y-115119225D01*
X113533102Y-115096483D01*
X113530758Y-115094787D01*
X113519351Y-115109456D01*
X113503065Y-115148248D01*
X113484606Y-115205102D01*
X113483631Y-115208441D01*
X113458917Y-115292347D01*
X113430641Y-115387351D01*
X113404730Y-115473528D01*
X113362714Y-115612253D01*
X113207750Y-115602171D01*
X113135987Y-115376579D01*
X113104480Y-115277454D01*
X113069187Y-115166281D01*
X113035393Y-115059704D01*
X113007418Y-114971349D01*
X112950613Y-114791710D01*
X113140656Y-114791710D01*
X113186720Y-114962993D01*
X113198965Y-115008251D01*
X113222125Y-115092625D01*
X113243572Y-115169384D01*
X113259876Y-115226184D01*
X113286969Y-115318092D01*
X113373374Y-115059079D01*
X113459780Y-114800066D01*
X113525870Y-114795104D01*
X113591959Y-114790143D01*
X113678063Y-115054107D01*
G37*
X114817986Y-115263659D02*
X114815868Y-115335101D01*
X114811608Y-115384866D01*
X114810878Y-115389427D01*
X114782206Y-115471004D01*
X114729846Y-115540165D01*
X114661158Y-115587021D01*
X114587396Y-115606416D01*
X114496668Y-115604911D01*
X114413205Y-115578906D01*
X114391465Y-115567932D01*
X114363510Y-115556174D01*
X114352872Y-115559832D01*
X114351185Y-115578906D01*
X114350410Y-115588418D01*
X114340407Y-115602485D01*
X114312623Y-115608962D01*
X114259277Y-115610526D01*
X114167369Y-115610526D01*
X114167369Y-115209328D01*
X114351185Y-115209328D01*
X114352502Y-115278832D01*
X114357848Y-115325106D01*
X114369262Y-115356807D01*
X114388783Y-115383373D01*
X114440329Y-115422873D01*
X114500650Y-115436115D01*
X114559144Y-115419740D01*
X114608410Y-115374060D01*
X114621432Y-115340634D01*
X114631051Y-115281441D01*
X114635280Y-115209626D01*
X114633948Y-115135967D01*
X114626884Y-115071239D01*
X114613917Y-115026222D01*
X114609774Y-115018840D01*
X114569840Y-114981738D01*
X114515722Y-114965301D01*
X114457600Y-114969124D01*
X114405653Y-114992802D01*
X114370063Y-115035929D01*
X114368592Y-115039556D01*
X114359767Y-115080026D01*
X114353542Y-115140499D01*
X114351185Y-115209328D01*
X114167369Y-115209328D01*
X114167369Y-114474210D01*
X114351185Y-114474210D01*
X114351185Y-114863732D01*
X114385232Y-114832920D01*
X114418014Y-114813769D01*
X114480059Y-114797760D01*
X114552589Y-114792602D01*
X114623419Y-114798935D01*
X114680368Y-114817400D01*
X114721128Y-114843666D01*
X114763113Y-114888412D01*
X114791370Y-114948588D01*
X114808355Y-115029988D01*
X114816528Y-115138405D01*
X114817729Y-115182230D01*
X114817816Y-115209626D01*
X114817986Y-115263659D01*
G36*
X114817986Y-115263659D02*
G01*
X114815868Y-115335101D01*
X114811608Y-115384866D01*
X114810878Y-115389427D01*
X114782206Y-115471004D01*
X114729846Y-115540165D01*
X114661158Y-115587021D01*
X114587396Y-115606416D01*
X114496668Y-115604911D01*
X114413205Y-115578906D01*
X114391465Y-115567932D01*
X114363510Y-115556174D01*
X114352872Y-115559832D01*
X114351185Y-115578906D01*
X114350410Y-115588418D01*
X114340407Y-115602485D01*
X114312623Y-115608962D01*
X114259277Y-115610526D01*
X114167369Y-115610526D01*
X114167369Y-115209328D01*
X114351185Y-115209328D01*
X114352502Y-115278832D01*
X114357848Y-115325106D01*
X114369262Y-115356807D01*
X114388783Y-115383373D01*
X114440329Y-115422873D01*
X114500650Y-115436115D01*
X114559144Y-115419740D01*
X114608410Y-115374060D01*
X114621432Y-115340634D01*
X114631051Y-115281441D01*
X114635280Y-115209626D01*
X114633948Y-115135967D01*
X114626884Y-115071239D01*
X114613917Y-115026222D01*
X114609774Y-115018840D01*
X114569840Y-114981738D01*
X114515722Y-114965301D01*
X114457600Y-114969124D01*
X114405653Y-114992802D01*
X114370063Y-115035929D01*
X114368592Y-115039556D01*
X114359767Y-115080026D01*
X114353542Y-115140499D01*
X114351185Y-115209328D01*
X114167369Y-115209328D01*
X114167369Y-114474210D01*
X114351185Y-114474210D01*
X114351185Y-114863732D01*
X114385232Y-114832920D01*
X114418014Y-114813769D01*
X114480059Y-114797760D01*
X114552589Y-114792602D01*
X114623419Y-114798935D01*
X114680368Y-114817400D01*
X114721128Y-114843666D01*
X114763113Y-114888412D01*
X114791370Y-114948588D01*
X114808355Y-115029988D01*
X114816528Y-115138405D01*
X114817729Y-115182230D01*
X114817816Y-115209626D01*
X114817986Y-115263659D01*
G37*
X117707431Y-113985368D02*
X117705273Y-114037701D01*
X117700376Y-114101519D01*
X117692033Y-114146752D01*
X117678256Y-114182593D01*
X117657057Y-114218236D01*
X117656154Y-114219587D01*
X117603953Y-114277335D01*
X117540083Y-114321380D01*
X117465813Y-114347517D01*
X117368110Y-114356003D01*
X117272350Y-114339316D01*
X117186755Y-114299106D01*
X117119545Y-114237022D01*
X117100250Y-114207688D01*
X117064216Y-114116496D01*
X117046344Y-114003984D01*
X117046650Y-113975524D01*
X117226249Y-113975524D01*
X117226588Y-114028750D01*
X117232231Y-114064284D01*
X117245089Y-114091589D01*
X117267072Y-114120124D01*
X117297579Y-114148440D01*
X117358592Y-114173710D01*
X117424106Y-114169016D01*
X117486719Y-114133896D01*
X117504381Y-114117122D01*
X117523239Y-114088407D01*
X117533696Y-114048046D01*
X117539624Y-113985154D01*
X117541257Y-113937910D01*
X117532311Y-113841428D01*
X117504860Y-113772352D01*
X117458781Y-113730301D01*
X117404766Y-113710165D01*
X117340349Y-113711860D01*
X117280637Y-113745855D01*
X117266361Y-113758797D01*
X117248347Y-113781440D01*
X117237659Y-113811064D01*
X117231729Y-113856482D01*
X117227988Y-113926506D01*
X117226249Y-113975524D01*
X117046650Y-113975524D01*
X117047723Y-113875624D01*
X117049482Y-113857418D01*
X117074024Y-113740812D01*
X117119430Y-113650290D01*
X117185795Y-113585754D01*
X117273216Y-113547104D01*
X117381791Y-113534243D01*
X117422811Y-113535450D01*
X117506934Y-113550220D01*
X117575722Y-113585474D01*
X117639854Y-113645828D01*
X117650110Y-113657942D01*
X117677774Y-113698737D01*
X117695955Y-113744930D01*
X117706036Y-113803468D01*
X117709401Y-113881299D01*
X117708329Y-113937910D01*
X117707431Y-113985368D01*
G36*
X117707431Y-113985368D02*
G01*
X117705273Y-114037701D01*
X117700376Y-114101519D01*
X117692033Y-114146752D01*
X117678256Y-114182593D01*
X117657057Y-114218236D01*
X117656154Y-114219587D01*
X117603953Y-114277335D01*
X117540083Y-114321380D01*
X117465813Y-114347517D01*
X117368110Y-114356003D01*
X117272350Y-114339316D01*
X117186755Y-114299106D01*
X117119545Y-114237022D01*
X117100250Y-114207688D01*
X117064216Y-114116496D01*
X117046344Y-114003984D01*
X117046650Y-113975524D01*
X117226249Y-113975524D01*
X117226588Y-114028750D01*
X117232231Y-114064284D01*
X117245089Y-114091589D01*
X117267072Y-114120124D01*
X117297579Y-114148440D01*
X117358592Y-114173710D01*
X117424106Y-114169016D01*
X117486719Y-114133896D01*
X117504381Y-114117122D01*
X117523239Y-114088407D01*
X117533696Y-114048046D01*
X117539624Y-113985154D01*
X117541257Y-113937910D01*
X117532311Y-113841428D01*
X117504860Y-113772352D01*
X117458781Y-113730301D01*
X117404766Y-113710165D01*
X117340349Y-113711860D01*
X117280637Y-113745855D01*
X117266361Y-113758797D01*
X117248347Y-113781440D01*
X117237659Y-113811064D01*
X117231729Y-113856482D01*
X117227988Y-113926506D01*
X117226249Y-113975524D01*
X117046650Y-113975524D01*
X117047723Y-113875624D01*
X117049482Y-113857418D01*
X117074024Y-113740812D01*
X117119430Y-113650290D01*
X117185795Y-113585754D01*
X117273216Y-113547104D01*
X117381791Y-113534243D01*
X117422811Y-113535450D01*
X117506934Y-113550220D01*
X117575722Y-113585474D01*
X117639854Y-113645828D01*
X117650110Y-113657942D01*
X117677774Y-113698737D01*
X117695955Y-113744930D01*
X117706036Y-113803468D01*
X117709401Y-113881299D01*
X117708329Y-113937910D01*
X117707431Y-113985368D01*
G37*
X110736367Y-113885627D02*
X110734216Y-114013529D01*
X110733936Y-114016044D01*
X110709909Y-114133405D01*
X110666499Y-114224652D01*
X110602353Y-114291791D01*
X110516119Y-114336824D01*
X110500289Y-114341974D01*
X110402173Y-114357151D01*
X110300698Y-114348688D01*
X110206359Y-114318445D01*
X110129649Y-114268285D01*
X110072190Y-114215197D01*
X110133266Y-114166904D01*
X110194341Y-114118611D01*
X110267947Y-114154371D01*
X110353115Y-114183347D01*
X110428301Y-114184215D01*
X110489816Y-114157592D01*
X110534083Y-114104155D01*
X110549952Y-114072136D01*
X110558811Y-114044771D01*
X110553685Y-114026285D01*
X110530687Y-114014938D01*
X110485931Y-114008987D01*
X110415529Y-114006693D01*
X110315593Y-114006316D01*
X110073290Y-114006316D01*
X110073290Y-113890430D01*
X110075100Y-113839555D01*
X110245706Y-113839555D01*
X110253900Y-113848912D01*
X110278160Y-113853783D01*
X110324272Y-113855630D01*
X110398019Y-113855921D01*
X110437566Y-113855457D01*
X110499971Y-113852388D01*
X110542303Y-113847013D01*
X110557895Y-113839997D01*
X110553906Y-113814108D01*
X110525788Y-113764570D01*
X110478932Y-113723875D01*
X110423074Y-113699295D01*
X110367951Y-113698105D01*
X110326458Y-113717815D01*
X110279440Y-113762668D01*
X110249545Y-113818322D01*
X110247794Y-113824245D01*
X110245706Y-113839555D01*
X110075100Y-113839555D01*
X110075471Y-113829138D01*
X110081876Y-113768496D01*
X110091025Y-113727502D01*
X110097695Y-113711852D01*
X110146243Y-113642149D01*
X110216391Y-113584013D01*
X110298426Y-113545949D01*
X110341216Y-113535554D01*
X110443170Y-113530822D01*
X110534015Y-113554893D01*
X110611253Y-113605088D01*
X110672389Y-113678727D01*
X110714926Y-113773133D01*
X110727671Y-113839997D01*
X110736367Y-113885627D01*
G36*
X110736367Y-113885627D02*
G01*
X110734216Y-114013529D01*
X110733936Y-114016044D01*
X110709909Y-114133405D01*
X110666499Y-114224652D01*
X110602353Y-114291791D01*
X110516119Y-114336824D01*
X110500289Y-114341974D01*
X110402173Y-114357151D01*
X110300698Y-114348688D01*
X110206359Y-114318445D01*
X110129649Y-114268285D01*
X110072190Y-114215197D01*
X110133266Y-114166904D01*
X110194341Y-114118611D01*
X110267947Y-114154371D01*
X110353115Y-114183347D01*
X110428301Y-114184215D01*
X110489816Y-114157592D01*
X110534083Y-114104155D01*
X110549952Y-114072136D01*
X110558811Y-114044771D01*
X110553685Y-114026285D01*
X110530687Y-114014938D01*
X110485931Y-114008987D01*
X110415529Y-114006693D01*
X110315593Y-114006316D01*
X110073290Y-114006316D01*
X110073290Y-113890430D01*
X110075100Y-113839555D01*
X110245706Y-113839555D01*
X110253900Y-113848912D01*
X110278160Y-113853783D01*
X110324272Y-113855630D01*
X110398019Y-113855921D01*
X110437566Y-113855457D01*
X110499971Y-113852388D01*
X110542303Y-113847013D01*
X110557895Y-113839997D01*
X110553906Y-113814108D01*
X110525788Y-113764570D01*
X110478932Y-113723875D01*
X110423074Y-113699295D01*
X110367951Y-113698105D01*
X110326458Y-113717815D01*
X110279440Y-113762668D01*
X110249545Y-113818322D01*
X110247794Y-113824245D01*
X110245706Y-113839555D01*
X110075100Y-113839555D01*
X110075471Y-113829138D01*
X110081876Y-113768496D01*
X110091025Y-113727502D01*
X110097695Y-113711852D01*
X110146243Y-113642149D01*
X110216391Y-113584013D01*
X110298426Y-113545949D01*
X110341216Y-113535554D01*
X110443170Y-113530822D01*
X110534015Y-113554893D01*
X110611253Y-113605088D01*
X110672389Y-113678727D01*
X110714926Y-113773133D01*
X110727671Y-113839997D01*
X110736367Y-113885627D01*
G37*
X114031399Y-113537879D02*
X114127909Y-113562068D01*
X114198411Y-113606902D01*
X114243307Y-113672681D01*
X114262999Y-113759707D01*
X114259012Y-113843023D01*
X114230235Y-113913297D01*
X114175048Y-113965254D01*
X114092348Y-113999910D01*
X113981026Y-114018279D01*
X113908692Y-114027906D01*
X113842670Y-114048737D01*
X113808583Y-114078904D01*
X113806526Y-114118352D01*
X113820243Y-114142949D01*
X113862726Y-114172101D01*
X113923117Y-114185889D01*
X113993889Y-114184004D01*
X114067512Y-114166133D01*
X114136457Y-114131967D01*
X114205197Y-114086477D01*
X114326119Y-114208835D01*
X114275987Y-114249755D01*
X114256494Y-114263973D01*
X114201650Y-114296275D01*
X114142303Y-114324109D01*
X114095335Y-114340083D01*
X114026562Y-114351654D01*
X113941777Y-114351807D01*
X113837806Y-114339067D01*
X113744145Y-114306777D01*
X113677849Y-114255486D01*
X113638760Y-114185065D01*
X113626722Y-114095387D01*
X113635436Y-114016497D01*
X113663408Y-113951907D01*
X113713768Y-113905651D01*
X113789703Y-113874888D01*
X113894400Y-113856778D01*
X113906425Y-113855467D01*
X113971611Y-113847106D01*
X114024490Y-113838357D01*
X114054573Y-113830913D01*
X114064612Y-113824920D01*
X114081584Y-113794013D01*
X114078828Y-113754450D01*
X114056146Y-113720105D01*
X114044236Y-113712615D01*
X113994606Y-113700613D01*
X113930500Y-113701420D01*
X113863653Y-113714192D01*
X113805799Y-113738086D01*
X113745008Y-113773954D01*
X113697854Y-113718852D01*
X113686412Y-113704853D01*
X113660634Y-113667353D01*
X113650022Y-113641937D01*
X113661166Y-113626353D01*
X113695644Y-113602026D01*
X113745428Y-113575848D01*
X113752443Y-113572648D01*
X113818092Y-113547548D01*
X113881372Y-113535547D01*
X113959900Y-113533137D01*
X114031399Y-113537879D01*
G36*
X114031399Y-113537879D02*
G01*
X114127909Y-113562068D01*
X114198411Y-113606902D01*
X114243307Y-113672681D01*
X114262999Y-113759707D01*
X114259012Y-113843023D01*
X114230235Y-113913297D01*
X114175048Y-113965254D01*
X114092348Y-113999910D01*
X113981026Y-114018279D01*
X113908692Y-114027906D01*
X113842670Y-114048737D01*
X113808583Y-114078904D01*
X113806526Y-114118352D01*
X113820243Y-114142949D01*
X113862726Y-114172101D01*
X113923117Y-114185889D01*
X113993889Y-114184004D01*
X114067512Y-114166133D01*
X114136457Y-114131967D01*
X114205197Y-114086477D01*
X114326119Y-114208835D01*
X114275987Y-114249755D01*
X114256494Y-114263973D01*
X114201650Y-114296275D01*
X114142303Y-114324109D01*
X114095335Y-114340083D01*
X114026562Y-114351654D01*
X113941777Y-114351807D01*
X113837806Y-114339067D01*
X113744145Y-114306777D01*
X113677849Y-114255486D01*
X113638760Y-114185065D01*
X113626722Y-114095387D01*
X113635436Y-114016497D01*
X113663408Y-113951907D01*
X113713768Y-113905651D01*
X113789703Y-113874888D01*
X113894400Y-113856778D01*
X113906425Y-113855467D01*
X113971611Y-113847106D01*
X114024490Y-113838357D01*
X114054573Y-113830913D01*
X114064612Y-113824920D01*
X114081584Y-113794013D01*
X114078828Y-113754450D01*
X114056146Y-113720105D01*
X114044236Y-113712615D01*
X113994606Y-113700613D01*
X113930500Y-113701420D01*
X113863653Y-113714192D01*
X113805799Y-113738086D01*
X113745008Y-113773954D01*
X113697854Y-113718852D01*
X113686412Y-113704853D01*
X113660634Y-113667353D01*
X113650022Y-113641937D01*
X113661166Y-113626353D01*
X113695644Y-113602026D01*
X113745428Y-113575848D01*
X113752443Y-113572648D01*
X113818092Y-113547548D01*
X113881372Y-113535547D01*
X113959900Y-113533137D01*
X114031399Y-113537879D01*
G37*
X111593418Y-115201118D02*
X111591245Y-115263498D01*
X111571455Y-115382794D01*
X111530734Y-115476598D01*
X111468724Y-115545581D01*
X111385066Y-115590412D01*
X111358037Y-115598332D01*
X111261524Y-115609395D01*
X111159615Y-115600059D01*
X111067566Y-115571246D01*
X111035138Y-115554892D01*
X110988643Y-115526878D01*
X110960465Y-115503827D01*
X110956305Y-115498560D01*
X110948522Y-115479299D01*
X110959736Y-115458361D01*
X110993886Y-115426650D01*
X111010367Y-115412845D01*
X111042832Y-115387583D01*
X111059855Y-115377258D01*
X111064732Y-115378321D01*
X111092681Y-115389819D01*
X111134408Y-115410000D01*
X111148013Y-115416638D01*
X111228271Y-115441289D01*
X111297997Y-115434935D01*
X111359140Y-115397467D01*
X111366255Y-115390544D01*
X111400268Y-115347178D01*
X111419702Y-115305559D01*
X111430466Y-115259605D01*
X110925527Y-115259605D01*
X110925620Y-115171875D01*
X110925673Y-115163150D01*
X110932490Y-115092763D01*
X111109343Y-115092763D01*
X111111431Y-115107361D01*
X111122152Y-115117422D01*
X111147707Y-115123006D01*
X111194289Y-115125408D01*
X111268093Y-115125921D01*
X111309124Y-115125389D01*
X111369688Y-115122280D01*
X111411345Y-115117012D01*
X111426843Y-115110298D01*
X111413626Y-115055033D01*
X111374930Y-115003452D01*
X111319121Y-114967666D01*
X111254651Y-114955288D01*
X111207185Y-114969242D01*
X111159738Y-115003353D01*
X111123669Y-115047796D01*
X111109343Y-115092763D01*
X110932490Y-115092763D01*
X110936127Y-115055216D01*
X110966555Y-114967413D01*
X111019649Y-114891723D01*
X111052038Y-114859705D01*
X111118932Y-114816845D01*
X111198807Y-114796078D01*
X111299700Y-114794618D01*
X111348435Y-114800343D01*
X111438396Y-114830071D01*
X111507271Y-114884178D01*
X111555664Y-114963498D01*
X111584179Y-115068866D01*
X111587074Y-115110298D01*
X111593418Y-115201118D01*
G36*
X111593418Y-115201118D02*
G01*
X111591245Y-115263498D01*
X111571455Y-115382794D01*
X111530734Y-115476598D01*
X111468724Y-115545581D01*
X111385066Y-115590412D01*
X111358037Y-115598332D01*
X111261524Y-115609395D01*
X111159615Y-115600059D01*
X111067566Y-115571246D01*
X111035138Y-115554892D01*
X110988643Y-115526878D01*
X110960465Y-115503827D01*
X110956305Y-115498560D01*
X110948522Y-115479299D01*
X110959736Y-115458361D01*
X110993886Y-115426650D01*
X111010367Y-115412845D01*
X111042832Y-115387583D01*
X111059855Y-115377258D01*
X111064732Y-115378321D01*
X111092681Y-115389819D01*
X111134408Y-115410000D01*
X111148013Y-115416638D01*
X111228271Y-115441289D01*
X111297997Y-115434935D01*
X111359140Y-115397467D01*
X111366255Y-115390544D01*
X111400268Y-115347178D01*
X111419702Y-115305559D01*
X111430466Y-115259605D01*
X110925527Y-115259605D01*
X110925620Y-115171875D01*
X110925673Y-115163150D01*
X110932490Y-115092763D01*
X111109343Y-115092763D01*
X111111431Y-115107361D01*
X111122152Y-115117422D01*
X111147707Y-115123006D01*
X111194289Y-115125408D01*
X111268093Y-115125921D01*
X111309124Y-115125389D01*
X111369688Y-115122280D01*
X111411345Y-115117012D01*
X111426843Y-115110298D01*
X111413626Y-115055033D01*
X111374930Y-115003452D01*
X111319121Y-114967666D01*
X111254651Y-114955288D01*
X111207185Y-114969242D01*
X111159738Y-115003353D01*
X111123669Y-115047796D01*
X111109343Y-115092763D01*
X110932490Y-115092763D01*
X110936127Y-115055216D01*
X110966555Y-114967413D01*
X111019649Y-114891723D01*
X111052038Y-114859705D01*
X111118932Y-114816845D01*
X111198807Y-114796078D01*
X111299700Y-114794618D01*
X111348435Y-114800343D01*
X111438396Y-114830071D01*
X111507271Y-114884178D01*
X111555664Y-114963498D01*
X111584179Y-115068866D01*
X111587074Y-115110298D01*
X111593418Y-115201118D01*
G37*
X116168543Y-113839091D02*
X116174389Y-113956138D01*
X116172928Y-114007216D01*
X116156454Y-114118843D01*
X116120151Y-114206856D01*
X116062120Y-114274884D01*
X115980461Y-114326551D01*
X115901246Y-114350670D01*
X115801871Y-114355285D01*
X115701607Y-114337537D01*
X115612172Y-114298327D01*
X115579030Y-114276515D01*
X115542515Y-114248556D01*
X115525853Y-114230158D01*
X115526798Y-114222567D01*
X115545448Y-114196703D01*
X115580498Y-114165367D01*
X115641241Y-114119036D01*
X115712418Y-114154584D01*
X115731665Y-114163383D01*
X115788323Y-114182506D01*
X115835811Y-114190131D01*
X115870828Y-114183848D01*
X115925778Y-114153591D01*
X115971967Y-114106620D01*
X115998387Y-114052270D01*
X116009150Y-114006316D01*
X115504211Y-114006316D01*
X115504304Y-113918585D01*
X115505069Y-113890781D01*
X115510649Y-113831119D01*
X115688027Y-113831119D01*
X115688352Y-113834537D01*
X115697540Y-113845181D01*
X115723504Y-113851720D01*
X115771779Y-113855014D01*
X115847903Y-113855921D01*
X115872923Y-113855910D01*
X115937902Y-113855310D01*
X115976964Y-113852715D01*
X115995903Y-113846662D01*
X116000511Y-113835686D01*
X115996581Y-113818322D01*
X115995981Y-113816353D01*
X115962127Y-113755930D01*
X115908757Y-113714329D01*
X115845115Y-113698842D01*
X115821591Y-113700080D01*
X115777928Y-113714896D01*
X115736041Y-113752579D01*
X115724758Y-113765903D01*
X115698513Y-113803956D01*
X115688027Y-113831119D01*
X115510649Y-113831119D01*
X115511366Y-113823449D01*
X115521926Y-113767734D01*
X115533501Y-113736543D01*
X115574195Y-113668700D01*
X115628695Y-113607086D01*
X115686330Y-113564866D01*
X115702982Y-113557027D01*
X115799945Y-113531021D01*
X115898960Y-113533762D01*
X115992052Y-113564092D01*
X116071244Y-113620848D01*
X116114078Y-113673190D01*
X116149101Y-113746928D01*
X116167825Y-113835686D01*
X116168543Y-113839091D01*
G36*
X116168543Y-113839091D02*
G01*
X116174389Y-113956138D01*
X116172928Y-114007216D01*
X116156454Y-114118843D01*
X116120151Y-114206856D01*
X116062120Y-114274884D01*
X115980461Y-114326551D01*
X115901246Y-114350670D01*
X115801871Y-114355285D01*
X115701607Y-114337537D01*
X115612172Y-114298327D01*
X115579030Y-114276515D01*
X115542515Y-114248556D01*
X115525853Y-114230158D01*
X115526798Y-114222567D01*
X115545448Y-114196703D01*
X115580498Y-114165367D01*
X115641241Y-114119036D01*
X115712418Y-114154584D01*
X115731665Y-114163383D01*
X115788323Y-114182506D01*
X115835811Y-114190131D01*
X115870828Y-114183848D01*
X115925778Y-114153591D01*
X115971967Y-114106620D01*
X115998387Y-114052270D01*
X116009150Y-114006316D01*
X115504211Y-114006316D01*
X115504304Y-113918585D01*
X115505069Y-113890781D01*
X115510649Y-113831119D01*
X115688027Y-113831119D01*
X115688352Y-113834537D01*
X115697540Y-113845181D01*
X115723504Y-113851720D01*
X115771779Y-113855014D01*
X115847903Y-113855921D01*
X115872923Y-113855910D01*
X115937902Y-113855310D01*
X115976964Y-113852715D01*
X115995903Y-113846662D01*
X116000511Y-113835686D01*
X115996581Y-113818322D01*
X115995981Y-113816353D01*
X115962127Y-113755930D01*
X115908757Y-113714329D01*
X115845115Y-113698842D01*
X115821591Y-113700080D01*
X115777928Y-113714896D01*
X115736041Y-113752579D01*
X115724758Y-113765903D01*
X115698513Y-113803956D01*
X115688027Y-113831119D01*
X115510649Y-113831119D01*
X115511366Y-113823449D01*
X115521926Y-113767734D01*
X115533501Y-113736543D01*
X115574195Y-113668700D01*
X115628695Y-113607086D01*
X115686330Y-113564866D01*
X115702982Y-113557027D01*
X115799945Y-113531021D01*
X115898960Y-113533762D01*
X115992052Y-113564092D01*
X116071244Y-113620848D01*
X116114078Y-113673190D01*
X116149101Y-113746928D01*
X116167825Y-113835686D01*
X116168543Y-113839091D01*
G37*
X112955668Y-115390600D02*
X112935509Y-115466464D01*
X112891698Y-115531365D01*
X112825241Y-115578051D01*
X112818719Y-115580889D01*
X112746005Y-115601330D01*
X112664071Y-115609299D01*
X112586172Y-115604427D01*
X112525560Y-115586348D01*
X112501348Y-115574554D01*
X112483580Y-115571741D01*
X112479606Y-115586451D01*
X112472078Y-115600055D01*
X112442953Y-115608156D01*
X112386420Y-115610526D01*
X112293235Y-115610526D01*
X112298690Y-115288849D01*
X112299273Y-115259605D01*
X112479606Y-115259605D01*
X112479606Y-115318092D01*
X112485900Y-115361806D01*
X112513027Y-115410000D01*
X112523040Y-115418858D01*
X112564081Y-115437494D01*
X112625823Y-115442290D01*
X112662871Y-115440417D01*
X112732195Y-115426309D01*
X112775163Y-115400024D01*
X112789655Y-115363344D01*
X112773551Y-115318052D01*
X112764154Y-115306200D01*
X112722187Y-115279613D01*
X112655766Y-115264432D01*
X112561070Y-115259605D01*
X112479606Y-115259605D01*
X112299273Y-115259605D01*
X112300172Y-115214462D01*
X112304076Y-115103099D01*
X112310657Y-115017946D01*
X112321214Y-114954360D01*
X112337048Y-114907699D01*
X112359459Y-114873321D01*
X112389747Y-114846583D01*
X112429213Y-114822844D01*
X112449573Y-114813780D01*
X112520008Y-114796673D01*
X112604959Y-114789600D01*
X112692788Y-114792432D01*
X112771857Y-114805041D01*
X112830527Y-114827297D01*
X112850935Y-114840219D01*
X112897921Y-114878519D01*
X112913824Y-114910589D01*
X112909962Y-114916786D01*
X112885894Y-114938432D01*
X112847039Y-114967308D01*
X112827174Y-114980824D01*
X112793346Y-114999974D01*
X112771363Y-115001803D01*
X112750953Y-114988585D01*
X112700086Y-114961816D01*
X112631640Y-114950808D01*
X112561694Y-114959236D01*
X112560370Y-114959618D01*
X112511036Y-114981052D01*
X112486616Y-115014603D01*
X112479862Y-115070091D01*
X112479606Y-115122879D01*
X112654010Y-115128577D01*
X112681796Y-115129515D01*
X112751848Y-115132775D01*
X112798809Y-115137897D01*
X112830552Y-115146798D01*
X112854948Y-115161397D01*
X112879869Y-115183612D01*
X112921015Y-115234995D01*
X112951171Y-115311026D01*
X112954128Y-115363344D01*
X112955668Y-115390600D01*
G36*
X112955668Y-115390600D02*
G01*
X112935509Y-115466464D01*
X112891698Y-115531365D01*
X112825241Y-115578051D01*
X112818719Y-115580889D01*
X112746005Y-115601330D01*
X112664071Y-115609299D01*
X112586172Y-115604427D01*
X112525560Y-115586348D01*
X112501348Y-115574554D01*
X112483580Y-115571741D01*
X112479606Y-115586451D01*
X112472078Y-115600055D01*
X112442953Y-115608156D01*
X112386420Y-115610526D01*
X112293235Y-115610526D01*
X112298690Y-115288849D01*
X112299273Y-115259605D01*
X112479606Y-115259605D01*
X112479606Y-115318092D01*
X112485900Y-115361806D01*
X112513027Y-115410000D01*
X112523040Y-115418858D01*
X112564081Y-115437494D01*
X112625823Y-115442290D01*
X112662871Y-115440417D01*
X112732195Y-115426309D01*
X112775163Y-115400024D01*
X112789655Y-115363344D01*
X112773551Y-115318052D01*
X112764154Y-115306200D01*
X112722187Y-115279613D01*
X112655766Y-115264432D01*
X112561070Y-115259605D01*
X112479606Y-115259605D01*
X112299273Y-115259605D01*
X112300172Y-115214462D01*
X112304076Y-115103099D01*
X112310657Y-115017946D01*
X112321214Y-114954360D01*
X112337048Y-114907699D01*
X112359459Y-114873321D01*
X112389747Y-114846583D01*
X112429213Y-114822844D01*
X112449573Y-114813780D01*
X112520008Y-114796673D01*
X112604959Y-114789600D01*
X112692788Y-114792432D01*
X112771857Y-114805041D01*
X112830527Y-114827297D01*
X112850935Y-114840219D01*
X112897921Y-114878519D01*
X112913824Y-114910589D01*
X112909962Y-114916786D01*
X112885894Y-114938432D01*
X112847039Y-114967308D01*
X112827174Y-114980824D01*
X112793346Y-114999974D01*
X112771363Y-115001803D01*
X112750953Y-114988585D01*
X112700086Y-114961816D01*
X112631640Y-114950808D01*
X112561694Y-114959236D01*
X112560370Y-114959618D01*
X112511036Y-114981052D01*
X112486616Y-115014603D01*
X112479862Y-115070091D01*
X112479606Y-115122879D01*
X112654010Y-115128577D01*
X112681796Y-115129515D01*
X112751848Y-115132775D01*
X112798809Y-115137897D01*
X112830552Y-115146798D01*
X112854948Y-115161397D01*
X112879869Y-115183612D01*
X112921015Y-115234995D01*
X112951171Y-115311026D01*
X112954128Y-115363344D01*
X112955668Y-115390600D01*
G37*
X116168912Y-115387796D02*
X116168722Y-115390000D01*
X116148360Y-115475846D01*
X116103067Y-115540412D01*
X116030593Y-115586937D01*
X115993140Y-115598256D01*
X115928990Y-115607078D01*
X115858840Y-115609185D01*
X115795548Y-115604330D01*
X115751976Y-115592268D01*
X115725512Y-115582606D01*
X115699601Y-115592268D01*
X115690123Y-115597866D01*
X115652294Y-115606943D01*
X115601132Y-115610526D01*
X115520922Y-115610526D01*
X115520922Y-115287142D01*
X115520928Y-115259605D01*
X115704737Y-115259605D01*
X115704737Y-115323857D01*
X115710915Y-115372753D01*
X115735297Y-115415765D01*
X115749249Y-115425074D01*
X115799051Y-115439583D01*
X115861225Y-115443205D01*
X115922196Y-115435845D01*
X115968388Y-115417408D01*
X115991399Y-115393030D01*
X116005527Y-115349713D01*
X115992998Y-115315376D01*
X115951582Y-115285520D01*
X115885005Y-115266366D01*
X115797182Y-115259605D01*
X115704737Y-115259605D01*
X115520928Y-115259605D01*
X115520928Y-115259176D01*
X115521232Y-115153767D01*
X115522376Y-115075401D01*
X115524877Y-115018871D01*
X115529256Y-114978970D01*
X115536032Y-114950492D01*
X115545725Y-114928230D01*
X115558853Y-114906978D01*
X115601084Y-114857180D01*
X115660930Y-114819160D01*
X115739543Y-114798184D01*
X115843136Y-114791736D01*
X115846503Y-114791743D01*
X115918513Y-114794995D01*
X115982966Y-114803103D01*
X116026952Y-114814470D01*
X116039010Y-114820166D01*
X116077391Y-114844289D01*
X116112124Y-114872960D01*
X116134977Y-114898760D01*
X116137716Y-114914273D01*
X116132370Y-114918465D01*
X116074127Y-114963218D01*
X116035181Y-114989613D01*
X116009431Y-115000262D01*
X115990772Y-114997780D01*
X115973101Y-114984782D01*
X115940490Y-114968556D01*
X115885533Y-114957737D01*
X115823420Y-114954931D01*
X115767217Y-114960642D01*
X115729984Y-114975376D01*
X115728025Y-114977169D01*
X115711294Y-115010850D01*
X115704737Y-115061125D01*
X115704737Y-115125921D01*
X115859310Y-115125983D01*
X115930314Y-115127107D01*
X115990082Y-115131996D01*
X116032837Y-115142055D01*
X116067380Y-115158665D01*
X116075419Y-115163767D01*
X116133576Y-115219847D01*
X116164510Y-115294004D01*
X116167125Y-115349713D01*
X116168912Y-115387796D01*
G36*
X116168912Y-115387796D02*
G01*
X116168722Y-115390000D01*
X116148360Y-115475846D01*
X116103067Y-115540412D01*
X116030593Y-115586937D01*
X115993140Y-115598256D01*
X115928990Y-115607078D01*
X115858840Y-115609185D01*
X115795548Y-115604330D01*
X115751976Y-115592268D01*
X115725512Y-115582606D01*
X115699601Y-115592268D01*
X115690123Y-115597866D01*
X115652294Y-115606943D01*
X115601132Y-115610526D01*
X115520922Y-115610526D01*
X115520922Y-115287142D01*
X115520928Y-115259605D01*
X115704737Y-115259605D01*
X115704737Y-115323857D01*
X115710915Y-115372753D01*
X115735297Y-115415765D01*
X115749249Y-115425074D01*
X115799051Y-115439583D01*
X115861225Y-115443205D01*
X115922196Y-115435845D01*
X115968388Y-115417408D01*
X115991399Y-115393030D01*
X116005527Y-115349713D01*
X115992998Y-115315376D01*
X115951582Y-115285520D01*
X115885005Y-115266366D01*
X115797182Y-115259605D01*
X115704737Y-115259605D01*
X115520928Y-115259605D01*
X115520928Y-115259176D01*
X115521232Y-115153767D01*
X115522376Y-115075401D01*
X115524877Y-115018871D01*
X115529256Y-114978970D01*
X115536032Y-114950492D01*
X115545725Y-114928230D01*
X115558853Y-114906978D01*
X115601084Y-114857180D01*
X115660930Y-114819160D01*
X115739543Y-114798184D01*
X115843136Y-114791736D01*
X115846503Y-114791743D01*
X115918513Y-114794995D01*
X115982966Y-114803103D01*
X116026952Y-114814470D01*
X116039010Y-114820166D01*
X116077391Y-114844289D01*
X116112124Y-114872960D01*
X116134977Y-114898760D01*
X116137716Y-114914273D01*
X116132370Y-114918465D01*
X116074127Y-114963218D01*
X116035181Y-114989613D01*
X116009431Y-115000262D01*
X115990772Y-114997780D01*
X115973101Y-114984782D01*
X115940490Y-114968556D01*
X115885533Y-114957737D01*
X115823420Y-114954931D01*
X115767217Y-114960642D01*
X115729984Y-114975376D01*
X115728025Y-114977169D01*
X115711294Y-115010850D01*
X115704737Y-115061125D01*
X115704737Y-115125921D01*
X115859310Y-115125983D01*
X115930314Y-115127107D01*
X115990082Y-115131996D01*
X116032837Y-115142055D01*
X116067380Y-115158665D01*
X116075419Y-115163767D01*
X116133576Y-115219847D01*
X116164510Y-115294004D01*
X116167125Y-115349713D01*
X116168912Y-115387796D01*
G37*
X116924606Y-115612273D02*
X116836875Y-115607222D01*
X116749145Y-115602171D01*
X116744974Y-115334802D01*
X116743740Y-115269788D01*
X116740237Y-115172111D01*
X116734224Y-115100434D01*
X116724597Y-115049940D01*
X116710249Y-115015810D01*
X116690075Y-114993227D01*
X116662970Y-114977372D01*
X116612112Y-114961180D01*
X116561534Y-114967472D01*
X116508125Y-115002077D01*
X116456711Y-115045339D01*
X116456711Y-115610526D01*
X116272895Y-115610526D01*
X116272895Y-115304010D01*
X116273072Y-115207935D01*
X116274049Y-115122562D01*
X116276399Y-115060071D01*
X116280691Y-115014794D01*
X116287495Y-114981068D01*
X116297378Y-114953227D01*
X116310910Y-114925605D01*
X116314119Y-114919741D01*
X116356792Y-114862627D01*
X116406735Y-114822714D01*
X116466948Y-114801756D01*
X116546680Y-114792427D01*
X116626527Y-114797480D01*
X116691488Y-114817205D01*
X116740790Y-114842700D01*
X116740790Y-114290931D01*
X116673237Y-114326142D01*
X116645019Y-114338934D01*
X116555950Y-114357023D01*
X116467434Y-114344521D01*
X116385381Y-114302952D01*
X116315704Y-114233843D01*
X116304789Y-114217600D01*
X116294298Y-114193790D01*
X116287455Y-114161418D01*
X116283504Y-114114271D01*
X116281688Y-114046135D01*
X116281362Y-113975142D01*
X116457891Y-113975142D01*
X116458040Y-114034431D01*
X116462573Y-114073969D01*
X116472760Y-114102189D01*
X116489872Y-114127519D01*
X116511610Y-114151069D01*
X116546372Y-114168892D01*
X116598750Y-114173421D01*
X116645020Y-114169480D01*
X116690817Y-114149759D01*
X116720312Y-114109809D01*
X116736104Y-114045600D01*
X116740790Y-113953101D01*
X116739578Y-113903894D01*
X116727481Y-113811006D01*
X116702523Y-113748196D01*
X116664844Y-113715906D01*
X116626789Y-113706822D01*
X116560513Y-113711081D01*
X116504516Y-113737452D01*
X116491114Y-113749545D01*
X116476913Y-113770467D01*
X116468133Y-113801611D01*
X116462919Y-113850710D01*
X116459416Y-113925498D01*
X116457891Y-113975142D01*
X116281362Y-113975142D01*
X116281250Y-113950797D01*
X116281400Y-113907296D01*
X116283962Y-113806111D01*
X116291097Y-113730522D01*
X116304606Y-113674817D01*
X116326294Y-113633283D01*
X116357960Y-113600206D01*
X116401408Y-113569874D01*
X116436640Y-113552468D01*
X116520173Y-113533271D01*
X116608222Y-113535887D01*
X116686481Y-113560772D01*
X116720067Y-113577039D01*
X116736960Y-113578720D01*
X116740790Y-113563916D01*
X116740794Y-113563468D01*
X116749048Y-113548351D01*
X116777517Y-113540603D01*
X116832698Y-113538421D01*
X116924606Y-113538421D01*
X116924606Y-113953101D01*
X116924606Y-115612273D01*
G36*
X116924606Y-115612273D02*
G01*
X116836875Y-115607222D01*
X116749145Y-115602171D01*
X116744974Y-115334802D01*
X116743740Y-115269788D01*
X116740237Y-115172111D01*
X116734224Y-115100434D01*
X116724597Y-115049940D01*
X116710249Y-115015810D01*
X116690075Y-114993227D01*
X116662970Y-114977372D01*
X116612112Y-114961180D01*
X116561534Y-114967472D01*
X116508125Y-115002077D01*
X116456711Y-115045339D01*
X116456711Y-115610526D01*
X116272895Y-115610526D01*
X116272895Y-115304010D01*
X116273072Y-115207935D01*
X116274049Y-115122562D01*
X116276399Y-115060071D01*
X116280691Y-115014794D01*
X116287495Y-114981068D01*
X116297378Y-114953227D01*
X116310910Y-114925605D01*
X116314119Y-114919741D01*
X116356792Y-114862627D01*
X116406735Y-114822714D01*
X116466948Y-114801756D01*
X116546680Y-114792427D01*
X116626527Y-114797480D01*
X116691488Y-114817205D01*
X116740790Y-114842700D01*
X116740790Y-114290931D01*
X116673237Y-114326142D01*
X116645019Y-114338934D01*
X116555950Y-114357023D01*
X116467434Y-114344521D01*
X116385381Y-114302952D01*
X116315704Y-114233843D01*
X116304789Y-114217600D01*
X116294298Y-114193790D01*
X116287455Y-114161418D01*
X116283504Y-114114271D01*
X116281688Y-114046135D01*
X116281362Y-113975142D01*
X116457891Y-113975142D01*
X116458040Y-114034431D01*
X116462573Y-114073969D01*
X116472760Y-114102189D01*
X116489872Y-114127519D01*
X116511610Y-114151069D01*
X116546372Y-114168892D01*
X116598750Y-114173421D01*
X116645020Y-114169480D01*
X116690817Y-114149759D01*
X116720312Y-114109809D01*
X116736104Y-114045600D01*
X116740790Y-113953101D01*
X116739578Y-113903894D01*
X116727481Y-113811006D01*
X116702523Y-113748196D01*
X116664844Y-113715906D01*
X116626789Y-113706822D01*
X116560513Y-113711081D01*
X116504516Y-113737452D01*
X116491114Y-113749545D01*
X116476913Y-113770467D01*
X116468133Y-113801611D01*
X116462919Y-113850710D01*
X116459416Y-113925498D01*
X116457891Y-113975142D01*
X116281362Y-113975142D01*
X116281250Y-113950797D01*
X116281400Y-113907296D01*
X116283962Y-113806111D01*
X116291097Y-113730522D01*
X116304606Y-113674817D01*
X116326294Y-113633283D01*
X116357960Y-113600206D01*
X116401408Y-113569874D01*
X116436640Y-113552468D01*
X116520173Y-113533271D01*
X116608222Y-113535887D01*
X116686481Y-113560772D01*
X116720067Y-113577039D01*
X116736960Y-113578720D01*
X116740790Y-113563916D01*
X116740794Y-113563468D01*
X116749048Y-113548351D01*
X116777517Y-113540603D01*
X116832698Y-113538421D01*
X116924606Y-113538421D01*
X116924606Y-113953101D01*
X116924606Y-115612273D01*
G37*
X114384254Y-107998576D02*
X114459803Y-108399322D01*
X114738567Y-108514238D01*
X115017332Y-108629154D01*
X115351756Y-108401748D01*
X115417946Y-108356917D01*
X115505693Y-108298071D01*
X115581663Y-108247810D01*
X115641911Y-108208715D01*
X115682491Y-108183365D01*
X115699457Y-108174342D01*
X115709877Y-108180759D01*
X115741025Y-108207647D01*
X115788161Y-108251774D01*
X115847293Y-108309087D01*
X115914426Y-108375535D01*
X115985566Y-108447065D01*
X116056719Y-108519626D01*
X116123892Y-108589167D01*
X116183090Y-108651635D01*
X116230319Y-108702978D01*
X116261586Y-108739145D01*
X116272895Y-108756083D01*
X116270264Y-108763361D01*
X116252048Y-108795824D01*
X116218782Y-108849249D01*
X116173164Y-108919449D01*
X116117890Y-109002236D01*
X116055658Y-109093421D01*
X116021506Y-109143152D01*
X115962757Y-109229731D01*
X115912388Y-109305291D01*
X115873086Y-109365733D01*
X115847535Y-109406961D01*
X115838422Y-109424876D01*
X115838571Y-109425869D01*
X115846611Y-109448580D01*
X115865054Y-109494955D01*
X115891331Y-109558937D01*
X115922871Y-109634468D01*
X115957102Y-109715489D01*
X115991454Y-109795943D01*
X116023355Y-109869772D01*
X116050235Y-109930918D01*
X116069522Y-109973322D01*
X116078646Y-109990926D01*
X116084045Y-109992488D01*
X116116846Y-109999531D01*
X116175306Y-110011199D01*
X116254746Y-110026580D01*
X116350486Y-110044760D01*
X116457846Y-110064830D01*
X116514431Y-110075471D01*
X116618289Y-110095773D01*
X116709097Y-110114522D01*
X116781891Y-110130642D01*
X116831708Y-110143056D01*
X116853586Y-110150686D01*
X116857516Y-110158250D01*
X116864034Y-110195209D01*
X116869156Y-110256765D01*
X116872884Y-110337127D01*
X116875223Y-110430503D01*
X116876177Y-110531101D01*
X116875749Y-110633128D01*
X116873945Y-110730793D01*
X116870766Y-110818304D01*
X116866219Y-110889869D01*
X116860306Y-110939696D01*
X116853031Y-110961993D01*
X116848617Y-110964508D01*
X116815694Y-110975296D01*
X116758582Y-110989569D01*
X116683882Y-111005764D01*
X116598196Y-111022319D01*
X116569285Y-111027592D01*
X116435755Y-111052113D01*
X116330813Y-111071821D01*
X116250820Y-111087531D01*
X116192139Y-111100062D01*
X116151132Y-111110229D01*
X116124161Y-111118851D01*
X116107588Y-111126745D01*
X116097775Y-111134727D01*
X116096635Y-111136067D01*
X116080588Y-111163997D01*
X116056843Y-111215104D01*
X116027701Y-111283392D01*
X115995463Y-111362866D01*
X115962430Y-111447529D01*
X115930904Y-111531387D01*
X115903186Y-111608444D01*
X115881577Y-111672704D01*
X115868379Y-111718172D01*
X115865893Y-111738852D01*
X115867555Y-111741535D01*
X115884765Y-111767484D01*
X115917130Y-111815345D01*
X115961650Y-111880710D01*
X116015323Y-111959170D01*
X116075149Y-112046315D01*
X116091567Y-112070292D01*
X116149303Y-112156295D01*
X116199200Y-112233211D01*
X116238409Y-112296477D01*
X116264083Y-112341532D01*
X116273374Y-112363815D01*
X116271372Y-112369673D01*
X116250503Y-112398541D01*
X116209331Y-112445680D01*
X116150803Y-112507920D01*
X116077867Y-112582087D01*
X115993473Y-112665008D01*
X115945234Y-112711421D01*
X115868962Y-112783708D01*
X115802205Y-112845624D01*
X115748546Y-112893911D01*
X115711570Y-112925307D01*
X115694863Y-112936554D01*
X115683385Y-112932384D01*
X115648045Y-112912663D01*
X115596723Y-112880410D01*
X115536113Y-112839711D01*
X115493020Y-112810011D01*
X115406987Y-112751030D01*
X115315179Y-112688390D01*
X115231323Y-112631469D01*
X115067053Y-112520359D01*
X114929160Y-112594916D01*
X114896690Y-112612125D01*
X114837642Y-112641560D01*
X114791979Y-112661883D01*
X114767574Y-112669460D01*
X114759588Y-112659730D01*
X114739756Y-112622679D01*
X114710462Y-112561593D01*
X114673338Y-112480349D01*
X114630013Y-112382823D01*
X114582118Y-112272891D01*
X114531281Y-112154432D01*
X114479133Y-112031321D01*
X114427304Y-111907435D01*
X114377424Y-111786650D01*
X114331123Y-111672844D01*
X114290031Y-111569893D01*
X114255778Y-111481673D01*
X114229993Y-111412062D01*
X114214308Y-111364936D01*
X114210351Y-111344172D01*
X114210619Y-111343565D01*
X114229050Y-111324370D01*
X114267602Y-111294306D01*
X114318316Y-111259609D01*
X114334324Y-111249014D01*
X114456125Y-111148498D01*
X114556929Y-111028777D01*
X114634351Y-110894834D01*
X114686004Y-110751653D01*
X114709500Y-110604216D01*
X114702454Y-110457507D01*
X114673910Y-110327020D01*
X114622659Y-110195257D01*
X114547945Y-110077706D01*
X114445414Y-109966042D01*
X114405127Y-109930369D01*
X114274889Y-109842480D01*
X114134197Y-109783288D01*
X113987127Y-109752265D01*
X113837758Y-109748879D01*
X113690167Y-109772602D01*
X113548429Y-109822904D01*
X113416623Y-109899255D01*
X113298826Y-110001125D01*
X113199114Y-110127984D01*
X113179943Y-110159400D01*
X113114783Y-110302992D01*
X113080177Y-110452517D01*
X113075218Y-110604105D01*
X113099001Y-110753882D01*
X113150619Y-110897976D01*
X113229166Y-111032515D01*
X113333736Y-111153625D01*
X113463422Y-111257434D01*
X113467634Y-111260232D01*
X113517810Y-111295590D01*
X113555417Y-111325653D01*
X113572594Y-111344172D01*
X113570426Y-111358690D01*
X113556951Y-111400965D01*
X113533058Y-111466486D01*
X113500375Y-111551377D01*
X113460533Y-111651759D01*
X113415160Y-111763757D01*
X113365887Y-111883491D01*
X113314341Y-112007084D01*
X113262154Y-112130659D01*
X113210953Y-112250339D01*
X113162368Y-112362245D01*
X113118030Y-112462500D01*
X113079566Y-112547227D01*
X113048606Y-112612547D01*
X113026779Y-112654584D01*
X113015716Y-112669460D01*
X113006516Y-112667446D01*
X112970371Y-112652966D01*
X112916951Y-112627578D01*
X112854131Y-112594916D01*
X112716238Y-112520359D01*
X112551968Y-112631469D01*
X112503436Y-112664370D01*
X112413166Y-112725845D01*
X112323171Y-112787418D01*
X112247177Y-112839711D01*
X112205237Y-112868209D01*
X112150726Y-112903616D01*
X112110309Y-112927855D01*
X112090568Y-112936842D01*
X112082087Y-112933026D01*
X112051429Y-112909656D01*
X112004168Y-112868510D01*
X111944416Y-112813635D01*
X111876288Y-112749077D01*
X111803896Y-112678885D01*
X111731356Y-112607106D01*
X111662780Y-112537786D01*
X111602282Y-112474973D01*
X111553976Y-112422714D01*
X111521976Y-112385057D01*
X111510395Y-112366048D01*
X111511063Y-112362431D01*
X111524847Y-112332993D01*
X111554292Y-112282062D01*
X111596553Y-112214238D01*
X111648785Y-112134123D01*
X111708142Y-112046315D01*
X111724789Y-112022096D01*
X111783244Y-111936868D01*
X111834733Y-111861521D01*
X111876256Y-111800463D01*
X111904811Y-111758104D01*
X111917398Y-111738852D01*
X111917707Y-111738027D01*
X111913993Y-111714473D01*
X111899807Y-111666759D01*
X111877451Y-111600879D01*
X111849227Y-111522830D01*
X111817435Y-111438607D01*
X111784378Y-111354205D01*
X111752356Y-111275621D01*
X111723671Y-111208850D01*
X111700623Y-111159886D01*
X111685515Y-111134727D01*
X111684002Y-111133165D01*
X111673185Y-111125263D01*
X111654915Y-111117294D01*
X111625556Y-111108441D01*
X111581470Y-111097887D01*
X111519018Y-111084815D01*
X111434564Y-111068408D01*
X111324469Y-111047848D01*
X111185095Y-111022319D01*
X111156187Y-111016946D01*
X111073377Y-111000337D01*
X111003718Y-110984600D01*
X110953812Y-110971298D01*
X110930259Y-110961993D01*
X110926319Y-110954230D01*
X110919750Y-110916942D01*
X110914544Y-110855125D01*
X110910706Y-110774572D01*
X110908239Y-110681075D01*
X110907147Y-110580426D01*
X110907435Y-110478417D01*
X110909107Y-110380839D01*
X110912165Y-110293485D01*
X110916615Y-110222147D01*
X110922460Y-110172617D01*
X110929704Y-110150686D01*
X110937101Y-110147446D01*
X110973896Y-110137233D01*
X111036091Y-110122789D01*
X111118723Y-110105189D01*
X111216828Y-110085510D01*
X111325444Y-110064830D01*
X111384750Y-110053781D01*
X111486398Y-110034621D01*
X111573890Y-110017844D01*
X111642549Y-110004361D01*
X111687693Y-109995084D01*
X111704644Y-109990926D01*
X111705281Y-109990069D01*
X111716077Y-109968293D01*
X111736657Y-109922671D01*
X111764449Y-109859258D01*
X111796882Y-109784107D01*
X111831382Y-109703270D01*
X111865378Y-109622799D01*
X111896297Y-109548749D01*
X111921566Y-109487172D01*
X111938615Y-109444121D01*
X111944869Y-109425650D01*
X111942110Y-109419150D01*
X111923750Y-109388222D01*
X111890446Y-109336163D01*
X111844874Y-109267059D01*
X111789711Y-109184993D01*
X111727632Y-109094052D01*
X111693573Y-109044248D01*
X111634797Y-108956931D01*
X111584403Y-108880298D01*
X111545080Y-108818531D01*
X111519514Y-108775806D01*
X111510395Y-108756305D01*
X111516732Y-108745727D01*
X111543237Y-108714119D01*
X111586720Y-108666283D01*
X111643189Y-108606273D01*
X111708653Y-108538142D01*
X111779121Y-108465945D01*
X111850601Y-108393733D01*
X111919100Y-108325562D01*
X111980629Y-108265483D01*
X112031194Y-108217551D01*
X112066805Y-108185820D01*
X112083470Y-108174342D01*
X112092720Y-108178805D01*
X112126689Y-108199502D01*
X112181505Y-108234727D01*
X112253218Y-108281896D01*
X112337878Y-108338431D01*
X112431535Y-108401748D01*
X112765959Y-108629154D01*
X113323487Y-108399322D01*
X113399036Y-107998576D01*
X113474585Y-107597829D01*
X114308706Y-107597829D01*
X114384254Y-107998576D01*
G36*
X114384254Y-107998576D02*
G01*
X114459803Y-108399322D01*
X114738567Y-108514238D01*
X115017332Y-108629154D01*
X115351756Y-108401748D01*
X115417946Y-108356917D01*
X115505693Y-108298071D01*
X115581663Y-108247810D01*
X115641911Y-108208715D01*
X115682491Y-108183365D01*
X115699457Y-108174342D01*
X115709877Y-108180759D01*
X115741025Y-108207647D01*
X115788161Y-108251774D01*
X115847293Y-108309087D01*
X115914426Y-108375535D01*
X115985566Y-108447065D01*
X116056719Y-108519626D01*
X116123892Y-108589167D01*
X116183090Y-108651635D01*
X116230319Y-108702978D01*
X116261586Y-108739145D01*
X116272895Y-108756083D01*
X116270264Y-108763361D01*
X116252048Y-108795824D01*
X116218782Y-108849249D01*
X116173164Y-108919449D01*
X116117890Y-109002236D01*
X116055658Y-109093421D01*
X116021506Y-109143152D01*
X115962757Y-109229731D01*
X115912388Y-109305291D01*
X115873086Y-109365733D01*
X115847535Y-109406961D01*
X115838422Y-109424876D01*
X115838571Y-109425869D01*
X115846611Y-109448580D01*
X115865054Y-109494955D01*
X115891331Y-109558937D01*
X115922871Y-109634468D01*
X115957102Y-109715489D01*
X115991454Y-109795943D01*
X116023355Y-109869772D01*
X116050235Y-109930918D01*
X116069522Y-109973322D01*
X116078646Y-109990926D01*
X116084045Y-109992488D01*
X116116846Y-109999531D01*
X116175306Y-110011199D01*
X116254746Y-110026580D01*
X116350486Y-110044760D01*
X116457846Y-110064830D01*
X116514431Y-110075471D01*
X116618289Y-110095773D01*
X116709097Y-110114522D01*
X116781891Y-110130642D01*
X116831708Y-110143056D01*
X116853586Y-110150686D01*
X116857516Y-110158250D01*
X116864034Y-110195209D01*
X116869156Y-110256765D01*
X116872884Y-110337127D01*
X116875223Y-110430503D01*
X116876177Y-110531101D01*
X116875749Y-110633128D01*
X116873945Y-110730793D01*
X116870766Y-110818304D01*
X116866219Y-110889869D01*
X116860306Y-110939696D01*
X116853031Y-110961993D01*
X116848617Y-110964508D01*
X116815694Y-110975296D01*
X116758582Y-110989569D01*
X116683882Y-111005764D01*
X116598196Y-111022319D01*
X116569285Y-111027592D01*
X116435755Y-111052113D01*
X116330813Y-111071821D01*
X116250820Y-111087531D01*
X116192139Y-111100062D01*
X116151132Y-111110229D01*
X116124161Y-111118851D01*
X116107588Y-111126745D01*
X116097775Y-111134727D01*
X116096635Y-111136067D01*
X116080588Y-111163997D01*
X116056843Y-111215104D01*
X116027701Y-111283392D01*
X115995463Y-111362866D01*
X115962430Y-111447529D01*
X115930904Y-111531387D01*
X115903186Y-111608444D01*
X115881577Y-111672704D01*
X115868379Y-111718172D01*
X115865893Y-111738852D01*
X115867555Y-111741535D01*
X115884765Y-111767484D01*
X115917130Y-111815345D01*
X115961650Y-111880710D01*
X116015323Y-111959170D01*
X116075149Y-112046315D01*
X116091567Y-112070292D01*
X116149303Y-112156295D01*
X116199200Y-112233211D01*
X116238409Y-112296477D01*
X116264083Y-112341532D01*
X116273374Y-112363815D01*
X116271372Y-112369673D01*
X116250503Y-112398541D01*
X116209331Y-112445680D01*
X116150803Y-112507920D01*
X116077867Y-112582087D01*
X115993473Y-112665008D01*
X115945234Y-112711421D01*
X115868962Y-112783708D01*
X115802205Y-112845624D01*
X115748546Y-112893911D01*
X115711570Y-112925307D01*
X115694863Y-112936554D01*
X115683385Y-112932384D01*
X115648045Y-112912663D01*
X115596723Y-112880410D01*
X115536113Y-112839711D01*
X115493020Y-112810011D01*
X115406987Y-112751030D01*
X115315179Y-112688390D01*
X115231323Y-112631469D01*
X115067053Y-112520359D01*
X114929160Y-112594916D01*
X114896690Y-112612125D01*
X114837642Y-112641560D01*
X114791979Y-112661883D01*
X114767574Y-112669460D01*
X114759588Y-112659730D01*
X114739756Y-112622679D01*
X114710462Y-112561593D01*
X114673338Y-112480349D01*
X114630013Y-112382823D01*
X114582118Y-112272891D01*
X114531281Y-112154432D01*
X114479133Y-112031321D01*
X114427304Y-111907435D01*
X114377424Y-111786650D01*
X114331123Y-111672844D01*
X114290031Y-111569893D01*
X114255778Y-111481673D01*
X114229993Y-111412062D01*
X114214308Y-111364936D01*
X114210351Y-111344172D01*
X114210619Y-111343565D01*
X114229050Y-111324370D01*
X114267602Y-111294306D01*
X114318316Y-111259609D01*
X114334324Y-111249014D01*
X114456125Y-111148498D01*
X114556929Y-111028777D01*
X114634351Y-110894834D01*
X114686004Y-110751653D01*
X114709500Y-110604216D01*
X114702454Y-110457507D01*
X114673910Y-110327020D01*
X114622659Y-110195257D01*
X114547945Y-110077706D01*
X114445414Y-109966042D01*
X114405127Y-109930369D01*
X114274889Y-109842480D01*
X114134197Y-109783288D01*
X113987127Y-109752265D01*
X113837758Y-109748879D01*
X113690167Y-109772602D01*
X113548429Y-109822904D01*
X113416623Y-109899255D01*
X113298826Y-110001125D01*
X113199114Y-110127984D01*
X113179943Y-110159400D01*
X113114783Y-110302992D01*
X113080177Y-110452517D01*
X113075218Y-110604105D01*
X113099001Y-110753882D01*
X113150619Y-110897976D01*
X113229166Y-111032515D01*
X113333736Y-111153625D01*
X113463422Y-111257434D01*
X113467634Y-111260232D01*
X113517810Y-111295590D01*
X113555417Y-111325653D01*
X113572594Y-111344172D01*
X113570426Y-111358690D01*
X113556951Y-111400965D01*
X113533058Y-111466486D01*
X113500375Y-111551377D01*
X113460533Y-111651759D01*
X113415160Y-111763757D01*
X113365887Y-111883491D01*
X113314341Y-112007084D01*
X113262154Y-112130659D01*
X113210953Y-112250339D01*
X113162368Y-112362245D01*
X113118030Y-112462500D01*
X113079566Y-112547227D01*
X113048606Y-112612547D01*
X113026779Y-112654584D01*
X113015716Y-112669460D01*
X113006516Y-112667446D01*
X112970371Y-112652966D01*
X112916951Y-112627578D01*
X112854131Y-112594916D01*
X112716238Y-112520359D01*
X112551968Y-112631469D01*
X112503436Y-112664370D01*
X112413166Y-112725845D01*
X112323171Y-112787418D01*
X112247177Y-112839711D01*
X112205237Y-112868209D01*
X112150726Y-112903616D01*
X112110309Y-112927855D01*
X112090568Y-112936842D01*
X112082087Y-112933026D01*
X112051429Y-112909656D01*
X112004168Y-112868510D01*
X111944416Y-112813635D01*
X111876288Y-112749077D01*
X111803896Y-112678885D01*
X111731356Y-112607106D01*
X111662780Y-112537786D01*
X111602282Y-112474973D01*
X111553976Y-112422714D01*
X111521976Y-112385057D01*
X111510395Y-112366048D01*
X111511063Y-112362431D01*
X111524847Y-112332993D01*
X111554292Y-112282062D01*
X111596553Y-112214238D01*
X111648785Y-112134123D01*
X111708142Y-112046315D01*
X111724789Y-112022096D01*
X111783244Y-111936868D01*
X111834733Y-111861521D01*
X111876256Y-111800463D01*
X111904811Y-111758104D01*
X111917398Y-111738852D01*
X111917707Y-111738027D01*
X111913993Y-111714473D01*
X111899807Y-111666759D01*
X111877451Y-111600879D01*
X111849227Y-111522830D01*
X111817435Y-111438607D01*
X111784378Y-111354205D01*
X111752356Y-111275621D01*
X111723671Y-111208850D01*
X111700623Y-111159886D01*
X111685515Y-111134727D01*
X111684002Y-111133165D01*
X111673185Y-111125263D01*
X111654915Y-111117294D01*
X111625556Y-111108441D01*
X111581470Y-111097887D01*
X111519018Y-111084815D01*
X111434564Y-111068408D01*
X111324469Y-111047848D01*
X111185095Y-111022319D01*
X111156187Y-111016946D01*
X111073377Y-111000337D01*
X111003718Y-110984600D01*
X110953812Y-110971298D01*
X110930259Y-110961993D01*
X110926319Y-110954230D01*
X110919750Y-110916942D01*
X110914544Y-110855125D01*
X110910706Y-110774572D01*
X110908239Y-110681075D01*
X110907147Y-110580426D01*
X110907435Y-110478417D01*
X110909107Y-110380839D01*
X110912165Y-110293485D01*
X110916615Y-110222147D01*
X110922460Y-110172617D01*
X110929704Y-110150686D01*
X110937101Y-110147446D01*
X110973896Y-110137233D01*
X111036091Y-110122789D01*
X111118723Y-110105189D01*
X111216828Y-110085510D01*
X111325444Y-110064830D01*
X111384750Y-110053781D01*
X111486398Y-110034621D01*
X111573890Y-110017844D01*
X111642549Y-110004361D01*
X111687693Y-109995084D01*
X111704644Y-109990926D01*
X111705281Y-109990069D01*
X111716077Y-109968293D01*
X111736657Y-109922671D01*
X111764449Y-109859258D01*
X111796882Y-109784107D01*
X111831382Y-109703270D01*
X111865378Y-109622799D01*
X111896297Y-109548749D01*
X111921566Y-109487172D01*
X111938615Y-109444121D01*
X111944869Y-109425650D01*
X111942110Y-109419150D01*
X111923750Y-109388222D01*
X111890446Y-109336163D01*
X111844874Y-109267059D01*
X111789711Y-109184993D01*
X111727632Y-109094052D01*
X111693573Y-109044248D01*
X111634797Y-108956931D01*
X111584403Y-108880298D01*
X111545080Y-108818531D01*
X111519514Y-108775806D01*
X111510395Y-108756305D01*
X111516732Y-108745727D01*
X111543237Y-108714119D01*
X111586720Y-108666283D01*
X111643189Y-108606273D01*
X111708653Y-108538142D01*
X111779121Y-108465945D01*
X111850601Y-108393733D01*
X111919100Y-108325562D01*
X111980629Y-108265483D01*
X112031194Y-108217551D01*
X112066805Y-108185820D01*
X112083470Y-108174342D01*
X112092720Y-108178805D01*
X112126689Y-108199502D01*
X112181505Y-108234727D01*
X112253218Y-108281896D01*
X112337878Y-108338431D01*
X112431535Y-108401748D01*
X112765959Y-108629154D01*
X113323487Y-108399322D01*
X113399036Y-107998576D01*
X113474585Y-107597829D01*
X114308706Y-107597829D01*
X114384254Y-107998576D01*
G37*
%TD*%
M02*
