%TF.GenerationSoftware,KiCad,Pcbnew,8.0.4*%
%TF.CreationDate,2024-08-04T13:51:38+08:00*%
%TF.ProjectId,mai-pico-nano-io,6d61692d-7069-4636-9f2d-6e616e6f2d69,rev?*%
%TF.SameCoordinates,Original*%
%TF.FileFunction,Paste,Top*%
%TF.FilePolarity,Positive*%
%FSLAX46Y46*%
G04 Gerber Fmt 4.6, Leading zero omitted, Abs format (unit mm)*
G04 Created by KiCad (PCBNEW 8.0.4) date 2024-08-04 13:51:38*
%MOMM*%
%LPD*%
G01*
G04 APERTURE LIST*
G04 Aperture macros list*
%AMRoundRect*
0 Rectangle with rounded corners*
0 $1 Rounding radius*
0 $2 $3 $4 $5 $6 $7 $8 $9 X,Y pos of 4 corners*
0 Add a 4 corners polygon primitive as box body*
4,1,4,$2,$3,$4,$5,$6,$7,$8,$9,$2,$3,0*
0 Add four circle primitives for the rounded corners*
1,1,$1+$1,$2,$3*
1,1,$1+$1,$4,$5*
1,1,$1+$1,$6,$7*
1,1,$1+$1,$8,$9*
0 Add four rect primitives between the rounded corners*
20,1,$1+$1,$2,$3,$4,$5,0*
20,1,$1+$1,$4,$5,$6,$7,0*
20,1,$1+$1,$6,$7,$8,$9,0*
20,1,$1+$1,$8,$9,$2,$3,0*%
G04 Aperture macros list end*
%ADD10RoundRect,0.150000X0.150000X-0.512500X0.150000X0.512500X-0.150000X0.512500X-0.150000X-0.512500X0*%
%ADD11RoundRect,0.200000X0.275000X-0.200000X0.275000X0.200000X-0.275000X0.200000X-0.275000X-0.200000X0*%
%ADD12RoundRect,0.225000X-0.225000X-0.250000X0.225000X-0.250000X0.225000X0.250000X-0.225000X0.250000X0*%
%ADD13RoundRect,0.345000X-0.925000X-0.345000X0.925000X-0.345000X0.925000X0.345000X-0.925000X0.345000X0*%
%ADD14RoundRect,0.345000X-0.345000X-0.925000X0.345000X-0.925000X0.345000X0.925000X-0.345000X0.925000X0*%
%ADD15RoundRect,0.150000X-0.512500X-0.150000X0.512500X-0.150000X0.512500X0.150000X-0.512500X0.150000X0*%
%ADD16RoundRect,0.225000X-0.250000X0.225000X-0.250000X-0.225000X0.250000X-0.225000X0.250000X0.225000X0*%
G04 APERTURE END LIST*
D10*
%TO.C,U3*%
X84050001Y-103737500D03*
X85000000Y-103737500D03*
X85949999Y-103737500D03*
X85949999Y-101462500D03*
X84050001Y-101462500D03*
%TD*%
D11*
%TO.C,R4*%
X84200000Y-110325000D03*
X84200000Y-108675000D03*
%TD*%
D12*
%TO.C,C3*%
X84225000Y-117900000D03*
X85775000Y-117900000D03*
%TD*%
%TO.C,C4*%
X84225000Y-112100000D03*
X85775000Y-112100000D03*
%TD*%
D13*
%TO.C,U1*%
X91690000Y-89840000D03*
X91690000Y-92380000D03*
X91690000Y-94920000D03*
X91690000Y-97460000D03*
X91690000Y-100000000D03*
X91690000Y-102540000D03*
X91690000Y-105080000D03*
X91690000Y-107620000D03*
X91690000Y-110160000D03*
D14*
X94920000Y-111060000D03*
X97460000Y-111060000D03*
X100000000Y-111060000D03*
X102540000Y-111060000D03*
X105080000Y-111060000D03*
D13*
X108310000Y-110160000D03*
X108310000Y-107620000D03*
X108310000Y-105080000D03*
X108310000Y-102540000D03*
X108310000Y-100000000D03*
X108310000Y-97460000D03*
X108310000Y-94920000D03*
X108310000Y-92380000D03*
X108310000Y-89840000D03*
%TD*%
D11*
%TO.C,R3*%
X85800000Y-110325000D03*
X85800000Y-108675000D03*
%TD*%
D15*
%TO.C,U2*%
X113862500Y-91050001D03*
X113862500Y-92000000D03*
X113862500Y-92949999D03*
X116137500Y-92949999D03*
X116137500Y-91050001D03*
%TD*%
D10*
%TO.C,U4*%
X84050001Y-116137500D03*
X85000000Y-116137500D03*
X85949999Y-116137500D03*
X85949999Y-113862500D03*
X84050001Y-113862500D03*
%TD*%
D16*
%TO.C,C5*%
X117900000Y-91225000D03*
X117900000Y-92775000D03*
%TD*%
D12*
%TO.C,C2*%
X84225000Y-99700000D03*
X85775000Y-99700000D03*
%TD*%
%TO.C,C1*%
X84225000Y-105500000D03*
X85775000Y-105500000D03*
%TD*%
D11*
%TO.C,R1*%
X84200000Y-97925000D03*
X84200000Y-96275000D03*
%TD*%
%TO.C,R2*%
X85800000Y-97925000D03*
X85800000Y-96275000D03*
%TD*%
M02*
