M48
; DRILL file {KiCad 8.0.4} date 2024-08-04T13:51:35+0800
; FORMAT={-:-/ absolute / inch / decimal}
; #@! TF.CreationDate,2024-08-04T13:51:35+08:00
; #@! TF.GenerationSoftware,Kicad,Pcbnew,8.0.4
; #@! TF.FileFunction,Plated,1,2,PTH
FMAT,2
INCH
; #@! TA.AperFunction,Plated,PTH,ViaDrill
T1C0.0118
; #@! TA.AperFunction,Plated,PTH,ComponentDrill
T2C0.0197
%
G90
G05
T1
X2.9921Y-3.6614
X2.9921Y-3.8189
X2.9921Y-3.9764
X2.9921Y-4.0945
X2.9921Y-4.2126
X2.9921Y-4.3307
X2.9921Y-4.4882
X2.9921Y-4.6457
X3.0512Y-4.1535
X3.0512Y-4.5866
X3.0906Y-4.1535
X3.0906Y-4.5866
X3.1496Y-3.5039
X3.1496Y-4.6457
X3.1496Y-4.8031
X3.3071Y-4.8031
X3.4173Y-3.9094
X3.4173Y-3.9409
X3.4173Y-4.1378
X3.4173Y-4.1693
X3.4173Y-4.3976
X3.4173Y-4.4291
X3.4173Y-4.626
X3.4173Y-4.6575
X3.4646Y-4.6457
X3.4646Y-4.8031
X3.5Y-3.5197
X3.5Y-3.5551
X3.5Y-3.6181
X3.5Y-3.6535
X3.5354Y-3.5197
X3.5354Y-3.5551
X3.5354Y-3.6181
X3.5354Y-3.6535
X3.622Y-4.8031
X3.7795Y-4.8031
X3.937Y-4.6457
X3.937Y-4.8031
X4.0945Y-4.8031
X4.252Y-4.8031
X4.3307Y-3.5827
X4.3701Y-3.622
X4.4094Y-3.6614
X4.4094Y-4.6457
X4.4094Y-4.8031
X4.4488Y-3.7008
X4.5276Y-3.7008
X4.5669Y-3.9764
X4.5669Y-4.6457
X4.5669Y-4.8031
X4.6417Y-3.5276
X4.6417Y-3.5551
X4.6457Y-3.7008
X4.7244Y-3.5039
X4.7244Y-3.9764
X4.7244Y-4.6457
X4.7244Y-4.8031
X4.8819Y-3.6614
X4.8819Y-3.8189
X4.8819Y-3.9764
X4.8819Y-4.0945
X4.8819Y-4.2126
X4.8819Y-4.3307
X4.8819Y-4.4882
X4.8819Y-4.6457
T2
X3.1457Y-3.8632
X3.1457Y-3.9124
X3.1457Y-3.9616
X3.1457Y-4.0108
X3.1457Y-4.2963
X3.1457Y-4.3455
X3.1457Y-4.3947
X3.1457Y-4.4439
X3.5384Y-4.6496
X3.5876Y-4.6496
X3.7864Y-4.6496
X3.8356Y-4.6496
X4.0344Y-4.6496
X4.0837Y-4.6496
X4.2825Y-4.6496
X4.3317Y-4.6496
X4.7283Y-3.7697
X4.7283Y-3.8189
X4.7283Y-3.8681
X4.7283Y-4.0896
X4.7283Y-4.1388
X4.7283Y-4.188
X4.7283Y-4.2372
X4.7283Y-4.2864
X4.7283Y-4.3356
X4.7283Y-4.3848
X4.7283Y-4.4341
X4.7283Y-4.4833
X4.7283Y-4.5325
M30
