%TF.GenerationSoftware,KiCad,Pcbnew,8.0.4*%
%TF.CreationDate,2024-08-04T13:51:38+08:00*%
%TF.ProjectId,mai-pico-nano-io,6d61692d-7069-4636-9f2d-6e616e6f2d69,rev?*%
%TF.SameCoordinates,Original*%
%TF.FileFunction,Copper,L2,Bot*%
%TF.FilePolarity,Positive*%
%FSLAX46Y46*%
G04 Gerber Fmt 4.6, Leading zero omitted, Abs format (unit mm)*
G04 Created by KiCad (PCBNEW 8.0.4) date 2024-08-04 13:51:38*
%MOMM*%
%LPD*%
G01*
G04 APERTURE LIST*
G04 Aperture macros list*
%AMRoundRect*
0 Rectangle with rounded corners*
0 $1 Rounding radius*
0 $2 $3 $4 $5 $6 $7 $8 $9 X,Y pos of 4 corners*
0 Add a 4 corners polygon primitive as box body*
4,1,4,$2,$3,$4,$5,$6,$7,$8,$9,$2,$3,0*
0 Add four circle primitives for the rounded corners*
1,1,$1+$1,$2,$3*
1,1,$1+$1,$4,$5*
1,1,$1+$1,$6,$7*
1,1,$1+$1,$8,$9*
0 Add four rect primitives between the rounded corners*
20,1,$1+$1,$2,$3,$4,$5,0*
20,1,$1+$1,$4,$5,$6,$7,0*
20,1,$1+$1,$6,$7,$8,$9,0*
20,1,$1+$1,$8,$9,$2,$3,0*%
G04 Aperture macros list end*
%TA.AperFunction,ComponentPad*%
%ADD10RoundRect,0.200000X-0.450000X0.200000X-0.450000X-0.200000X0.450000X-0.200000X0.450000X0.200000X0*%
%TD*%
%TA.AperFunction,ComponentPad*%
%ADD11O,1.300000X0.800000*%
%TD*%
%TA.AperFunction,ComponentPad*%
%ADD12RoundRect,0.200000X0.450000X-0.200000X0.450000X0.200000X-0.450000X0.200000X-0.450000X-0.200000X0*%
%TD*%
%TA.AperFunction,ComponentPad*%
%ADD13RoundRect,0.200000X-0.200000X-0.450000X0.200000X-0.450000X0.200000X0.450000X-0.200000X0.450000X0*%
%TD*%
%TA.AperFunction,ComponentPad*%
%ADD14O,0.800000X1.300000*%
%TD*%
%TA.AperFunction,ViaPad*%
%ADD15C,0.600000*%
%TD*%
G04 APERTURE END LIST*
D10*
%TO.P,J3,1,Pin_1*%
%TO.N,/I2C_1{slash}SCL*%
X79900000Y-109125000D03*
D11*
%TO.P,J3,2,Pin_2*%
%TO.N,/I2C_1{slash}SDA*%
X79900000Y-110374999D03*
%TO.P,J3,3,Pin_3*%
%TO.N,/I2C_1{slash}VDD*%
X79900000Y-111625000D03*
%TO.P,J3,4,Pin_4*%
%TO.N,GND*%
X79900000Y-112874999D03*
%TD*%
D10*
%TO.P,J2,1,Pin_1*%
%TO.N,/I2C_0{slash}SCL*%
X79900000Y-98125000D03*
D11*
%TO.P,J2,2,Pin_2*%
%TO.N,/I2C_0{slash}SDA*%
X79900000Y-99374999D03*
%TO.P,J2,3,Pin_3*%
%TO.N,/I2C_0{slash}VDD*%
X79900000Y-100625000D03*
%TO.P,J2,4,Pin_4*%
%TO.N,GND*%
X79900000Y-101874999D03*
%TD*%
D12*
%TO.P,J4,1,Pin_1*%
%TO.N,GND*%
X120100000Y-115125000D03*
D11*
%TO.P,J4,2,Pin_2*%
%TO.N,/BTN8*%
X120100000Y-113875001D03*
%TO.P,J4,3,Pin_3*%
%TO.N,/BTN7*%
X120100000Y-112625000D03*
%TO.P,J4,4,Pin_4*%
%TO.N,/BTN6*%
X120100000Y-111375001D03*
%TO.P,J4,5,Pin_5*%
%TO.N,/BTN5*%
X120100000Y-110125000D03*
%TO.P,J4,6,Pin_6*%
%TO.N,/BTN4*%
X120100000Y-108875001D03*
%TO.P,J4,7,Pin_7*%
%TO.N,/BTN3*%
X120100000Y-107625000D03*
%TO.P,J4,8,Pin_8*%
%TO.N,/BTN2*%
X120100000Y-106375000D03*
%TO.P,J4,9,Pin_9*%
%TO.N,/BTN1*%
X120100000Y-105125000D03*
%TO.P,J4,10,Pin_10*%
%TO.N,GND*%
X120100000Y-103875000D03*
%TD*%
D13*
%TO.P,J7,1,Pin_1*%
%TO.N,/AUX3*%
X102475000Y-118100000D03*
D14*
%TO.P,J7,2,Pin_2*%
%TO.N,GND*%
X103725000Y-118100000D03*
%TD*%
D13*
%TO.P,J8,1,Pin_1*%
%TO.N,/AUX4*%
X108775000Y-118100000D03*
D14*
%TO.P,J8,2,Pin_2*%
%TO.N,GND*%
X110025000Y-118100000D03*
%TD*%
D13*
%TO.P,J6,1,Pin_1*%
%TO.N,/AUX2*%
X96175000Y-118100000D03*
D14*
%TO.P,J6,2,Pin_2*%
%TO.N,GND*%
X97425000Y-118100000D03*
%TD*%
D13*
%TO.P,J5,1,Pin_1*%
%TO.N,/AUX1*%
X89875000Y-118100000D03*
D14*
%TO.P,J5,2,Pin_2*%
%TO.N,GND*%
X91125000Y-118100000D03*
%TD*%
D12*
%TO.P,J1,1,Pin_1*%
%TO.N,+5V*%
X120100000Y-98250000D03*
D11*
%TO.P,J1,2,Pin_2*%
%TO.N,/LED*%
X120100000Y-97000001D03*
%TO.P,J1,3,Pin_3*%
%TO.N,GND*%
X120100000Y-95750000D03*
%TD*%
D15*
%TO.N,GND*%
X110000000Y-91000000D03*
X76000000Y-107000000D03*
X118000000Y-94000000D03*
X112000000Y-118000000D03*
X112000000Y-122000000D03*
X88900000Y-91900000D03*
X96000000Y-122000000D03*
X124000000Y-101000000D03*
X86800000Y-100100000D03*
X124000000Y-107000000D03*
X116000000Y-122000000D03*
X113000000Y-94000000D03*
X100000000Y-122000000D03*
X116000000Y-101000000D03*
X92000000Y-122000000D03*
X76000000Y-93000000D03*
X76000000Y-101000000D03*
X124000000Y-104000000D03*
X120000000Y-122000000D03*
X76000000Y-114000000D03*
X86800000Y-112500000D03*
X89800000Y-91900000D03*
X88900000Y-92800000D03*
X80000000Y-122000000D03*
X76000000Y-110000000D03*
X89800000Y-92800000D03*
X111000000Y-92000000D03*
X86800000Y-99300000D03*
X124000000Y-110000000D03*
X80000000Y-118000000D03*
X108000000Y-122000000D03*
X88000000Y-122000000D03*
X76000000Y-97000000D03*
X120000000Y-89000000D03*
X86800000Y-111700000D03*
X86800000Y-105100000D03*
X115000000Y-94000000D03*
X84000000Y-122000000D03*
X124000000Y-97000000D03*
X86800000Y-118300000D03*
X120000000Y-118000000D03*
X104000000Y-122000000D03*
X116000000Y-118000000D03*
X120000000Y-101000000D03*
X76000000Y-118000000D03*
X88000000Y-118000000D03*
X124000000Y-118000000D03*
X86800000Y-117500000D03*
X100000000Y-118000000D03*
X124000000Y-114000000D03*
X76000000Y-104000000D03*
X80000000Y-89000000D03*
X86800000Y-105900000D03*
X112000000Y-93000000D03*
X124000000Y-93000000D03*
%TO.N,+5V*%
X117900000Y-89600000D03*
X88900000Y-89400000D03*
X89800000Y-90300000D03*
X117900000Y-90300000D03*
X89800000Y-89400000D03*
X77500000Y-105500000D03*
X88900000Y-90300000D03*
X78500000Y-116500000D03*
X77500000Y-116500000D03*
X78500000Y-105500000D03*
%TD*%
%TA.AperFunction,Conductor*%
%TO.N,GND*%
G36*
X82278764Y-88519454D02*
G01*
X82359546Y-88573430D01*
X82413522Y-88654212D01*
X82432476Y-88749500D01*
X82413522Y-88844788D01*
X82359548Y-88925566D01*
X81565683Y-89719432D01*
X80794738Y-90490377D01*
X80772120Y-90514526D01*
X80761439Y-90526706D01*
X80740463Y-90552266D01*
X80675891Y-90636417D01*
X80639136Y-90691425D01*
X80622967Y-90719432D01*
X80593716Y-90778748D01*
X80593712Y-90778756D01*
X80556264Y-90869163D01*
X80535014Y-90931763D01*
X80526626Y-90963067D01*
X80513731Y-91027901D01*
X80499883Y-91133082D01*
X80496645Y-91165961D01*
X80495583Y-91182159D01*
X80494500Y-91215247D01*
X80494500Y-92187474D01*
X80475546Y-92282762D01*
X80421570Y-92363544D01*
X76794731Y-95990383D01*
X76772120Y-96014526D01*
X76761444Y-96026700D01*
X76740463Y-96052266D01*
X76675891Y-96136417D01*
X76639136Y-96191425D01*
X76622967Y-96219432D01*
X76593716Y-96278748D01*
X76593712Y-96278756D01*
X76556264Y-96369163D01*
X76535014Y-96431763D01*
X76526626Y-96463067D01*
X76513731Y-96527901D01*
X76499883Y-96633082D01*
X76496645Y-96665961D01*
X76496644Y-96665980D01*
X76495583Y-96682165D01*
X76494500Y-96715232D01*
X76494500Y-116491874D01*
X76495325Y-116517067D01*
X76495583Y-116524946D01*
X76496645Y-116541144D01*
X76499883Y-116574023D01*
X76513732Y-116679208D01*
X76526629Y-116744050D01*
X76535011Y-116775332D01*
X76535013Y-116775339D01*
X76556252Y-116837906D01*
X76556263Y-116837937D01*
X76590978Y-116921747D01*
X76593721Y-116928369D01*
X76593723Y-116928374D01*
X76622962Y-116987665D01*
X76622968Y-116987677D01*
X76639153Y-117015709D01*
X76639156Y-117015713D01*
X76674919Y-117069234D01*
X76675885Y-117070680D01*
X76735468Y-117148330D01*
X76779066Y-117198043D01*
X76801956Y-117220933D01*
X76851669Y-117264531D01*
X76929319Y-117324114D01*
X76956807Y-117342481D01*
X76984285Y-117360842D01*
X76984289Y-117360845D01*
X77012321Y-117377030D01*
X77012333Y-117377036D01*
X77071624Y-117406275D01*
X77071630Y-117406277D01*
X77071635Y-117406280D01*
X77162062Y-117443736D01*
X77224674Y-117464990D01*
X77255937Y-117473367D01*
X77255945Y-117473369D01*
X77278153Y-117477786D01*
X77320793Y-117486268D01*
X77320798Y-117486268D01*
X77320800Y-117486269D01*
X77330077Y-117487490D01*
X77398986Y-117496562D01*
X77412922Y-117498397D01*
X77412922Y-117498398D01*
X77425946Y-117500113D01*
X77458874Y-117503356D01*
X77475059Y-117504417D01*
X77508126Y-117505500D01*
X77508142Y-117505500D01*
X78491860Y-117505500D01*
X78491874Y-117505500D01*
X78524943Y-117504417D01*
X78541127Y-117503356D01*
X78574042Y-117500114D01*
X78574070Y-117500110D01*
X78574073Y-117500110D01*
X78578393Y-117499541D01*
X78585382Y-117498621D01*
X78679208Y-117486268D01*
X78744058Y-117473368D01*
X78775325Y-117464990D01*
X78837937Y-117443736D01*
X78928364Y-117406280D01*
X78987670Y-117377034D01*
X79015703Y-117360849D01*
X79070680Y-117324114D01*
X79148330Y-117264531D01*
X79198043Y-117220933D01*
X79220933Y-117198043D01*
X79264531Y-117148330D01*
X79324114Y-117070680D01*
X79360849Y-117015703D01*
X79377034Y-116987670D01*
X79406280Y-116928364D01*
X79443736Y-116837937D01*
X79464990Y-116775325D01*
X79473368Y-116744058D01*
X79486268Y-116679209D01*
X79500114Y-116574045D01*
X79503356Y-116541125D01*
X79504417Y-116524939D01*
X79505500Y-116491874D01*
X79505500Y-112774500D01*
X79524454Y-112679212D01*
X79578430Y-112598430D01*
X79659212Y-112544454D01*
X79754500Y-112525500D01*
X80238691Y-112525500D01*
X80412666Y-112490894D01*
X80576547Y-112423013D01*
X80724035Y-112324464D01*
X80849464Y-112199035D01*
X80948013Y-112051547D01*
X81015894Y-111887666D01*
X81050500Y-111713691D01*
X81050500Y-111536309D01*
X81015894Y-111362334D01*
X80948013Y-111198453D01*
X80907844Y-111138336D01*
X80870664Y-111048577D01*
X80870664Y-110951422D01*
X80907843Y-110861663D01*
X80948013Y-110801546D01*
X81015894Y-110637665D01*
X81050500Y-110463690D01*
X81050500Y-110286308D01*
X81015894Y-110112333D01*
X80948013Y-109948452D01*
X80948010Y-109948447D01*
X80942247Y-109937665D01*
X80945138Y-109936119D01*
X80916713Y-109867486D01*
X80916716Y-109770331D01*
X80947841Y-109690099D01*
X80993477Y-109614608D01*
X80993478Y-109614606D01*
X81044086Y-109452196D01*
X81044157Y-109451422D01*
X81050499Y-109381630D01*
X81050500Y-109381609D01*
X81050500Y-108868390D01*
X81050499Y-108868369D01*
X81044087Y-108797811D01*
X81044086Y-108797808D01*
X81044086Y-108797804D01*
X80993478Y-108635394D01*
X80993477Y-108635393D01*
X80993477Y-108635391D01*
X80942987Y-108551873D01*
X80905472Y-108489815D01*
X80785185Y-108369528D01*
X80763723Y-108356553D01*
X80639608Y-108281522D01*
X80477196Y-108230914D01*
X80477188Y-108230912D01*
X80406630Y-108224500D01*
X80406616Y-108224500D01*
X79754500Y-108224500D01*
X79659212Y-108205546D01*
X79578430Y-108151570D01*
X79524454Y-108070788D01*
X79505500Y-107975500D01*
X79505500Y-101774500D01*
X79524454Y-101679212D01*
X79578430Y-101598430D01*
X79659212Y-101544454D01*
X79754500Y-101525500D01*
X80238691Y-101525500D01*
X80412666Y-101490894D01*
X80576547Y-101423013D01*
X80724035Y-101324464D01*
X80849464Y-101199035D01*
X80948013Y-101051547D01*
X81015894Y-100887666D01*
X81050500Y-100713691D01*
X81050500Y-100536309D01*
X81015894Y-100362334D01*
X80948013Y-100198453D01*
X80907844Y-100138336D01*
X80870664Y-100048577D01*
X80870664Y-99951422D01*
X80907843Y-99861663D01*
X80948013Y-99801546D01*
X81015894Y-99637665D01*
X81050500Y-99463690D01*
X81050500Y-99286308D01*
X81015894Y-99112333D01*
X80948013Y-98948452D01*
X80948010Y-98948447D01*
X80942247Y-98937665D01*
X80945138Y-98936119D01*
X80916713Y-98867486D01*
X80916716Y-98770331D01*
X80947841Y-98690099D01*
X80993477Y-98614608D01*
X80993478Y-98614606D01*
X81044086Y-98452196D01*
X81050500Y-98381616D01*
X81050500Y-97868384D01*
X81050499Y-97868369D01*
X81044087Y-97797811D01*
X81044086Y-97797808D01*
X81044086Y-97797804D01*
X80993478Y-97635394D01*
X80993477Y-97635393D01*
X80993477Y-97635391D01*
X80942815Y-97551588D01*
X80905472Y-97489815D01*
X80785185Y-97369528D01*
X80763723Y-97356553D01*
X80639608Y-97281522D01*
X80477196Y-97230914D01*
X80477188Y-97230912D01*
X80406630Y-97224500D01*
X80406616Y-97224500D01*
X80291523Y-97224500D01*
X80196235Y-97205546D01*
X80115453Y-97151570D01*
X80061477Y-97070788D01*
X80042523Y-96975500D01*
X80061477Y-96880212D01*
X80115453Y-96799430D01*
X81441518Y-95473365D01*
X83205243Y-93709641D01*
X83227852Y-93685502D01*
X83238547Y-93673307D01*
X83259536Y-93647732D01*
X83324115Y-93563571D01*
X83360854Y-93508587D01*
X83377039Y-93480553D01*
X83406282Y-93421253D01*
X83443737Y-93330828D01*
X83464989Y-93268220D01*
X83473367Y-93236954D01*
X83486268Y-93172102D01*
X83500114Y-93066938D01*
X83503356Y-93034018D01*
X83504417Y-93017832D01*
X83505146Y-92995583D01*
X83505500Y-92984781D01*
X83505500Y-92012522D01*
X83524454Y-91917234D01*
X83578430Y-91836452D01*
X84136452Y-91278430D01*
X84217234Y-91224454D01*
X84312522Y-91205500D01*
X88500000Y-91205500D01*
X89687477Y-91205500D01*
X89782765Y-91224454D01*
X89863547Y-91278430D01*
X90421570Y-91836453D01*
X90475546Y-91917235D01*
X90494500Y-92012522D01*
X90494500Y-109484767D01*
X90494999Y-109500000D01*
X90495583Y-109517839D01*
X90496645Y-109534037D01*
X90499883Y-109566916D01*
X90513731Y-109672097D01*
X90526626Y-109736931D01*
X90535014Y-109768235D01*
X90556264Y-109830835D01*
X90593712Y-109921242D01*
X90593717Y-109921253D01*
X90622960Y-109980553D01*
X90622964Y-109980559D01*
X90622967Y-109980566D01*
X90639136Y-110008573D01*
X90639142Y-110008583D01*
X90639145Y-110008587D01*
X90675884Y-110063571D01*
X90740463Y-110147732D01*
X90761452Y-110173307D01*
X90772147Y-110185502D01*
X90794756Y-110209640D01*
X92290359Y-111705243D01*
X92314497Y-111727852D01*
X92326692Y-111738547D01*
X92352267Y-111759536D01*
X92436428Y-111824115D01*
X92491412Y-111860854D01*
X92491419Y-111860858D01*
X92491425Y-111860862D01*
X92519432Y-111877031D01*
X92519446Y-111877039D01*
X92578746Y-111906282D01*
X92578756Y-111906286D01*
X92669163Y-111943734D01*
X92669167Y-111943735D01*
X92669171Y-111943737D01*
X92731776Y-111964988D01*
X92731773Y-111964988D01*
X92757729Y-111971942D01*
X92763045Y-111973367D01*
X92827900Y-111986268D01*
X92827905Y-111986268D01*
X92827907Y-111986269D01*
X92837184Y-111987490D01*
X92906093Y-111996562D01*
X92920029Y-111998397D01*
X92920029Y-111998398D01*
X92933053Y-112000113D01*
X92965981Y-112003356D01*
X92982166Y-112004417D01*
X93015233Y-112005500D01*
X93015249Y-112005500D01*
X106984753Y-112005500D01*
X106984767Y-112005500D01*
X107017836Y-112004417D01*
X107034020Y-112003356D01*
X107066935Y-112000114D01*
X107066963Y-112000110D01*
X107066966Y-112000110D01*
X107078275Y-111998621D01*
X107099162Y-111995871D01*
X107172101Y-111986268D01*
X107236954Y-111973367D01*
X107261611Y-111966759D01*
X107268217Y-111964990D01*
X107268218Y-111964989D01*
X107268220Y-111964989D01*
X107330828Y-111943737D01*
X107421253Y-111906282D01*
X107480553Y-111877039D01*
X107508587Y-111860854D01*
X107563571Y-111824115D01*
X107647732Y-111759536D01*
X107673307Y-111738547D01*
X107685502Y-111727852D01*
X107709640Y-111705243D01*
X109205243Y-110209640D01*
X109227852Y-110185502D01*
X109238547Y-110173307D01*
X109259536Y-110147732D01*
X109324115Y-110063571D01*
X109360854Y-110008587D01*
X109377039Y-109980553D01*
X109406282Y-109921253D01*
X109443737Y-109830828D01*
X109464989Y-109768220D01*
X109473367Y-109736954D01*
X109486268Y-109672102D01*
X109500114Y-109566938D01*
X109503356Y-109534018D01*
X109504417Y-109517832D01*
X109505500Y-109484767D01*
X109505500Y-105036304D01*
X118949500Y-105036304D01*
X118949500Y-105213695D01*
X118984104Y-105387659D01*
X118984105Y-105387661D01*
X118984106Y-105387666D01*
X119051987Y-105551547D01*
X119051988Y-105551549D01*
X119051989Y-105551550D01*
X119051990Y-105551553D01*
X119092155Y-105611664D01*
X119129335Y-105701423D01*
X119129334Y-105798578D01*
X119092155Y-105888336D01*
X119051990Y-105948446D01*
X119051989Y-105948449D01*
X118984104Y-106112340D01*
X118949500Y-106286304D01*
X118949500Y-106463695D01*
X118984104Y-106637659D01*
X118984105Y-106637661D01*
X118984106Y-106637666D01*
X119051987Y-106801547D01*
X119051988Y-106801549D01*
X119051989Y-106801550D01*
X119051990Y-106801553D01*
X119092155Y-106861664D01*
X119129335Y-106951423D01*
X119129334Y-107048578D01*
X119092155Y-107138336D01*
X119051990Y-107198446D01*
X119051989Y-107198449D01*
X118984104Y-107362340D01*
X118949500Y-107536304D01*
X118949500Y-107713695D01*
X118984104Y-107887659D01*
X118984105Y-107887661D01*
X118984106Y-107887666D01*
X119051987Y-108051547D01*
X119051988Y-108051549D01*
X119051989Y-108051550D01*
X119051990Y-108051553D01*
X119092155Y-108111664D01*
X119129335Y-108201423D01*
X119129334Y-108298578D01*
X119092156Y-108388335D01*
X119051989Y-108448449D01*
X119051989Y-108448450D01*
X119051989Y-108448451D01*
X119051987Y-108448454D01*
X119030844Y-108499500D01*
X118984104Y-108612341D01*
X118949500Y-108786305D01*
X118949500Y-108963696D01*
X118984104Y-109137660D01*
X118984105Y-109137662D01*
X118984106Y-109137667D01*
X119051987Y-109301548D01*
X119051988Y-109301549D01*
X119051989Y-109301551D01*
X119092154Y-109361662D01*
X119129334Y-109451422D01*
X119129335Y-109548577D01*
X119092155Y-109638336D01*
X119051990Y-109698446D01*
X119051989Y-109698449D01*
X119051987Y-109698451D01*
X119051987Y-109698453D01*
X118997154Y-109830835D01*
X118984104Y-109862340D01*
X118949500Y-110036304D01*
X118949500Y-110213695D01*
X118984104Y-110387659D01*
X118984105Y-110387661D01*
X118984106Y-110387666D01*
X119051987Y-110551547D01*
X119051988Y-110551549D01*
X119051989Y-110551550D01*
X119051990Y-110551553D01*
X119092155Y-110611664D01*
X119129335Y-110701423D01*
X119129334Y-110798578D01*
X119092156Y-110888335D01*
X119051989Y-110948449D01*
X119051989Y-110948450D01*
X119051989Y-110948451D01*
X119051987Y-110948454D01*
X119010516Y-111048577D01*
X118984104Y-111112341D01*
X118949500Y-111286305D01*
X118949500Y-111463696D01*
X118984104Y-111637660D01*
X118984105Y-111637662D01*
X118984106Y-111637667D01*
X119051987Y-111801548D01*
X119051988Y-111801549D01*
X119051989Y-111801551D01*
X119092154Y-111861662D01*
X119129334Y-111951422D01*
X119129335Y-112048577D01*
X119092155Y-112138336D01*
X119051990Y-112198446D01*
X119051989Y-112198449D01*
X119051987Y-112198451D01*
X119051987Y-112198453D01*
X118999792Y-112324466D01*
X118984104Y-112362340D01*
X118949500Y-112536304D01*
X118949500Y-112713695D01*
X118984104Y-112887659D01*
X118984105Y-112887661D01*
X118984106Y-112887666D01*
X119051987Y-113051547D01*
X119051988Y-113051549D01*
X119051989Y-113051550D01*
X119051990Y-113051553D01*
X119092155Y-113111664D01*
X119129335Y-113201423D01*
X119129334Y-113298578D01*
X119092156Y-113388335D01*
X119051989Y-113448449D01*
X119051989Y-113448450D01*
X118984104Y-113612341D01*
X118949500Y-113786305D01*
X118949500Y-113963696D01*
X118984104Y-114137660D01*
X118984105Y-114137662D01*
X118984106Y-114137667D01*
X119051987Y-114301548D01*
X119150536Y-114449036D01*
X119275965Y-114574465D01*
X119423453Y-114673014D01*
X119587334Y-114740895D01*
X119761309Y-114775501D01*
X120438691Y-114775501D01*
X120612666Y-114740895D01*
X120776547Y-114673014D01*
X120924035Y-114574465D01*
X121049464Y-114449036D01*
X121148013Y-114301548D01*
X121215894Y-114137667D01*
X121250500Y-113963692D01*
X121250500Y-113786310D01*
X121215894Y-113612335D01*
X121148013Y-113448454D01*
X121107844Y-113388337D01*
X121070664Y-113298578D01*
X121070664Y-113201423D01*
X121107843Y-113111664D01*
X121148013Y-113051547D01*
X121215894Y-112887666D01*
X121250500Y-112713691D01*
X121250500Y-112536309D01*
X121215894Y-112362334D01*
X121148013Y-112198453D01*
X121148010Y-112198449D01*
X121148011Y-112198449D01*
X121107845Y-112138338D01*
X121070665Y-112048579D01*
X121070664Y-111951424D01*
X121107840Y-111861669D01*
X121148013Y-111801548D01*
X121215894Y-111637667D01*
X121250500Y-111463692D01*
X121250500Y-111286310D01*
X121215894Y-111112335D01*
X121148013Y-110948454D01*
X121107844Y-110888337D01*
X121070664Y-110798578D01*
X121070664Y-110701423D01*
X121107843Y-110611664D01*
X121148013Y-110551547D01*
X121215894Y-110387666D01*
X121250500Y-110213691D01*
X121250500Y-110036309D01*
X121215894Y-109862334D01*
X121148013Y-109698453D01*
X121148010Y-109698449D01*
X121148011Y-109698449D01*
X121107845Y-109638338D01*
X121070665Y-109548579D01*
X121070664Y-109451424D01*
X121107840Y-109361669D01*
X121148013Y-109301548D01*
X121215894Y-109137667D01*
X121250500Y-108963692D01*
X121250500Y-108786310D01*
X121215894Y-108612335D01*
X121148013Y-108448454D01*
X121107844Y-108388337D01*
X121070664Y-108298578D01*
X121070664Y-108201423D01*
X121107843Y-108111664D01*
X121148013Y-108051547D01*
X121215894Y-107887666D01*
X121250500Y-107713691D01*
X121250500Y-107536309D01*
X121215894Y-107362334D01*
X121148013Y-107198453D01*
X121148010Y-107198449D01*
X121148011Y-107198449D01*
X121107845Y-107138338D01*
X121070665Y-107048579D01*
X121070664Y-106951424D01*
X121107841Y-106861667D01*
X121148013Y-106801547D01*
X121215894Y-106637666D01*
X121250500Y-106463691D01*
X121250500Y-106286309D01*
X121215894Y-106112334D01*
X121148013Y-105948453D01*
X121148010Y-105948449D01*
X121148011Y-105948449D01*
X121107845Y-105888338D01*
X121070665Y-105798579D01*
X121070664Y-105701424D01*
X121107841Y-105611667D01*
X121148013Y-105551547D01*
X121215894Y-105387666D01*
X121250500Y-105213691D01*
X121250500Y-105036309D01*
X121215894Y-104862334D01*
X121148013Y-104698453D01*
X121049464Y-104550965D01*
X120924035Y-104425536D01*
X120924031Y-104425533D01*
X120776549Y-104326988D01*
X120776547Y-104326987D01*
X120612666Y-104259106D01*
X120612661Y-104259105D01*
X120612659Y-104259104D01*
X120438695Y-104224500D01*
X120438691Y-104224500D01*
X119761309Y-104224500D01*
X119761304Y-104224500D01*
X119587340Y-104259104D01*
X119587336Y-104259105D01*
X119587334Y-104259106D01*
X119478080Y-104304360D01*
X119423450Y-104326988D01*
X119275968Y-104425533D01*
X119150533Y-104550968D01*
X119051988Y-104698450D01*
X118984104Y-104862340D01*
X118949500Y-105036304D01*
X109505500Y-105036304D01*
X109505500Y-91353387D01*
X109524454Y-91258099D01*
X109578430Y-91177317D01*
X109595095Y-91162100D01*
X109713760Y-91063213D01*
X109799096Y-91016772D01*
X109873165Y-91005500D01*
X109915695Y-91005500D01*
X109920115Y-91005342D01*
X109925242Y-91005158D01*
X109934130Y-91005000D01*
X110065870Y-91005000D01*
X110074757Y-91005158D01*
X110079884Y-91005342D01*
X110084305Y-91005500D01*
X110084307Y-91005500D01*
X116687477Y-91005500D01*
X116782765Y-91024454D01*
X116863547Y-91078430D01*
X116921570Y-91136453D01*
X116975546Y-91217235D01*
X116994500Y-91312523D01*
X116994500Y-92284767D01*
X116995325Y-92309960D01*
X116995583Y-92317839D01*
X116996645Y-92334037D01*
X116999883Y-92366916D01*
X117013731Y-92472097D01*
X117026626Y-92536931D01*
X117035014Y-92568235D01*
X117056264Y-92630835D01*
X117093712Y-92721242D01*
X117093717Y-92721253D01*
X117122960Y-92780553D01*
X117122964Y-92780559D01*
X117122967Y-92780566D01*
X117139136Y-92808573D01*
X117139142Y-92808583D01*
X117139145Y-92808587D01*
X117175884Y-92863571D01*
X117240463Y-92947732D01*
X117261452Y-92973307D01*
X117272147Y-92985502D01*
X117294756Y-93009640D01*
X119490359Y-95205243D01*
X119514497Y-95227852D01*
X119526692Y-95238547D01*
X119552267Y-95259536D01*
X119636428Y-95324115D01*
X119691412Y-95360854D01*
X119691419Y-95360858D01*
X119691425Y-95360862D01*
X119719432Y-95377031D01*
X119719446Y-95377039D01*
X119778746Y-95406282D01*
X119778756Y-95406286D01*
X119869163Y-95443734D01*
X119869167Y-95443735D01*
X119869171Y-95443737D01*
X119931776Y-95464988D01*
X119931773Y-95464988D01*
X119957729Y-95471942D01*
X119963045Y-95473367D01*
X120027900Y-95486268D01*
X120027905Y-95486268D01*
X120027907Y-95486269D01*
X120037184Y-95487490D01*
X120106093Y-95496562D01*
X120120029Y-95498397D01*
X120120029Y-95498398D01*
X120133053Y-95500113D01*
X120165981Y-95503356D01*
X120182166Y-95504417D01*
X120215233Y-95505500D01*
X120245500Y-95505500D01*
X120340788Y-95524454D01*
X120421570Y-95578430D01*
X120475546Y-95659212D01*
X120494500Y-95754500D01*
X120494500Y-95850501D01*
X120475546Y-95945789D01*
X120421570Y-96026571D01*
X120340788Y-96080547D01*
X120245500Y-96099501D01*
X119761304Y-96099501D01*
X119587340Y-96134105D01*
X119587336Y-96134106D01*
X119587334Y-96134107D01*
X119478080Y-96179361D01*
X119423450Y-96201989D01*
X119275968Y-96300534D01*
X119150533Y-96425969D01*
X119051988Y-96573451D01*
X119051987Y-96573454D01*
X118993262Y-96715232D01*
X118984104Y-96737341D01*
X118949500Y-96911305D01*
X118949500Y-97088696D01*
X118984104Y-97262660D01*
X118984105Y-97262662D01*
X118984106Y-97262667D01*
X119051987Y-97426548D01*
X119051988Y-97426550D01*
X119051993Y-97426561D01*
X119052474Y-97427461D01*
X119052769Y-97428436D01*
X119056669Y-97437850D01*
X119055741Y-97438234D01*
X119080671Y-97520435D01*
X119071143Y-97617121D01*
X119041076Y-97680704D01*
X119041297Y-97680841D01*
X119040108Y-97682752D01*
X119039937Y-97683115D01*
X119039154Y-97684286D01*
X119039150Y-97684293D01*
X119022958Y-97712339D01*
X118993727Y-97771616D01*
X118993719Y-97771635D01*
X118956263Y-97862062D01*
X118956258Y-97862073D01*
X118956252Y-97862092D01*
X118935013Y-97924659D01*
X118935011Y-97924666D01*
X118926629Y-97955948D01*
X118913732Y-98020790D01*
X118899883Y-98125975D01*
X118896645Y-98158854D01*
X118896644Y-98158873D01*
X118895583Y-98175058D01*
X118894500Y-98208125D01*
X118894500Y-98291874D01*
X118895325Y-98317067D01*
X118895583Y-98324946D01*
X118896645Y-98341144D01*
X118899883Y-98374023D01*
X118900882Y-98381609D01*
X118910175Y-98452196D01*
X118913732Y-98479208D01*
X118926629Y-98544050D01*
X118935011Y-98575332D01*
X118935013Y-98575339D01*
X118956252Y-98637906D01*
X118956263Y-98637937D01*
X118977869Y-98690099D01*
X118993721Y-98728369D01*
X118993723Y-98728374D01*
X119022962Y-98787665D01*
X119022968Y-98787677D01*
X119039153Y-98815709D01*
X119039156Y-98815713D01*
X119073751Y-98867486D01*
X119075885Y-98870680D01*
X119135468Y-98948330D01*
X119179066Y-98998043D01*
X119201956Y-99020933D01*
X119251669Y-99064531D01*
X119329319Y-99124114D01*
X119356807Y-99142481D01*
X119384285Y-99160842D01*
X119384289Y-99160845D01*
X119412321Y-99177030D01*
X119412333Y-99177036D01*
X119471624Y-99206275D01*
X119471630Y-99206277D01*
X119471635Y-99206280D01*
X119562062Y-99243736D01*
X119624674Y-99264990D01*
X119655937Y-99273367D01*
X119655945Y-99273369D01*
X119678153Y-99277786D01*
X119720793Y-99286268D01*
X119720798Y-99286268D01*
X119720800Y-99286269D01*
X119730077Y-99287490D01*
X119798986Y-99296562D01*
X119812922Y-99298397D01*
X119812922Y-99298398D01*
X119825946Y-99300113D01*
X119858874Y-99303356D01*
X119875059Y-99304417D01*
X119908126Y-99305500D01*
X119908142Y-99305500D01*
X121991860Y-99305500D01*
X121991874Y-99305500D01*
X122024943Y-99304417D01*
X122041127Y-99303356D01*
X122074042Y-99300114D01*
X122074070Y-99300110D01*
X122074073Y-99300110D01*
X122078393Y-99299541D01*
X122085382Y-99298621D01*
X122179208Y-99286268D01*
X122244058Y-99273368D01*
X122275325Y-99264990D01*
X122337937Y-99243736D01*
X122428364Y-99206280D01*
X122487670Y-99177034D01*
X122515703Y-99160849D01*
X122570680Y-99124114D01*
X122648330Y-99064531D01*
X122698043Y-99020933D01*
X122720933Y-98998043D01*
X122764531Y-98948330D01*
X122824114Y-98870680D01*
X122860849Y-98815703D01*
X122877034Y-98787670D01*
X122906280Y-98728364D01*
X122943736Y-98637937D01*
X122964990Y-98575325D01*
X122973368Y-98544058D01*
X122986268Y-98479209D01*
X123000114Y-98374045D01*
X123003356Y-98341125D01*
X123004417Y-98324939D01*
X123005500Y-98291874D01*
X123005500Y-94715232D01*
X123004417Y-94682167D01*
X123003356Y-94665981D01*
X123000114Y-94633061D01*
X122986268Y-94527897D01*
X122973367Y-94463045D01*
X122964989Y-94431779D01*
X122943737Y-94369171D01*
X122906282Y-94278746D01*
X122877039Y-94219446D01*
X122860854Y-94191412D01*
X122824115Y-94136428D01*
X122759536Y-94052267D01*
X122738547Y-94026692D01*
X122727852Y-94014497D01*
X122705243Y-93990359D01*
X122009640Y-93294756D01*
X121985502Y-93272147D01*
X121973307Y-93261452D01*
X121947732Y-93240463D01*
X121863571Y-93175884D01*
X121808587Y-93139145D01*
X121808583Y-93139142D01*
X121808573Y-93139136D01*
X121780566Y-93122967D01*
X121780559Y-93122964D01*
X121780553Y-93122960D01*
X121721253Y-93093717D01*
X121721247Y-93093714D01*
X121721242Y-93093712D01*
X121630835Y-93056264D01*
X121568235Y-93035014D01*
X121568219Y-93035009D01*
X121568217Y-93035009D01*
X121536950Y-93026631D01*
X121536948Y-93026630D01*
X121536931Y-93026626D01*
X121472097Y-93013731D01*
X121366916Y-92999883D01*
X121334037Y-92996645D01*
X121317839Y-92995583D01*
X121309960Y-92995325D01*
X121284767Y-92994500D01*
X121284751Y-92994500D01*
X120812523Y-92994500D01*
X120717235Y-92975546D01*
X120636453Y-92921570D01*
X119578430Y-91863547D01*
X119524454Y-91782765D01*
X119505500Y-91687477D01*
X119505500Y-90893703D01*
X120649500Y-90893703D01*
X120649500Y-91106296D01*
X120682753Y-91316240D01*
X120682754Y-91316243D01*
X120748443Y-91518412D01*
X120844949Y-91707816D01*
X120969896Y-91879792D01*
X121120208Y-92030104D01*
X121292184Y-92155051D01*
X121481588Y-92251557D01*
X121683757Y-92317246D01*
X121757601Y-92328941D01*
X121893703Y-92350499D01*
X121893710Y-92350499D01*
X121893713Y-92350500D01*
X121893716Y-92350500D01*
X122106284Y-92350500D01*
X122106287Y-92350500D01*
X122106290Y-92350499D01*
X122106296Y-92350499D01*
X122205476Y-92334789D01*
X122316243Y-92317246D01*
X122518412Y-92251557D01*
X122707816Y-92155051D01*
X122879792Y-92030104D01*
X123030104Y-91879792D01*
X123155051Y-91707816D01*
X123251557Y-91518412D01*
X123317246Y-91316243D01*
X123339250Y-91177317D01*
X123350499Y-91106296D01*
X123350500Y-91106284D01*
X123350500Y-90893715D01*
X123350499Y-90893703D01*
X123328941Y-90757601D01*
X123317246Y-90683757D01*
X123251557Y-90481588D01*
X123155051Y-90292184D01*
X123030104Y-90120208D01*
X122879792Y-89969896D01*
X122707816Y-89844949D01*
X122518412Y-89748443D01*
X122518409Y-89748442D01*
X122518407Y-89748441D01*
X122316240Y-89682753D01*
X122106296Y-89649500D01*
X122106287Y-89649500D01*
X121893713Y-89649500D01*
X121893703Y-89649500D01*
X121683759Y-89682753D01*
X121481592Y-89748441D01*
X121292182Y-89844950D01*
X121120206Y-89969897D01*
X120969897Y-90120206D01*
X120844950Y-90292182D01*
X120748441Y-90481592D01*
X120682753Y-90683759D01*
X120649500Y-90893703D01*
X119505500Y-90893703D01*
X119505500Y-90215217D01*
X119504418Y-90182194D01*
X119504417Y-90182190D01*
X119504417Y-90182167D01*
X119503356Y-90165981D01*
X119500114Y-90133061D01*
X119486268Y-90027897D01*
X119473367Y-89963045D01*
X119464989Y-89931779D01*
X119443737Y-89869171D01*
X119433704Y-89844950D01*
X119406286Y-89778756D01*
X119406282Y-89778746D01*
X119377039Y-89719446D01*
X119360854Y-89691412D01*
X119324115Y-89636428D01*
X119259536Y-89552267D01*
X119238547Y-89526692D01*
X119227852Y-89514497D01*
X119205243Y-89490359D01*
X118640450Y-88925566D01*
X118586477Y-88844788D01*
X118567523Y-88749500D01*
X118586477Y-88654212D01*
X118640453Y-88573430D01*
X118721235Y-88519454D01*
X118816523Y-88500500D01*
X121934108Y-88500500D01*
X121992472Y-88500500D01*
X122007505Y-88500954D01*
X122020011Y-88501710D01*
X122286261Y-88517815D01*
X122316088Y-88521437D01*
X122583363Y-88570417D01*
X122612546Y-88577610D01*
X122871956Y-88658446D01*
X122900059Y-88669103D01*
X123147845Y-88780623D01*
X123174464Y-88794594D01*
X123406989Y-88935161D01*
X123431734Y-88952241D01*
X123645616Y-89119806D01*
X123668123Y-89139745D01*
X123860254Y-89331876D01*
X123880193Y-89354383D01*
X124047758Y-89568265D01*
X124064838Y-89593010D01*
X124205405Y-89825535D01*
X124219379Y-89852160D01*
X124330893Y-90099934D01*
X124341555Y-90128049D01*
X124422387Y-90387448D01*
X124429583Y-90416642D01*
X124478560Y-90683899D01*
X124482185Y-90713749D01*
X124499046Y-90992494D01*
X124499500Y-91007528D01*
X124499500Y-119992471D01*
X124499046Y-120007505D01*
X124482185Y-120286250D01*
X124478560Y-120316100D01*
X124429583Y-120583357D01*
X124422387Y-120612551D01*
X124341555Y-120871950D01*
X124330893Y-120900065D01*
X124219379Y-121147839D01*
X124205405Y-121174464D01*
X124064838Y-121406989D01*
X124047758Y-121431734D01*
X123880193Y-121645616D01*
X123860254Y-121668123D01*
X123668123Y-121860254D01*
X123645616Y-121880193D01*
X123431734Y-122047758D01*
X123406989Y-122064838D01*
X123174464Y-122205405D01*
X123147839Y-122219379D01*
X122900065Y-122330893D01*
X122871950Y-122341555D01*
X122612551Y-122422387D01*
X122583357Y-122429583D01*
X122316100Y-122478560D01*
X122286250Y-122482185D01*
X122007506Y-122499046D01*
X121992472Y-122499500D01*
X78007528Y-122499500D01*
X77992494Y-122499046D01*
X77713749Y-122482185D01*
X77683899Y-122478560D01*
X77416642Y-122429583D01*
X77387448Y-122422387D01*
X77128049Y-122341555D01*
X77099934Y-122330893D01*
X76852160Y-122219379D01*
X76825535Y-122205405D01*
X76593010Y-122064838D01*
X76568265Y-122047758D01*
X76354383Y-121880193D01*
X76331876Y-121860254D01*
X76139745Y-121668123D01*
X76119806Y-121645616D01*
X75952241Y-121431734D01*
X75935161Y-121406989D01*
X75794594Y-121174464D01*
X75780620Y-121147839D01*
X75669106Y-120900065D01*
X75658444Y-120871950D01*
X75577612Y-120612551D01*
X75570416Y-120583357D01*
X75521437Y-120316088D01*
X75517815Y-120286261D01*
X75500954Y-120007504D01*
X75500500Y-119992471D01*
X75500500Y-119893703D01*
X76649500Y-119893703D01*
X76649500Y-120106296D01*
X76682753Y-120316240D01*
X76747090Y-120514250D01*
X76748443Y-120518412D01*
X76844949Y-120707816D01*
X76969896Y-120879792D01*
X77120208Y-121030104D01*
X77292184Y-121155051D01*
X77481588Y-121251557D01*
X77683757Y-121317246D01*
X77757601Y-121328941D01*
X77893703Y-121350499D01*
X77893710Y-121350499D01*
X77893713Y-121350500D01*
X77893716Y-121350500D01*
X78106284Y-121350500D01*
X78106287Y-121350500D01*
X78106290Y-121350499D01*
X78106296Y-121350499D01*
X78205476Y-121334789D01*
X78316243Y-121317246D01*
X78518412Y-121251557D01*
X78707816Y-121155051D01*
X78879792Y-121030104D01*
X79030104Y-120879792D01*
X79155051Y-120707816D01*
X79251557Y-120518412D01*
X79317246Y-120316243D01*
X79350500Y-120106287D01*
X79350500Y-119893713D01*
X79350499Y-119893710D01*
X79350499Y-119893703D01*
X120649500Y-119893703D01*
X120649500Y-120106296D01*
X120682753Y-120316240D01*
X120747090Y-120514250D01*
X120748443Y-120518412D01*
X120844949Y-120707816D01*
X120969896Y-120879792D01*
X121120208Y-121030104D01*
X121292184Y-121155051D01*
X121481588Y-121251557D01*
X121683757Y-121317246D01*
X121757601Y-121328941D01*
X121893703Y-121350499D01*
X121893710Y-121350499D01*
X121893713Y-121350500D01*
X121893716Y-121350500D01*
X122106284Y-121350500D01*
X122106287Y-121350500D01*
X122106290Y-121350499D01*
X122106296Y-121350499D01*
X122205476Y-121334789D01*
X122316243Y-121317246D01*
X122518412Y-121251557D01*
X122707816Y-121155051D01*
X122879792Y-121030104D01*
X123030104Y-120879792D01*
X123155051Y-120707816D01*
X123251557Y-120518412D01*
X123317246Y-120316243D01*
X123350500Y-120106287D01*
X123350500Y-119893713D01*
X123350499Y-119893710D01*
X123350499Y-119893703D01*
X123317246Y-119683759D01*
X123317246Y-119683757D01*
X123251557Y-119481588D01*
X123155051Y-119292184D01*
X123030104Y-119120208D01*
X122879792Y-118969896D01*
X122707816Y-118844949D01*
X122518412Y-118748443D01*
X122518409Y-118748442D01*
X122518407Y-118748441D01*
X122316240Y-118682753D01*
X122106296Y-118649500D01*
X122106287Y-118649500D01*
X121893713Y-118649500D01*
X121893703Y-118649500D01*
X121683759Y-118682753D01*
X121481592Y-118748441D01*
X121292182Y-118844950D01*
X121120206Y-118969897D01*
X120969897Y-119120206D01*
X120844950Y-119292182D01*
X120748441Y-119481592D01*
X120682753Y-119683759D01*
X120649500Y-119893703D01*
X79350499Y-119893703D01*
X79317246Y-119683759D01*
X79317246Y-119683757D01*
X79251557Y-119481588D01*
X79155051Y-119292184D01*
X79030104Y-119120208D01*
X78879792Y-118969896D01*
X78707816Y-118844949D01*
X78518412Y-118748443D01*
X78518409Y-118748442D01*
X78518407Y-118748441D01*
X78316240Y-118682753D01*
X78106296Y-118649500D01*
X78106287Y-118649500D01*
X77893713Y-118649500D01*
X77893703Y-118649500D01*
X77683759Y-118682753D01*
X77481592Y-118748441D01*
X77292182Y-118844950D01*
X77120206Y-118969897D01*
X76969897Y-119120206D01*
X76844950Y-119292182D01*
X76748441Y-119481592D01*
X76682753Y-119683759D01*
X76649500Y-119893703D01*
X75500500Y-119893703D01*
X75500500Y-117593369D01*
X88974500Y-117593369D01*
X88974500Y-118606630D01*
X88980912Y-118677188D01*
X88980914Y-118677196D01*
X89031522Y-118839608D01*
X89106553Y-118963723D01*
X89119528Y-118985185D01*
X89239815Y-119105472D01*
X89301873Y-119142987D01*
X89385391Y-119193477D01*
X89385393Y-119193477D01*
X89385394Y-119193478D01*
X89547804Y-119244086D01*
X89547808Y-119244086D01*
X89547811Y-119244087D01*
X89618369Y-119250499D01*
X89618377Y-119250499D01*
X89618384Y-119250500D01*
X89618390Y-119250500D01*
X90131610Y-119250500D01*
X90131616Y-119250500D01*
X90131623Y-119250499D01*
X90131630Y-119250499D01*
X90202188Y-119244087D01*
X90202189Y-119244086D01*
X90202196Y-119244086D01*
X90364606Y-119193478D01*
X90510185Y-119105472D01*
X90630472Y-118985185D01*
X90705503Y-118861067D01*
X90718477Y-118839608D01*
X90718478Y-118839606D01*
X90769086Y-118677196D01*
X90775500Y-118606616D01*
X90775500Y-117593384D01*
X90775499Y-117593369D01*
X95274500Y-117593369D01*
X95274500Y-118606630D01*
X95280912Y-118677188D01*
X95280914Y-118677196D01*
X95331522Y-118839608D01*
X95406553Y-118963723D01*
X95419528Y-118985185D01*
X95539815Y-119105472D01*
X95601873Y-119142987D01*
X95685391Y-119193477D01*
X95685393Y-119193477D01*
X95685394Y-119193478D01*
X95847804Y-119244086D01*
X95847808Y-119244086D01*
X95847811Y-119244087D01*
X95918369Y-119250499D01*
X95918377Y-119250499D01*
X95918384Y-119250500D01*
X95918390Y-119250500D01*
X96431610Y-119250500D01*
X96431616Y-119250500D01*
X96431623Y-119250499D01*
X96431630Y-119250499D01*
X96502188Y-119244087D01*
X96502189Y-119244086D01*
X96502196Y-119244086D01*
X96664606Y-119193478D01*
X96810185Y-119105472D01*
X96930472Y-118985185D01*
X97005503Y-118861067D01*
X97018477Y-118839608D01*
X97018478Y-118839606D01*
X97069086Y-118677196D01*
X97075500Y-118606616D01*
X97075500Y-117593384D01*
X97075499Y-117593369D01*
X101574500Y-117593369D01*
X101574500Y-118606630D01*
X101580912Y-118677188D01*
X101580914Y-118677196D01*
X101631522Y-118839608D01*
X101706553Y-118963723D01*
X101719528Y-118985185D01*
X101839815Y-119105472D01*
X101901873Y-119142987D01*
X101985391Y-119193477D01*
X101985393Y-119193477D01*
X101985394Y-119193478D01*
X102147804Y-119244086D01*
X102147808Y-119244086D01*
X102147811Y-119244087D01*
X102218369Y-119250499D01*
X102218377Y-119250499D01*
X102218384Y-119250500D01*
X102218390Y-119250500D01*
X102731610Y-119250500D01*
X102731616Y-119250500D01*
X102731623Y-119250499D01*
X102731630Y-119250499D01*
X102802188Y-119244087D01*
X102802189Y-119244086D01*
X102802196Y-119244086D01*
X102964606Y-119193478D01*
X103110185Y-119105472D01*
X103230472Y-118985185D01*
X103305503Y-118861067D01*
X103318477Y-118839608D01*
X103318478Y-118839606D01*
X103369086Y-118677196D01*
X103375500Y-118606616D01*
X103375500Y-117593384D01*
X103375499Y-117593369D01*
X107874500Y-117593369D01*
X107874500Y-118606630D01*
X107880912Y-118677188D01*
X107880914Y-118677196D01*
X107931522Y-118839608D01*
X108006553Y-118963723D01*
X108019528Y-118985185D01*
X108139815Y-119105472D01*
X108201873Y-119142987D01*
X108285391Y-119193477D01*
X108285393Y-119193477D01*
X108285394Y-119193478D01*
X108447804Y-119244086D01*
X108447808Y-119244086D01*
X108447811Y-119244087D01*
X108518369Y-119250499D01*
X108518377Y-119250499D01*
X108518384Y-119250500D01*
X108518390Y-119250500D01*
X109031610Y-119250500D01*
X109031616Y-119250500D01*
X109031623Y-119250499D01*
X109031630Y-119250499D01*
X109102188Y-119244087D01*
X109102189Y-119244086D01*
X109102196Y-119244086D01*
X109264606Y-119193478D01*
X109410185Y-119105472D01*
X109530472Y-118985185D01*
X109605503Y-118861067D01*
X109618477Y-118839608D01*
X109618478Y-118839606D01*
X109669086Y-118677196D01*
X109675500Y-118606616D01*
X109675500Y-117593384D01*
X109669086Y-117522804D01*
X109618478Y-117360394D01*
X109618477Y-117360393D01*
X109618477Y-117360391D01*
X109567987Y-117276873D01*
X109530472Y-117214815D01*
X109410185Y-117094528D01*
X109370716Y-117070668D01*
X109264608Y-117006522D01*
X109102196Y-116955914D01*
X109102188Y-116955912D01*
X109031630Y-116949500D01*
X109031616Y-116949500D01*
X108518384Y-116949500D01*
X108518369Y-116949500D01*
X108447811Y-116955912D01*
X108447803Y-116955914D01*
X108285391Y-117006522D01*
X108139816Y-117094527D01*
X108019527Y-117214816D01*
X107931522Y-117360391D01*
X107880914Y-117522803D01*
X107880912Y-117522811D01*
X107874500Y-117593369D01*
X103375499Y-117593369D01*
X103369086Y-117522804D01*
X103318478Y-117360394D01*
X103318477Y-117360393D01*
X103318477Y-117360391D01*
X103267987Y-117276873D01*
X103230472Y-117214815D01*
X103110185Y-117094528D01*
X103070716Y-117070668D01*
X102964608Y-117006522D01*
X102802196Y-116955914D01*
X102802188Y-116955912D01*
X102731630Y-116949500D01*
X102731616Y-116949500D01*
X102218384Y-116949500D01*
X102218369Y-116949500D01*
X102147811Y-116955912D01*
X102147803Y-116955914D01*
X101985391Y-117006522D01*
X101839816Y-117094527D01*
X101719527Y-117214816D01*
X101631522Y-117360391D01*
X101580914Y-117522803D01*
X101580912Y-117522811D01*
X101574500Y-117593369D01*
X97075499Y-117593369D01*
X97069086Y-117522804D01*
X97018478Y-117360394D01*
X97018477Y-117360393D01*
X97018477Y-117360391D01*
X96967987Y-117276873D01*
X96930472Y-117214815D01*
X96810185Y-117094528D01*
X96770716Y-117070668D01*
X96664608Y-117006522D01*
X96502196Y-116955914D01*
X96502188Y-116955912D01*
X96431630Y-116949500D01*
X96431616Y-116949500D01*
X95918384Y-116949500D01*
X95918369Y-116949500D01*
X95847811Y-116955912D01*
X95847803Y-116955914D01*
X95685391Y-117006522D01*
X95539816Y-117094527D01*
X95419527Y-117214816D01*
X95331522Y-117360391D01*
X95280914Y-117522803D01*
X95280912Y-117522811D01*
X95274500Y-117593369D01*
X90775499Y-117593369D01*
X90769086Y-117522804D01*
X90718478Y-117360394D01*
X90718477Y-117360393D01*
X90718477Y-117360391D01*
X90667987Y-117276873D01*
X90630472Y-117214815D01*
X90510185Y-117094528D01*
X90470716Y-117070668D01*
X90364608Y-117006522D01*
X90202196Y-116955914D01*
X90202188Y-116955912D01*
X90131630Y-116949500D01*
X90131616Y-116949500D01*
X89618384Y-116949500D01*
X89618369Y-116949500D01*
X89547811Y-116955912D01*
X89547803Y-116955914D01*
X89385391Y-117006522D01*
X89239816Y-117094527D01*
X89119527Y-117214816D01*
X89031522Y-117360391D01*
X88980914Y-117522803D01*
X88980912Y-117522811D01*
X88974500Y-117593369D01*
X75500500Y-117593369D01*
X75500500Y-91007528D01*
X75500954Y-90992495D01*
X75504626Y-90931782D01*
X75506929Y-90893703D01*
X76649500Y-90893703D01*
X76649500Y-91106296D01*
X76682753Y-91316240D01*
X76682754Y-91316243D01*
X76748443Y-91518412D01*
X76844949Y-91707816D01*
X76969896Y-91879792D01*
X77120208Y-92030104D01*
X77292184Y-92155051D01*
X77481588Y-92251557D01*
X77683757Y-92317246D01*
X77757601Y-92328941D01*
X77893703Y-92350499D01*
X77893710Y-92350499D01*
X77893713Y-92350500D01*
X77893716Y-92350500D01*
X78106284Y-92350500D01*
X78106287Y-92350500D01*
X78106290Y-92350499D01*
X78106296Y-92350499D01*
X78205476Y-92334789D01*
X78316243Y-92317246D01*
X78518412Y-92251557D01*
X78707816Y-92155051D01*
X78879792Y-92030104D01*
X79030104Y-91879792D01*
X79155051Y-91707816D01*
X79251557Y-91518412D01*
X79317246Y-91316243D01*
X79339250Y-91177317D01*
X79350499Y-91106296D01*
X79350500Y-91106284D01*
X79350500Y-90893715D01*
X79350499Y-90893703D01*
X79328941Y-90757601D01*
X79317246Y-90683757D01*
X79251557Y-90481588D01*
X79155051Y-90292184D01*
X79030104Y-90120208D01*
X78879792Y-89969896D01*
X78707816Y-89844949D01*
X78518412Y-89748443D01*
X78518409Y-89748442D01*
X78518407Y-89748441D01*
X78316240Y-89682753D01*
X78106296Y-89649500D01*
X78106287Y-89649500D01*
X77893713Y-89649500D01*
X77893703Y-89649500D01*
X77683759Y-89682753D01*
X77481592Y-89748441D01*
X77292182Y-89844950D01*
X77120206Y-89969897D01*
X76969897Y-90120206D01*
X76844950Y-90292182D01*
X76748441Y-90481592D01*
X76682753Y-90683759D01*
X76649500Y-90893703D01*
X75506929Y-90893703D01*
X75517815Y-90713736D01*
X75521437Y-90683913D01*
X75570418Y-90416632D01*
X75577609Y-90387457D01*
X75658448Y-90128037D01*
X75669101Y-90099945D01*
X75780626Y-89852147D01*
X75794589Y-89825543D01*
X75935161Y-89593010D01*
X75952241Y-89568265D01*
X75984802Y-89526704D01*
X76119813Y-89354374D01*
X76139737Y-89331884D01*
X76331884Y-89139737D01*
X76354374Y-89119813D01*
X76568268Y-88952238D01*
X76593010Y-88935161D01*
X76630926Y-88912240D01*
X76825543Y-88794589D01*
X76852147Y-88780626D01*
X77099945Y-88669101D01*
X77128037Y-88658448D01*
X77387457Y-88577609D01*
X77416632Y-88570418D01*
X77683913Y-88521437D01*
X77713736Y-88517815D01*
X77980895Y-88501655D01*
X77992495Y-88500954D01*
X78007528Y-88500500D01*
X78065892Y-88500500D01*
X82183476Y-88500500D01*
X82278764Y-88519454D01*
G37*
%TD.AperFunction*%
%TD*%
%TA.AperFunction,Conductor*%
%TO.N,+5V*%
G36*
X88500000Y-90700000D02*
G01*
X84000000Y-90700000D01*
X83853558Y-90846441D01*
X83853554Y-90846445D01*
X83853547Y-90846451D01*
X83146451Y-91553547D01*
X83146445Y-91553554D01*
X83146441Y-91553558D01*
X83000000Y-91700000D01*
X83000000Y-91907107D01*
X83000000Y-91907113D01*
X83000000Y-92984767D01*
X82998939Y-93000953D01*
X82985093Y-93106117D01*
X82976715Y-93137383D01*
X82939260Y-93227808D01*
X82923075Y-93255842D01*
X82858496Y-93340003D01*
X82847801Y-93352198D01*
X79146451Y-97053547D01*
X79146445Y-97053554D01*
X79146441Y-97053558D01*
X79000000Y-97200000D01*
X79000000Y-97407107D01*
X79000000Y-97407113D01*
X79000000Y-116491874D01*
X78998939Y-116508060D01*
X78985093Y-116613224D01*
X78976715Y-116644491D01*
X78939259Y-116734918D01*
X78923074Y-116762951D01*
X78863491Y-116840601D01*
X78840601Y-116863491D01*
X78762951Y-116923074D01*
X78734918Y-116939259D01*
X78644491Y-116976715D01*
X78613224Y-116985093D01*
X78519398Y-116997446D01*
X78508058Y-116998939D01*
X78491874Y-117000000D01*
X77508126Y-117000000D01*
X77491941Y-116998939D01*
X77478917Y-116997224D01*
X77386775Y-116985093D01*
X77355508Y-116976715D01*
X77265081Y-116939259D01*
X77237048Y-116923074D01*
X77159398Y-116863491D01*
X77136508Y-116840601D01*
X77076925Y-116762951D01*
X77060740Y-116734918D01*
X77023284Y-116644491D01*
X77014906Y-116613223D01*
X77001061Y-116508059D01*
X77000000Y-116491874D01*
X77000000Y-96715232D01*
X77001061Y-96699047D01*
X77014906Y-96593883D01*
X77023284Y-96562616D01*
X77060739Y-96472191D01*
X77076924Y-96444157D01*
X77141503Y-96359996D01*
X77152190Y-96347809D01*
X80853553Y-92646447D01*
X81000000Y-92500000D01*
X81000000Y-91215232D01*
X81001061Y-91199047D01*
X81014906Y-91093883D01*
X81023284Y-91062616D01*
X81060739Y-90972191D01*
X81076924Y-90944157D01*
X81141503Y-90859996D01*
X81152190Y-90847809D01*
X82847809Y-89152190D01*
X82859996Y-89141503D01*
X82944157Y-89076924D01*
X82972191Y-89060739D01*
X83062616Y-89023284D01*
X83093882Y-89014906D01*
X83199048Y-89001061D01*
X83215233Y-89000000D01*
X88500000Y-89000000D01*
X88500000Y-90700000D01*
G37*
%TD.AperFunction*%
%TD*%
%TA.AperFunction,Conductor*%
%TO.N,+5V*%
G36*
X117800952Y-89001061D02*
G01*
X117906116Y-89014906D01*
X117937383Y-89023284D01*
X118027808Y-89060739D01*
X118055842Y-89076924D01*
X118140003Y-89141503D01*
X118152198Y-89152198D01*
X118847801Y-89847801D01*
X118858496Y-89859996D01*
X118923075Y-89944157D01*
X118939260Y-89972191D01*
X118976715Y-90062616D01*
X118985093Y-90093882D01*
X118998939Y-90199046D01*
X119000000Y-90215232D01*
X119000000Y-92000000D01*
X119146445Y-92146445D01*
X119146451Y-92146452D01*
X120353547Y-93353548D01*
X120353554Y-93353554D01*
X120500000Y-93500000D01*
X121284767Y-93500000D01*
X121300952Y-93501061D01*
X121406116Y-93514906D01*
X121437383Y-93523284D01*
X121527808Y-93560739D01*
X121555842Y-93576924D01*
X121640003Y-93641503D01*
X121652198Y-93652198D01*
X122347801Y-94347801D01*
X122358496Y-94359996D01*
X122423075Y-94444157D01*
X122439260Y-94472191D01*
X122476715Y-94562616D01*
X122485093Y-94593882D01*
X122498939Y-94699046D01*
X122500000Y-94715232D01*
X122500000Y-98291874D01*
X122498939Y-98308060D01*
X122485093Y-98413224D01*
X122476715Y-98444491D01*
X122439259Y-98534918D01*
X122423074Y-98562951D01*
X122363491Y-98640601D01*
X122340601Y-98663491D01*
X122262951Y-98723074D01*
X122234918Y-98739259D01*
X122144491Y-98776715D01*
X122113224Y-98785093D01*
X122019398Y-98797446D01*
X122008058Y-98798939D01*
X121991874Y-98800000D01*
X119908126Y-98800000D01*
X119891941Y-98798939D01*
X119878917Y-98797224D01*
X119786775Y-98785093D01*
X119755508Y-98776715D01*
X119665081Y-98739259D01*
X119637048Y-98723074D01*
X119559398Y-98663491D01*
X119536508Y-98640601D01*
X119476925Y-98562951D01*
X119460740Y-98534918D01*
X119423284Y-98444491D01*
X119414906Y-98413223D01*
X119401061Y-98308059D01*
X119400000Y-98291874D01*
X119400000Y-98208125D01*
X119401061Y-98191940D01*
X119414906Y-98086776D01*
X119423284Y-98055508D01*
X119460740Y-97965081D01*
X119476923Y-97937050D01*
X119536513Y-97859392D01*
X119559392Y-97836513D01*
X119637050Y-97776923D01*
X119665079Y-97760740D01*
X119755509Y-97723283D01*
X119786775Y-97714906D01*
X119891941Y-97701061D01*
X119908126Y-97700000D01*
X120392886Y-97700000D01*
X120392893Y-97700000D01*
X120600000Y-97700000D01*
X121000000Y-97300000D01*
X121000000Y-95400000D01*
X120853554Y-95253554D01*
X120853548Y-95253547D01*
X120746452Y-95146451D01*
X120746445Y-95146445D01*
X120600000Y-95000000D01*
X120392893Y-95000000D01*
X120392886Y-95000000D01*
X120215233Y-95000000D01*
X120199048Y-94998939D01*
X120186024Y-94997224D01*
X120093882Y-94985093D01*
X120062616Y-94976715D01*
X119972191Y-94939260D01*
X119944157Y-94923075D01*
X119859996Y-94858496D01*
X119847801Y-94847801D01*
X117652198Y-92652198D01*
X117641503Y-92640003D01*
X117576924Y-92555842D01*
X117560739Y-92527808D01*
X117523284Y-92437383D01*
X117514906Y-92406116D01*
X117501061Y-92300952D01*
X117500000Y-92284767D01*
X117500000Y-91207113D01*
X117500000Y-91207107D01*
X117500000Y-91000000D01*
X117353554Y-90853554D01*
X117353548Y-90853547D01*
X117146452Y-90646451D01*
X117146445Y-90646445D01*
X117000000Y-90500000D01*
X116792893Y-90500000D01*
X116792886Y-90500000D01*
X110084307Y-90500000D01*
X110077316Y-90499500D01*
X110071961Y-90499500D01*
X109928039Y-90499500D01*
X109922684Y-90499500D01*
X109915693Y-90500000D01*
X109781025Y-90500000D01*
X109600000Y-90500000D01*
X109460933Y-90615888D01*
X109460931Y-90615890D01*
X109179909Y-90850075D01*
X109000000Y-91000000D01*
X109000000Y-89000000D01*
X117784767Y-89000000D01*
X117800952Y-89001061D01*
G37*
%TD.AperFunction*%
%TD*%
%TA.AperFunction,Conductor*%
%TO.N,+5V*%
G36*
X92508059Y-89001061D02*
G01*
X92613223Y-89014906D01*
X92644491Y-89023284D01*
X92734918Y-89060740D01*
X92762952Y-89076925D01*
X92840602Y-89136509D01*
X92863491Y-89159398D01*
X92923074Y-89237048D01*
X92939259Y-89265081D01*
X92976715Y-89355508D01*
X92985093Y-89386775D01*
X92998439Y-89488141D01*
X92999500Y-89504327D01*
X92999500Y-108107319D01*
X92999684Y-108109892D01*
X93000000Y-108118738D01*
X93000000Y-108700000D01*
X93146445Y-108846445D01*
X93146451Y-108846452D01*
X93653547Y-109353548D01*
X93653554Y-109353554D01*
X93800000Y-109500000D01*
X94007114Y-109500000D01*
X94381265Y-109500000D01*
X94390113Y-109500316D01*
X94392679Y-109500499D01*
X94392682Y-109500500D01*
X94392685Y-109500500D01*
X105607315Y-109500500D01*
X105607318Y-109500500D01*
X105607320Y-109500499D01*
X105609887Y-109500316D01*
X105618735Y-109500000D01*
X105992886Y-109500000D01*
X105992893Y-109500000D01*
X106200000Y-109500000D01*
X107000000Y-108700000D01*
X107000000Y-108118738D01*
X107000316Y-108109892D01*
X107000500Y-108107319D01*
X107000500Y-89504327D01*
X107001561Y-89488142D01*
X107014906Y-89386776D01*
X107023284Y-89355508D01*
X107060740Y-89265081D01*
X107076923Y-89237050D01*
X107136513Y-89159392D01*
X107159392Y-89136513D01*
X107237050Y-89076923D01*
X107265079Y-89060740D01*
X107355509Y-89023283D01*
X107386775Y-89014906D01*
X107491941Y-89001061D01*
X107508126Y-89000000D01*
X109000000Y-89000000D01*
X109000000Y-91234187D01*
X109000000Y-91234192D01*
X109000000Y-109484767D01*
X108998939Y-109500953D01*
X108985093Y-109606117D01*
X108976715Y-109637383D01*
X108939260Y-109727808D01*
X108923075Y-109755842D01*
X108858496Y-109840003D01*
X108847801Y-109852198D01*
X107352198Y-111347801D01*
X107340003Y-111358496D01*
X107255842Y-111423075D01*
X107227808Y-111439260D01*
X107137383Y-111476715D01*
X107106117Y-111485093D01*
X107012291Y-111497446D01*
X107000951Y-111498939D01*
X106984767Y-111500000D01*
X93015233Y-111500000D01*
X92999048Y-111498939D01*
X92986024Y-111497224D01*
X92893882Y-111485093D01*
X92862616Y-111476715D01*
X92772191Y-111439260D01*
X92744157Y-111423075D01*
X92659996Y-111358496D01*
X92647801Y-111347801D01*
X91152198Y-109852198D01*
X91141503Y-109840003D01*
X91076924Y-109755842D01*
X91060739Y-109727808D01*
X91023284Y-109637383D01*
X91014906Y-109606116D01*
X91001061Y-109500952D01*
X91000000Y-109484767D01*
X91000000Y-91907113D01*
X91000000Y-91907107D01*
X91000000Y-91700000D01*
X90853554Y-91553554D01*
X90853548Y-91553547D01*
X90146452Y-90846451D01*
X90146445Y-90846445D01*
X90000000Y-90700000D01*
X89792893Y-90700000D01*
X89792886Y-90700000D01*
X88500000Y-90700000D01*
X88500000Y-89000000D01*
X92491874Y-89000000D01*
X92508059Y-89001061D01*
G37*
%TD.AperFunction*%
%TD*%
M02*
