%TF.GenerationSoftware,KiCad,Pcbnew,8.0.4*%
%TF.CreationDate,2024-08-10T16:38:39+08:00*%
%TF.ProjectId,mai-pico-nano-touch,6d61692d-7069-4636-9f2d-6e616e6f2d74,rev?*%
%TF.SameCoordinates,Original*%
%TF.FileFunction,Soldermask,Top*%
%TF.FilePolarity,Negative*%
%FSLAX46Y46*%
G04 Gerber Fmt 4.6, Leading zero omitted, Abs format (unit mm)*
G04 Created by KiCad (PCBNEW 8.0.4) date 2024-08-10 16:38:39*
%MOMM*%
%LPD*%
G01*
G04 APERTURE LIST*
G04 Aperture macros list*
%AMRoundRect*
0 Rectangle with rounded corners*
0 $1 Rounding radius*
0 $2 $3 $4 $5 $6 $7 $8 $9 X,Y pos of 4 corners*
0 Add a 4 corners polygon primitive as box body*
4,1,4,$2,$3,$4,$5,$6,$7,$8,$9,$2,$3,0*
0 Add four circle primitives for the rounded corners*
1,1,$1+$1,$2,$3*
1,1,$1+$1,$4,$5*
1,1,$1+$1,$6,$7*
1,1,$1+$1,$8,$9*
0 Add four rect primitives between the rounded corners*
20,1,$1+$1,$2,$3,$4,$5,0*
20,1,$1+$1,$4,$5,$6,$7,0*
20,1,$1+$1,$6,$7,$8,$9,0*
20,1,$1+$1,$8,$9,$2,$3,0*%
G04 Aperture macros list end*
%ADD10RoundRect,0.375000X-0.375000X-0.875000X0.375000X-0.875000X0.375000X0.875000X-0.375000X0.875000X0*%
%ADD11C,2.200000*%
%ADD12RoundRect,0.200000X-0.450000X0.200000X-0.450000X-0.200000X0.450000X-0.200000X0.450000X0.200000X0*%
%ADD13O,1.300000X0.800000*%
G04 APERTURE END LIST*
D10*
%TO.C,U1*%
X144570000Y-74500000D03*
X142030000Y-74500000D03*
X139490000Y-74500000D03*
X136950000Y-74500000D03*
X134410000Y-74500000D03*
X131870000Y-74500000D03*
X129330000Y-74500000D03*
X126790000Y-74500000D03*
X124250000Y-74500000D03*
X121710000Y-74500000D03*
X119170000Y-74500000D03*
X116630000Y-74500000D03*
X136950000Y-93500000D03*
X134410000Y-93500000D03*
X131870000Y-93500000D03*
X129330000Y-93500000D03*
X126790000Y-93500000D03*
X124250000Y-93500000D03*
%TD*%
%TO.C,U2*%
X113970000Y-74500000D03*
X111430000Y-74500000D03*
X108890000Y-74500000D03*
X106350000Y-74500000D03*
X103810000Y-74500000D03*
X101270000Y-74500000D03*
X98730000Y-74500000D03*
X96190000Y-74500000D03*
X93650000Y-74500000D03*
X91110000Y-74500000D03*
X88570000Y-74500000D03*
X86030000Y-74500000D03*
X106350000Y-93500000D03*
X103810000Y-93500000D03*
X101270000Y-93500000D03*
X98730000Y-93500000D03*
X96190000Y-93500000D03*
X93650000Y-93500000D03*
%TD*%
D11*
%TO.C,REF\u002A\u002A*%
X51400000Y-92000000D03*
%TD*%
D10*
%TO.C,U3*%
X83370000Y-74500000D03*
X80830000Y-74500000D03*
X78290000Y-74500000D03*
X75750000Y-74500000D03*
X73210000Y-74500000D03*
X70670000Y-74500000D03*
X68130000Y-74500000D03*
X65590000Y-74500000D03*
X63050000Y-74500000D03*
X60510000Y-74500000D03*
X57970000Y-74500000D03*
X55430000Y-74500000D03*
X75750000Y-93500000D03*
X73210000Y-93500000D03*
X70670000Y-93500000D03*
X68130000Y-93500000D03*
X65590000Y-93500000D03*
X63050000Y-93500000D03*
%TD*%
D11*
%TO.C,REF\u002A\u002A*%
X148100000Y-76000000D03*
%TD*%
D12*
%TO.C,J1*%
X51700000Y-82125000D03*
D13*
X51700000Y-83375000D03*
X51700000Y-84625000D03*
X51700000Y-85875000D03*
%TD*%
D11*
%TO.C,REF\u002A\u002A*%
X51400000Y-76000000D03*
%TD*%
%TO.C,REF\u002A\u002A*%
X148000000Y-92000000D03*
%TD*%
%TO.C,REF\u002A\u002A*%
X148000000Y-84000000D03*
%TD*%
M02*
