M48
; DRILL file {KiCad 8.0.4} date 2024-08-10T16:38:37+0800
; FORMAT={-:-/ absolute / inch / decimal}
; #@! TF.CreationDate,2024-08-10T16:38:37+08:00
; #@! TF.GenerationSoftware,Kicad,Pcbnew,8.0.4
; #@! TF.FileFunction,Plated,1,2,PTH
FMAT,2
INCH
; #@! TA.AperFunction,Plated,PTH,ViaDrill
T1C0.0118
; #@! TA.AperFunction,Plated,PTH,ComponentDrill
T2C0.0197
%
G90
G05
T1
X2.0079Y-3.4252
X2.0079Y-3.4646
X2.0079Y-3.5039
X2.0079Y-3.7402
X2.0472Y-3.4252
X2.0472Y-3.4646
X2.0472Y-3.5039
X2.0866Y-3.4252
X2.0866Y-3.4646
X2.0866Y-3.5039
X2.0866Y-3.5827
X2.0866Y-3.6614
X2.0866Y-3.7402
X2.1654Y-3.6614
X2.1654Y-3.7402
X2.2441Y-3.7008
X2.2441Y-3.7402
X2.2835Y-3.7008
X2.2835Y-3.7402
X2.3228Y-3.7008
X2.3228Y-3.7402
X2.3622Y-3.7008
X2.3622Y-3.7402
X2.4803Y-3.6319
X2.6811Y-3.5354
X2.6811Y-3.5906
X2.9823Y-3.6811
X2.998Y-3.4252
X3.061Y-3.3858
X3.124Y-3.3465
X3.187Y-3.3071
X3.25Y-3.2677
X3.313Y-3.2283
X3.376Y-3.189
X3.3858Y-3.0118
X3.439Y-3.1496
X3.4882Y-2.9823
X3.502Y-3.1102
X3.565Y-3.0709
X3.5866Y-2.9429
X3.687Y-2.9035
X3.6909Y-3.6319
X3.7874Y-2.9035
X3.8858Y-3.5354
X3.8858Y-3.5906
X3.9429Y-3.0709
X4.0059Y-3.0709
X4.0689Y-3.0709
X4.0846Y-3.6319
X4.1319Y-3.0709
X4.1929Y-3.6811
X4.2854Y-2.9035
X4.3858Y-2.9035
X4.4862Y-2.9429
X4.5098Y-3.0709
X4.5728Y-3.1102
X4.5906Y-2.9823
X4.6358Y-3.1496
X4.6909Y-3.0118
X4.6988Y-3.189
X4.7618Y-3.2283
X4.8248Y-3.2677
X4.8878Y-3.3071
X4.8917Y-3.6319
X4.9508Y-3.3465
X5.0138Y-3.3858
X5.0768Y-3.4252
X5.0906Y-3.5354
X5.0906Y-3.5354
X5.0906Y-3.5906
X5.3937Y-3.6811
T2
X2.0354Y-3.2333
X2.0354Y-3.2825
X2.0354Y-3.3317
X2.0354Y-3.3809
M30
