%TF.GenerationSoftware,KiCad,Pcbnew,8.0.4*%
%TF.CreationDate,2024-08-10T16:38:39+08:00*%
%TF.ProjectId,mai-pico-nano-touch,6d61692d-7069-4636-9f2d-6e616e6f2d74,rev?*%
%TF.SameCoordinates,Original*%
%TF.FileFunction,Copper,L1,Top*%
%TF.FilePolarity,Positive*%
%FSLAX46Y46*%
G04 Gerber Fmt 4.6, Leading zero omitted, Abs format (unit mm)*
G04 Created by KiCad (PCBNEW 8.0.4) date 2024-08-10 16:38:39*
%MOMM*%
%LPD*%
G01*
G04 APERTURE LIST*
G04 Aperture macros list*
%AMRoundRect*
0 Rectangle with rounded corners*
0 $1 Rounding radius*
0 $2 $3 $4 $5 $6 $7 $8 $9 X,Y pos of 4 corners*
0 Add a 4 corners polygon primitive as box body*
4,1,4,$2,$3,$4,$5,$6,$7,$8,$9,$2,$3,0*
0 Add four circle primitives for the rounded corners*
1,1,$1+$1,$2,$3*
1,1,$1+$1,$4,$5*
1,1,$1+$1,$6,$7*
1,1,$1+$1,$8,$9*
0 Add four rect primitives between the rounded corners*
20,1,$1+$1,$2,$3,$4,$5,0*
20,1,$1+$1,$4,$5,$6,$7,0*
20,1,$1+$1,$6,$7,$8,$9,0*
20,1,$1+$1,$8,$9,$2,$3,0*%
G04 Aperture macros list end*
%TA.AperFunction,SMDPad,CuDef*%
%ADD10RoundRect,0.375000X-0.375000X-0.875000X0.375000X-0.875000X0.375000X0.875000X-0.375000X0.875000X0*%
%TD*%
%TA.AperFunction,ComponentPad*%
%ADD11RoundRect,0.200000X-0.450000X0.200000X-0.450000X-0.200000X0.450000X-0.200000X0.450000X0.200000X0*%
%TD*%
%TA.AperFunction,ComponentPad*%
%ADD12O,1.300000X0.800000*%
%TD*%
%TA.AperFunction,ViaPad*%
%ADD13C,0.600000*%
%TD*%
%TA.AperFunction,Conductor*%
%ADD14C,0.250000*%
%TD*%
%TA.AperFunction,Conductor*%
%ADD15C,0.150000*%
%TD*%
G04 APERTURE END LIST*
D10*
%TO.P,U1,1,ELE0*%
%TO.N,/E1*%
X144570000Y-74500000D03*
%TO.P,U1,2,ELE1*%
%TO.N,/E2*%
X142030000Y-74500000D03*
%TO.P,U1,3,ELE2*%
%TO.N,/E3*%
X139490000Y-74500000D03*
%TO.P,U1,4,ELE3*%
%TO.N,/E4*%
X136950000Y-74500000D03*
%TO.P,U1,5,ELE4*%
%TO.N,/E5*%
X134410000Y-74500000D03*
%TO.P,U1,6,ELE5*%
%TO.N,/E6*%
X131870000Y-74500000D03*
%TO.P,U1,7,ELE6*%
%TO.N,/E7*%
X129330000Y-74500000D03*
%TO.P,U1,8,ELE7*%
%TO.N,/E8*%
X126790000Y-74500000D03*
%TO.P,U1,9,ELE8*%
%TO.N,/E9*%
X124250000Y-74500000D03*
%TO.P,U1,10,ELE9*%
%TO.N,/E10*%
X121710000Y-74500000D03*
%TO.P,U1,11,ELE10*%
%TO.N,/E11*%
X119170000Y-74500000D03*
%TO.P,U1,12,ELE11*%
%TO.N,/E12*%
X116630000Y-74500000D03*
%TO.P,U1,13,GND*%
%TO.N,GND*%
X136950000Y-93500000D03*
%TO.P,U1,14,ADDR*%
X134410000Y-93500000D03*
%TO.P,U1,15,SDA*%
%TO.N,/SDA*%
X131870000Y-93500000D03*
%TO.P,U1,16,SCL*%
%TO.N,/SCL*%
X129330000Y-93500000D03*
%TO.P,U1,17,IRQ*%
%TO.N,unconnected-(U1-IRQ-Pad17)*%
X126790000Y-93500000D03*
%TO.P,U1,18,VCC*%
%TO.N,VDD*%
X124250000Y-93500000D03*
%TD*%
%TO.P,U2,1,ELE0*%
%TO.N,/E13*%
X113970000Y-74500000D03*
%TO.P,U2,2,ELE1*%
%TO.N,/E14*%
X111430000Y-74500000D03*
%TO.P,U2,3,ELE2*%
%TO.N,/E15*%
X108890000Y-74500000D03*
%TO.P,U2,4,ELE3*%
%TO.N,/E16*%
X106350000Y-74500000D03*
%TO.P,U2,5,ELE4*%
%TO.N,/E17*%
X103810000Y-74500000D03*
%TO.P,U2,6,ELE5*%
%TO.N,/E18*%
X101270000Y-74500000D03*
%TO.P,U2,7,ELE6*%
%TO.N,/E19*%
X98730000Y-74500000D03*
%TO.P,U2,8,ELE7*%
%TO.N,/E20*%
X96190000Y-74500000D03*
%TO.P,U2,9,ELE8*%
%TO.N,/E21*%
X93650000Y-74500000D03*
%TO.P,U2,10,ELE9*%
%TO.N,/E22*%
X91110000Y-74500000D03*
%TO.P,U2,11,ELE10*%
%TO.N,/E23*%
X88570000Y-74500000D03*
%TO.P,U2,12,ELE11*%
%TO.N,/E24*%
X86030000Y-74500000D03*
%TO.P,U2,13,GND*%
%TO.N,GND*%
X106350000Y-93500000D03*
%TO.P,U2,14,ADDR*%
%TO.N,VDD*%
X103810000Y-93500000D03*
%TO.P,U2,15,SDA*%
%TO.N,/SDA*%
X101270000Y-93500000D03*
%TO.P,U2,16,SCL*%
%TO.N,/SCL*%
X98730000Y-93500000D03*
%TO.P,U2,17,IRQ*%
%TO.N,unconnected-(U2-IRQ-Pad17)*%
X96190000Y-93500000D03*
%TO.P,U2,18,VCC*%
%TO.N,VDD*%
X93650000Y-93500000D03*
%TD*%
%TO.P,U3,1,ELE0*%
%TO.N,/E25*%
X83370000Y-74500000D03*
%TO.P,U3,2,ELE1*%
%TO.N,/E26*%
X80830000Y-74500000D03*
%TO.P,U3,3,ELE2*%
%TO.N,/E27*%
X78290000Y-74500000D03*
%TO.P,U3,4,ELE3*%
%TO.N,/E28*%
X75750000Y-74500000D03*
%TO.P,U3,5,ELE4*%
%TO.N,/E29*%
X73210000Y-74500000D03*
%TO.P,U3,6,ELE5*%
%TO.N,/E30*%
X70670000Y-74500000D03*
%TO.P,U3,7,ELE6*%
%TO.N,/E31*%
X68130000Y-74500000D03*
%TO.P,U3,8,ELE7*%
%TO.N,/E32*%
X65590000Y-74500000D03*
%TO.P,U3,9,ELE8*%
%TO.N,/E33*%
X63050000Y-74500000D03*
%TO.P,U3,10,ELE9*%
%TO.N,/E34*%
X60510000Y-74500000D03*
%TO.P,U3,11,ELE10*%
%TO.N,unconnected-(U3-ELE10-Pad11)*%
X57970000Y-74500000D03*
%TO.P,U3,12,ELE11*%
%TO.N,unconnected-(U3-ELE11-Pad12)*%
X55430000Y-74500000D03*
%TO.P,U3,13,GND*%
%TO.N,GND*%
X75750000Y-93500000D03*
%TO.P,U3,14,ADDR*%
%TO.N,/SDA*%
X73210000Y-93500000D03*
%TO.P,U3,15,SDA*%
X70670000Y-93500000D03*
%TO.P,U3,16,SCL*%
%TO.N,/SCL*%
X68130000Y-93500000D03*
%TO.P,U3,17,IRQ*%
%TO.N,unconnected-(U3-IRQ-Pad17)*%
X65590000Y-93500000D03*
%TO.P,U3,18,VCC*%
%TO.N,VDD*%
X63050000Y-93500000D03*
%TD*%
D11*
%TO.P,J1,1,Pin_1*%
%TO.N,/SCL*%
X51700000Y-82125000D03*
D12*
%TO.P,J1,2,Pin_2*%
%TO.N,/SDA*%
X51700000Y-83375000D03*
%TO.P,J1,3,Pin_3*%
%TO.N,VDD*%
X51700000Y-84625000D03*
%TO.P,J1,4,Pin_4*%
%TO.N,GND*%
X51700000Y-85875000D03*
%TD*%
D13*
%TO.N,/SCL*%
X129300000Y-91200000D03*
X129300000Y-89800000D03*
X129300000Y-89800000D03*
X68100000Y-89800000D03*
X98700000Y-89800000D03*
X98700000Y-91200000D03*
X68100000Y-91200000D03*
%TO.N,VDD*%
X124250000Y-92250000D03*
X93750000Y-92250000D03*
X103750000Y-92250000D03*
X63000000Y-92250000D03*
%TO.N,GND*%
X51000000Y-88000000D03*
X57000000Y-94000000D03*
X53000000Y-93000000D03*
X58000000Y-95000000D03*
X137000000Y-93500000D03*
X55000000Y-93000000D03*
X52000000Y-88000000D03*
X106500000Y-93500000D03*
X53000000Y-88000000D03*
X57000000Y-95000000D03*
X51000000Y-89000000D03*
X55000000Y-95000000D03*
X53000000Y-87000000D03*
X51000000Y-87000000D03*
X59000000Y-95000000D03*
X53000000Y-89000000D03*
X51000000Y-95000000D03*
X75750000Y-93500000D03*
X58000000Y-94000000D03*
X60000000Y-95000000D03*
X53000000Y-95000000D03*
X52000000Y-87000000D03*
X53000000Y-91000000D03*
X60000000Y-94000000D03*
X52000000Y-89000000D03*
X59000000Y-94000000D03*
%TO.N,/E19*%
X100150000Y-78000000D03*
%TO.N,/E2*%
X127350000Y-86000000D03*
%TO.N,/E16*%
X104950000Y-78000000D03*
%TO.N,/E27*%
X87350000Y-80000000D03*
%TO.N,/E5*%
X122550000Y-83000000D03*
%TO.N,/E22*%
X91100000Y-74750000D03*
%TO.N,/E4*%
X124150000Y-84000000D03*
%TO.N,/E7*%
X119350000Y-81000000D03*
%TO.N,/E33*%
X77750000Y-86000000D03*
%TO.N,/E21*%
X93650000Y-73750000D03*
%TO.N,/E3*%
X125750000Y-85000000D03*
%TO.N,/E20*%
X96200000Y-73750000D03*
%TO.N,/E1*%
X128950000Y-87000000D03*
%TO.N,/E34*%
X76150000Y-87000000D03*
%TO.N,/E24*%
X86000000Y-76500000D03*
%TO.N,/E18*%
X101750000Y-78000000D03*
%TO.N,/E12*%
X116600000Y-75750000D03*
%TO.N,/E25*%
X90550000Y-78000000D03*
%TO.N,/E14*%
X111400000Y-73750000D03*
%TO.N,/E9*%
X116150000Y-79000000D03*
%TO.N,/E8*%
X117750000Y-80000000D03*
%TO.N,/E15*%
X108850000Y-73750000D03*
%TO.N,/E23*%
X88600000Y-75750000D03*
%TO.N,/E17*%
X103350000Y-78000000D03*
%TO.N,/E6*%
X120950000Y-82000000D03*
%TO.N,/E10*%
X114550000Y-78000000D03*
%TO.N,/E32*%
X79350000Y-85000000D03*
%TO.N,/E28*%
X85750000Y-81000000D03*
%TO.N,/E11*%
X119150000Y-76500000D03*
%TO.N,/E31*%
X80950000Y-84000000D03*
%TO.N,/E29*%
X84150000Y-82000000D03*
%TO.N,/E30*%
X82550000Y-83000000D03*
%TO.N,/E26*%
X88950000Y-79000000D03*
%TO.N,/E13*%
X113950000Y-74750000D03*
%TD*%
D14*
%TO.N,/SDA*%
X131870001Y-92980000D02*
X131870001Y-90870001D01*
X70670001Y-92980000D02*
X70670001Y-90529999D01*
X70670001Y-92980000D02*
X73210000Y-92980000D01*
X55000000Y-89000000D02*
X55000000Y-84000000D01*
X55000000Y-84000000D02*
X54374999Y-83374999D01*
X131500000Y-90500000D02*
X101300000Y-90500000D01*
X54374999Y-83374999D02*
X51700000Y-83374999D01*
X70700000Y-90500000D02*
X56500000Y-90500000D01*
X101300000Y-90500000D02*
X70700000Y-90500000D01*
X56500000Y-90500000D02*
X55000000Y-89000000D01*
X101270001Y-92980000D02*
X101270001Y-90529999D01*
X101270001Y-90529999D02*
X101300000Y-90500000D01*
X70670001Y-90529999D02*
X70700000Y-90500000D01*
X131870001Y-90870001D02*
X131500000Y-90500000D01*
%TO.N,/SCL*%
X68300000Y-90000000D02*
X98500000Y-90000000D01*
X129100000Y-90000000D02*
X129300000Y-89800000D01*
X68100000Y-89800000D02*
X67900000Y-90000000D01*
X129300000Y-91200000D02*
X129300000Y-93470000D01*
X55500000Y-88800000D02*
X55500000Y-83800000D01*
X98900000Y-90000000D02*
X129100000Y-90000000D01*
X67900000Y-90000000D02*
X56700000Y-90000000D01*
X98700000Y-89800000D02*
X98900000Y-90000000D01*
X68100000Y-91200000D02*
X68100000Y-93470000D01*
X55500000Y-83800000D02*
X53825000Y-82125000D01*
X68100000Y-93470000D02*
X68130000Y-93500000D01*
X98700000Y-93470000D02*
X98730000Y-93500000D01*
X98700000Y-91200000D02*
X98700000Y-93470000D01*
X129300000Y-93470000D02*
X129330000Y-93500000D01*
X68100000Y-89800000D02*
X68300000Y-90000000D01*
X56700000Y-90000000D02*
X55500000Y-88800000D01*
X98500000Y-90000000D02*
X98700000Y-89800000D01*
X53825000Y-82125000D02*
X51700000Y-82125000D01*
%TO.N,GND*%
X134410000Y-92980000D02*
X136950000Y-92980000D01*
D15*
%TO.N,/E19*%
X100150000Y-77700000D02*
X98729999Y-76279999D01*
X98729999Y-76279999D02*
X98729999Y-75020000D01*
X100150000Y-78000000D02*
X100150000Y-77700000D01*
%TO.N,/E2*%
X132300000Y-86000000D02*
X142030000Y-76270000D01*
X142030000Y-76270000D02*
X142030000Y-75020001D01*
X127350000Y-86000000D02*
X132300000Y-86000000D01*
%TO.N,/E16*%
X106350000Y-76250000D02*
X106350000Y-75020000D01*
X104950000Y-77650000D02*
X106350000Y-76250000D01*
X104950000Y-78000000D02*
X104950000Y-77650000D01*
%TO.N,/E27*%
X78290000Y-76290000D02*
X78290000Y-75020000D01*
X82000000Y-80000000D02*
X78290000Y-76290000D01*
X87350000Y-80000000D02*
X82000000Y-80000000D01*
%TO.N,/E5*%
X127700000Y-83000000D02*
X134410000Y-76290000D01*
X134410000Y-76290000D02*
X134410000Y-75020000D01*
X122550000Y-83000000D02*
X127700000Y-83000000D01*
%TO.N,/E4*%
X136950000Y-76250000D02*
X136950000Y-75020000D01*
X129200000Y-84000000D02*
X136950000Y-76250000D01*
X124150000Y-84000000D02*
X129200000Y-84000000D01*
%TO.N,/E7*%
X129329999Y-76270001D02*
X129329999Y-75020000D01*
X119350000Y-81000000D02*
X124600000Y-81000000D01*
X124600000Y-81000000D02*
X129329999Y-76270001D01*
%TO.N,/E33*%
X72750000Y-86000000D02*
X63050000Y-76300000D01*
X63050000Y-76300000D02*
X63050000Y-75020000D01*
X77750000Y-86000000D02*
X72750000Y-86000000D01*
%TO.N,/E3*%
X125750000Y-85000000D02*
X130750000Y-85000000D01*
X130750000Y-85000000D02*
X139490000Y-76260000D01*
X139490000Y-76260000D02*
X139490000Y-75020000D01*
%TO.N,/E20*%
X96000000Y-75210000D02*
X96190000Y-75020000D01*
%TO.N,/E1*%
X133850000Y-87000000D02*
X144570000Y-76280000D01*
X144570000Y-76280000D02*
X144570000Y-75020000D01*
X128950000Y-87000000D02*
X133850000Y-87000000D01*
%TO.N,/E34*%
X71250000Y-87000000D02*
X60510000Y-76260000D01*
X76150000Y-87000000D02*
X71250000Y-87000000D01*
X60510000Y-76260000D02*
X60510000Y-75020000D01*
%TO.N,/E18*%
X101270000Y-77520000D02*
X101270000Y-74500000D01*
X101750000Y-78000000D02*
X101270000Y-77520000D01*
%TO.N,/E25*%
X83370000Y-76270000D02*
X83370000Y-75020000D01*
X85100000Y-78000000D02*
X83370000Y-76270000D01*
X90550000Y-78000000D02*
X85100000Y-78000000D01*
%TO.N,/E9*%
X116150000Y-79000000D02*
X121500000Y-79000000D01*
X121500000Y-79000000D02*
X124250000Y-76250000D01*
X124250000Y-76250000D02*
X124250000Y-75020000D01*
%TO.N,/E8*%
X117750000Y-80000000D02*
X123050000Y-80000000D01*
X123050000Y-80000000D02*
X126790000Y-76260000D01*
X126790000Y-76260000D02*
X126790000Y-75020000D01*
%TO.N,/E17*%
X103810000Y-77540000D02*
X103810000Y-75020000D01*
X103350000Y-78000000D02*
X103810000Y-77540000D01*
%TO.N,/E6*%
X126150000Y-82000000D02*
X131870001Y-76279999D01*
X131870001Y-76279999D02*
X131870001Y-75020000D01*
X120950000Y-82000000D02*
X126150000Y-82000000D01*
%TO.N,/E10*%
X121710000Y-76290000D02*
X121710000Y-75020000D01*
X114550000Y-78000000D02*
X120000000Y-78000000D01*
X120000000Y-78000000D02*
X121710000Y-76290000D01*
%TO.N,/E32*%
X79300000Y-84950000D02*
X74250000Y-84950000D01*
X65590000Y-76290000D02*
X65590000Y-75020000D01*
X74250000Y-84950000D02*
X65590000Y-76290000D01*
X79350000Y-85000000D02*
X79300000Y-84950000D01*
%TO.N,/E28*%
X85750000Y-81000000D02*
X80500000Y-81000000D01*
X80500000Y-81000000D02*
X75750000Y-76250000D01*
X75750000Y-76250000D02*
X75750000Y-75020000D01*
%TO.N,/E11*%
X119170000Y-76480000D02*
X119170000Y-74500000D01*
X119150000Y-76500000D02*
X119170000Y-76480000D01*
%TO.N,/E31*%
X68129999Y-76279999D02*
X68129999Y-75020000D01*
X80950000Y-84000000D02*
X75850000Y-84000000D01*
X75850000Y-84000000D02*
X68129999Y-76279999D01*
%TO.N,/E29*%
X78950000Y-82000000D02*
X73210000Y-76260000D01*
X84150000Y-82000000D02*
X78950000Y-82000000D01*
X73210000Y-76260000D02*
X73210000Y-75020000D01*
%TO.N,/E30*%
X77400000Y-83000000D02*
X70670001Y-76270001D01*
X82550000Y-83000000D02*
X77400000Y-83000000D01*
X70670001Y-76270001D02*
X70670001Y-75020000D01*
%TO.N,/E26*%
X80830000Y-76280000D02*
X80830000Y-75020001D01*
X83550000Y-79000000D02*
X80830000Y-76280000D01*
X88950000Y-79000000D02*
X83550000Y-79000000D01*
%TD*%
%TA.AperFunction,Conductor*%
%TO.N,GND*%
G36*
X53015677Y-85419685D02*
G01*
X53036319Y-85436319D01*
X53963681Y-86363681D01*
X53997166Y-86425004D01*
X54000000Y-86451362D01*
X54000000Y-89000000D01*
X56500000Y-91500000D01*
X60876000Y-91500000D01*
X60943039Y-91519685D01*
X60988794Y-91572489D01*
X61000000Y-91624000D01*
X61000000Y-95375500D01*
X60980315Y-95442539D01*
X60927511Y-95488294D01*
X60876000Y-95499500D01*
X51004428Y-95499500D01*
X50995582Y-95499184D01*
X50973622Y-95497613D01*
X50795442Y-95484869D01*
X50777931Y-95482351D01*
X50586212Y-95440646D01*
X50569236Y-95435662D01*
X50385390Y-95367090D01*
X50369298Y-95359740D01*
X50197095Y-95265711D01*
X50182210Y-95256146D01*
X50025132Y-95138558D01*
X50011762Y-95126972D01*
X49873027Y-94988237D01*
X49861441Y-94974867D01*
X49743849Y-94817784D01*
X49734288Y-94802904D01*
X49640259Y-94630701D01*
X49632909Y-94614609D01*
X49572091Y-94451551D01*
X49564334Y-94430755D01*
X49559355Y-94413797D01*
X49517647Y-94222063D01*
X49515130Y-94204556D01*
X49500816Y-94004418D01*
X49500500Y-93995572D01*
X49500500Y-91893713D01*
X50049500Y-91893713D01*
X50049500Y-92106286D01*
X50082753Y-92316239D01*
X50148444Y-92518414D01*
X50244951Y-92707820D01*
X50369890Y-92879786D01*
X50520213Y-93030109D01*
X50692179Y-93155048D01*
X50692181Y-93155049D01*
X50692184Y-93155051D01*
X50881588Y-93251557D01*
X51083757Y-93317246D01*
X51293713Y-93350500D01*
X51293714Y-93350500D01*
X51506286Y-93350500D01*
X51506287Y-93350500D01*
X51716243Y-93317246D01*
X51918412Y-93251557D01*
X52107816Y-93155051D01*
X52129789Y-93139086D01*
X52279786Y-93030109D01*
X52279788Y-93030106D01*
X52279792Y-93030104D01*
X52430104Y-92879792D01*
X52430106Y-92879788D01*
X52430109Y-92879786D01*
X52555048Y-92707820D01*
X52555047Y-92707820D01*
X52555051Y-92707816D01*
X52651557Y-92518412D01*
X52717246Y-92316243D01*
X52750500Y-92106287D01*
X52750500Y-91893713D01*
X52717246Y-91683757D01*
X52651557Y-91481588D01*
X52555051Y-91292184D01*
X52555049Y-91292181D01*
X52555048Y-91292179D01*
X52430109Y-91120213D01*
X52279786Y-90969890D01*
X52107820Y-90844951D01*
X51918414Y-90748444D01*
X51918413Y-90748443D01*
X51918412Y-90748443D01*
X51716243Y-90682754D01*
X51716241Y-90682753D01*
X51716240Y-90682753D01*
X51554957Y-90657208D01*
X51506287Y-90649500D01*
X51293713Y-90649500D01*
X51245042Y-90657208D01*
X51083760Y-90682753D01*
X50881585Y-90748444D01*
X50692179Y-90844951D01*
X50520213Y-90969890D01*
X50369890Y-91120213D01*
X50244951Y-91292179D01*
X50148444Y-91481585D01*
X50082753Y-91683760D01*
X50049500Y-91893713D01*
X49500500Y-91893713D01*
X49500500Y-85524000D01*
X49520185Y-85456961D01*
X49572989Y-85411206D01*
X49624500Y-85400000D01*
X52948638Y-85400000D01*
X53015677Y-85419685D01*
G37*
%TD.AperFunction*%
%TD*%
M02*
